<svg viewBox="0 0 33 33" version="1.1" xmlns="http://www.w3.org/2000/svg" xmlns:xlink="http://www.w3.org/1999/xlink">
  <path d="M8.64001465,27.1810873 L8.64001465,24.0587418 L15.017101,11.5205742 L17.9621375,8 L20.0239163,8.76763566 L20.6937758,11.7650449 C20.9087856,12.3608658 21.0495321,12.8046565 21.1160151,13.0964171 C21.1824982,13.3881777 21.5108918,15.0032068 22.1011961,17.9415044 L23.1078402,23.2555994 L22.9450124,24.4396449 L20.0239163,25.5667206 L14.4088085,24.925611 L11.3464802,20.2785933 L25.5490647,17.49237 L28.2261202,17.49237 L30.1954225,17.49237" id="a" class="stroke"></path>
  <path d="M0,0 L33,0 L33,33 L0,33 L0,0 Z M6,23.9550781 L6.44,24.3945312 C6.51822261,24.492188 6.57688869,24.6679675 6.616,24.921875 C6.65511131,25.0585944 6.68444435,25.1904291 6.704,25.3173828 C6.72355565,25.4443366 6.77244405,25.5859367 6.85066667,25.7421875 L7.02666667,25.9765625 C7.2222232,26.0742192 7.3933326,26.1865228 7.54,26.3134766 C7.6866674,26.4404303 7.87733216,26.6210926 8.112,26.8554688 L8.49333333,26.8847656 C8.63022291,26.8847656 8.75244391,26.8750001 8.86,26.8554688 C8.96755609,26.8359374 9.14844317,26.7968753 9.40266667,26.7382812 L9.84266667,26.6796875 L9.93066667,26.2988281 C10.0088893,26.2207027 10.1457768,26.1425785 10.3413333,26.0644531 C10.4782229,26.0058591 10.6199993,25.9375004 10.7666667,25.859375 C10.9133341,25.7812496 11.0355551,25.6640633 11.1333333,25.5078125 L11.2506667,25.1269531 C11.2506667,24.8339829 11.2946662,24.5410171 11.3826667,24.2480469 C11.4706671,23.9550767 11.5635551,23.6523453 11.6613333,23.3398438 C11.7395559,23.1445303 11.8128885,22.9492197 11.8813333,22.7539062 C11.9497781,22.5585928 12.0035554,22.3535167 12.0426667,22.1386719 C12.081778,22.0996092 12.1306664,22.0605471 12.1893333,22.0214844 C12.2480003,21.9824217 12.2968887,21.933594 12.336,21.875 L12.6293333,21.6113281 L12.512,21.2890625 C12.4924443,21.2499998 12.4973332,21.1914066 12.5266667,21.1132812 C12.5560001,21.0351559 12.590222,20.9765627 12.6293333,20.9375 L13.0106667,20.8789062 L13.128,20.4980469 C13.1671113,20.3613274 13.2111109,20.2197273 13.26,20.0732422 C13.3088891,19.9267571 13.3724441,19.7753914 13.4506667,19.6191406 C13.4702223,19.8535168 13.5484438,20.0781239 13.6853333,20.2929688 C13.6071107,20.585939 13.6364438,20.8300771 13.7733333,21.0253906 C13.9102229,21.2207041 14.0275551,21.3769525 14.1253333,21.4941406 L14.2573333,21.6259766 C14.3062225,21.6748049 14.3306667,21.7187498 14.3306667,21.7578125 L14.4186667,22.0800781 L14.7413333,22.109375 C15.1128907,22.167969 15.4648872,22.1972656 15.7973333,22.1972656 C16.3057803,22.1972656 16.775109,22.1533208 17.2053333,22.0654297 C17.6355577,21.9775386 18.0755533,21.8750006 18.5253333,21.7578125 C18.8382238,21.6796871 19.1511095,21.6064457 19.464,21.5380859 C19.7768905,21.4697262 20.1777753,21.4843745 20.6666667,21.5820312 C20.705778,22.2070344 20.6275565,22.6416003 20.432,22.8857422 C20.2364435,23.129884 19.8453363,23.3300773 19.2586667,23.4863281 L18.2906667,23.75 L18.8773333,24.4238281 C18.9555559,24.5019535 19.0239997,24.575195 19.0826667,24.6435547 C19.1413336,24.7119144 19.2097774,24.7753903 19.288,24.8339844 C19.5031122,25.0292979 19.6448885,25.1855463 19.7133333,25.3027344 C19.7817781,25.4199225 19.786667,25.5566398 19.728,25.7128906 L19.6106667,26.1523438 L19.992,26.328125 C20.0897783,26.3671877 20.2168881,26.4453119 20.3733333,26.5625 C20.4711116,26.6406254 20.5835549,26.7187496 20.7106667,26.796875 C20.8377784,26.8750004 21.0382209,26.9433591 21.312,27.0019531 C21.8008913,26.9824218 22.27022,26.8701182 22.72,26.6650391 C23.16978,26.4599599 23.5755537,26.1962907 23.9373333,25.8740234 C24.2991129,25.5517562 24.6119987,25.1904317 24.876,24.7900391 C25.1400013,24.3896464 25.3697768,23.9355494 25.5653333,23.4277344 C25.6240003,22.9785134 25.6288891,22.5439474 25.58,22.1240234 C25.5311109,21.7040995 25.4675559,21.2988301 25.3893333,20.9082031 C25.350222,20.7519523 25.3257778,20.615235 25.316,20.4980469 C25.3062222,20.3808588 25.281778,20.2539069 25.2426667,20.1171875 C25.790225,19.86328 26.2839978,19.5410176 26.724,19.1503906 C27.1640022,18.7597637 27.4915545,18.3593771 27.7066667,17.9492188 L28,17.3925781 L27.472,17.1875 C27.4328887,17.1679687 27.3840003,17.1337893 27.3253333,17.0849609 C27.2666664,17.0361326 27.217778,16.9921877 27.1786667,16.953125 C27.0808884,16.8554683 26.9586674,16.7529302 26.812,16.6455078 C26.6653326,16.5380854 26.4355571,16.4746095 26.1226667,16.4550781 C26.0444441,16.3964841 25.9760003,16.3378909 25.9173333,16.2792969 C25.8586664,16.2207028 25.809778,16.1621097 25.7706667,16.1035156 L25.6533333,15.7519531 L25.272,15.78125 C24.9591095,15.8007813 24.6853345,15.8593745 24.4506667,15.9570312 C24.4115554,15.9374999 24.2942232,15.9277344 24.0986667,15.9277344 C23.9031101,15.458982 23.7466673,14.9658229 23.6293333,14.4482422 C23.5119994,13.9306615 23.4044449,13.3886747 23.3066667,12.8222656 C23.2284441,12.4316387 23.1453338,12.0361348 23.0573333,11.6357422 C22.9693329,11.2353496 22.8764449,10.8398457 22.7786667,10.4492188 C22.759111,9.96093506 22.7200003,9.51660356 22.6613333,9.11621094 C22.6026664,8.71581831 22.5342226,8.31054893 22.456,7.90039062 C22.4168887,7.7246085 22.3826668,7.548829 22.3533333,7.37304688 C22.3239999,7.19726475 22.289778,7.0019542 22.2506667,6.78710938 L22.104,6.5234375 C21.8888878,6.30859268 21.5857797,6.13769595 21.1946667,6.01074219 C20.8035536,5.88378843 20.4026687,5.77148486 19.992,5.67382812 C19.7573322,5.59570273 19.5324455,5.52734404 19.3173333,5.46875 C19.1022211,5.41015596 18.9457783,5.35156279 18.848,5.29296875 L18.3786667,5 L18.0266667,5.49804688 C17.5182197,6.27930078 17.0146692,6.9482394 16.516,7.50488281 C16.0173308,8.06152622 15.4453366,8.48632666 14.8,8.77929688 L14.272,8.69140625 C14.1351104,8.69140625 14.0226671,8.70605454 13.9346667,8.73535156 C13.8466662,8.76464858 13.7635559,8.79882793 13.6853333,8.83789062 L13.3626667,8.80859375 L13.1573333,9.1015625 C12.8444429,9.47265811 12.5853344,9.85351367 12.38,10.2441406 C12.1746656,10.6347676 11.9840009,11.0253887 11.808,11.4160156 C11.6515548,11.7480485 11.4902231,12.0703109 11.324,12.3828125 C11.1577769,12.6953141 10.9377791,13.046873 10.664,13.4375 C10.6248887,13.5546881 10.6053333,13.6572261 10.6053333,13.7451172 C10.6053333,13.8330083 10.615111,13.9160152 10.6346667,13.9941406 C10.4586658,14.3847676 10.2777787,14.7656231 10.092,15.1367188 C9.90622129,15.5078144 9.72533421,15.8789044 9.54933333,16.25 C8.98221939,17.4023495 8.43955815,18.5253852 7.92133333,19.6191406 C7.40310852,20.7128961 6.899558,21.8554628 6.41066667,23.046875 L6.38133333,23.6621094 L6,23.9550781 Z M15.3519976,16.3399963 L15.3813309,16.3106995 C15.6746657,15.7638217 16.0462175,15.1876556 16.4959976,14.5821838 C16.9457776,13.9767121 17.4151062,13.4103115 17.9039976,12.8829651 L18.0506642,12.5899963 C18.2657764,13.3517189 18.4662189,14.1085473 18.6519976,14.8605042 C18.8377763,15.612461 19.0088857,16.3497583 19.1653309,17.0724182 C18.480883,17.2091376 17.8453338,17.3067929 17.2586642,17.365387 C16.6719946,17.423981 16.0364454,17.4728086 15.3519976,17.5118713 C15.215108,17.5314027 15.0831093,17.5411682 14.9559976,17.5411682 C14.8288858,17.5411682 14.6968871,17.5509337 14.5599976,17.5704651 C14.8142211,17.1407754 15.0782184,16.7306233 15.3519976,16.3399963 Z" id="mask"></path>
</svg>
