<svg viewBox="0 0 33 33" version="1.1" xmlns="http://www.w3.org/2000/svg" xmlns:xlink="http://www.w3.org/1999/xlink">
  <path d="M5.17874216,16.5251123 L7.09867116,12.1074928 L9.12257946,9.91013492 L17.0661623,7.07000732 L19.6321458,7.07000732 L22.4600663,7.99638845 L22.9436127,9.45048421 L21.5091046,12.1074928 L18.9806905,13.1190855 L14.5054473,14.7058209 L14.2022558,15.8535054 L18.2482744,15.8535054 L22.1008998,16.5251123 L23.7735086,18.4539172 L24.4753065,20.4683107 L21.5091046,23.2191077 C17.0629808,24.3786123 14.7284283,24.9583646 14.5054473,24.9583646 C14.2824662,24.9583646 13.5663879,24.8851553 12.3572123,24.7387369" id="b2" class="stroke"></path>
  <path d="M12.0382575,12 L13.2919167,13.9532096 C13.2417107,14.6149264 13.1706213,15.1080791 13.0786485,15.4326676 C11.4507336,21.1778719 10.0911841,24.981441 9,26.843375" id="b1" class="stroke"></path>
  <path d="M0,0 L33,0 L33,33 L0,33 L0,0 Z M9.33984375,12.8808594 C9.55468857,12.802734 9.79882676,12.7685546 10.0722656,12.7783203 C10.3457045,12.788086 10.5703116,12.7148445 10.7460938,12.5585938 C10.7851564,12.2265608 10.877929,11.9628916 11.0244141,11.7675781 C11.1708992,11.5722646 11.4101546,11.4550783 11.7421875,11.4160156 C11.8203129,11.8066426 11.8300784,12.148436 11.7714844,12.4414062 C11.7128903,12.7343765 11.6298833,13.012694 11.5224609,13.2763672 C11.4150385,13.5400404 11.3125005,13.8085924 11.2148438,14.0820312 C11.117187,14.3554701 11.0781249,14.667967 11.0976562,15.0195312 C10.8632801,15.5859403 10.7070316,16.0546856 10.6289062,16.4257812 C10.5507809,16.7968769 10.4775394,17.1435531 10.4091797,17.4658203 C10.34082,17.7880875 10.2480475,18.1201155 10.1308594,18.4619141 C10.0136713,18.8037126 9.80859521,19.2187476 9.515625,19.7070312 C9.515625,19.804688 9.53515605,19.8730467 9.57421875,19.9121094 C9.61328145,19.9511721 9.65234355,19.9999997 9.69140625,20.0585938 C9.51562412,20.1953132 9.38867227,20.3662099 9.31054688,20.5712891 C9.23242148,20.7763682 9.16894556,20.9863271 9.12011719,21.2011719 C9.07128882,21.4160167 9.01757842,21.6259755 8.95898438,21.8310547 C8.90039033,22.0361338 8.783204,22.2070306 8.60742188,22.34375 C8.74414131,22.5781262 8.82226553,22.8222644 8.84179688,23.0761719 C8.70507744,23.1152346 8.60742217,23.1835933 8.54882812,23.28125 C8.49023408,23.3789067 8.44628921,23.4912103 8.41699219,23.6181641 C8.38769517,23.7451178 8.36816411,23.8818352 8.35839844,24.0283203 C8.34863276,24.1748054 8.33398447,24.3164056 8.31445312,24.453125 C8.41210986,24.7656266 8.54882725,25.0439441 8.72460938,25.2880859 C8.9003915,25.5322278 8.93945361,25.7324211 8.84179688,25.8886719 C9.017579,25.9277346 9.15429639,26.0498037 9.25195312,26.2548828 C9.34960986,26.459962 9.37890645,26.6113276 9.33984375,26.7089844 C9.53515723,26.7675784 9.68164014,26.8310543 9.77929688,26.8994141 C9.87695361,26.9677738 9.96484336,27.045898 10.0429688,27.1337891 L10.2773438,27.3974609 C10.3554691,27.485352 10.4726555,27.568359 10.6289062,27.6464844 C10.7460943,27.5292963 10.8681634,27.4804687 10.9951172,27.5 C11.1220709,27.5195313 11.3222643,27.5488279 11.5957031,27.5878906 C11.7519539,27.5097652 11.9033196,27.3730479 12.0498047,27.1777344 C12.1962898,26.9824209 12.3183589,26.7968759 12.4160156,26.6210938 C12.6308604,26.7773445 12.8847642,26.9433585 13.1777344,27.1191406 C13.4707046,27.2949228 13.7539049,27.4316401 14.0273438,27.5292969 C14.3007826,27.6269536 14.5302725,27.6708985 14.7158203,27.6611328 C14.9013681,27.6513671 15.0039062,27.529298 15.0234375,27.2949219 C15.1210942,27.3339846 15.1748046,27.3974605 15.1845703,27.4853516 C15.194336,27.5732426 15.2480464,27.6367186 15.3457031,27.6757812 C15.5605479,27.6367186 15.7998034,27.5976564 16.0634766,27.5585938 C16.3271498,27.5195311 16.5761707,27.4707034 16.8105469,27.4121094 C17.044923,27.3535153 17.2548819,27.2802739 17.4404297,27.1923828 C17.6259775,27.1044917 17.7675776,26.9921882 17.8652344,26.8554688 C19.0761779,26.6796866 20.2431584,26.3427759 21.3662109,25.8447266 C22.4892634,25.3466772 23.5683542,24.7851594 24.6035156,24.1601562 C24.8769545,23.9257801 25.052734,23.7695316 25.1308594,23.6914062 C25.2089848,23.6132809 25.287109,23.5253911 25.3652344,23.4277344 C25.4433598,23.3300776 25.5605461,23.1738292 25.7167969,22.9589844 C25.8730477,22.7441396 26.1660135,22.3730495 26.5957031,21.8457031 C26.6152345,21.7480464 26.6152345,21.6162118 26.5957031,21.4501953 C26.5761718,21.2841789 26.4980476,21.1621098 26.3613281,21.0839844 C26.4785162,20.9667963 26.5273438,20.8203134 26.5078125,20.6445312 C26.4882812,20.4687491 26.429688,20.2685558 26.3320312,20.0439453 C26.2343745,19.8193348 26.1318365,19.5849622 26.0244141,19.3408203 C25.9169917,19.0966785 25.8339847,18.857423 25.7753906,18.6230469 C25.5800771,18.5839842 25.4531253,18.50586 25.3945312,18.3886719 C25.1992178,18.056639 24.9599624,17.7587904 24.6767578,17.4951172 C24.3935533,17.231444 24.0957047,16.982423 23.7832031,16.7480469 C23.4707016,16.5136707 23.1630875,16.2744153 22.8603516,16.0302734 C22.5576157,15.7861316 22.2890637,15.5175796 22.0546875,15.2246094 C22.4062518,14.7753884 22.7919901,14.3554707 23.2119141,13.9648438 C23.631838,13.5742168 24.0273419,13.1591819 24.3984375,12.7197266 C24.7695331,12.2802712 25.0771472,11.7968776 25.3212891,11.2695312 C25.5654309,10.7421849 25.6777345,10.1171911 25.6582031,9.39453125 C25.6191404,9.29687451 25.5507817,9.23828135 25.453125,9.21875 C25.3554683,9.19921865 25.3164062,9.13085996 25.3359375,9.01367188 C25.3359375,8.72070166 25.262696,8.45703242 25.1162109,8.22265625 C24.9697258,7.98828008 24.7841808,7.77343848 24.5595703,7.578125 C24.3349598,7.38281152 24.1005872,7.19238374 23.8564453,7.00683594 C23.6123035,6.82128813 23.4023446,6.62109482 23.2265625,6.40625 C23.0507804,6.40625 22.8896492,6.34765684 22.7431641,6.23046875 C22.596679,6.11328066 22.4404305,5.98144604 22.2744141,5.83496094 C22.1083976,5.68847583 21.9277354,5.55664121 21.7324219,5.43945312 C21.5371084,5.32226504 21.3125013,5.26367188 21.0585938,5.26367188 C20.960937,5.30273457 20.9511715,5.3662105 21.0292969,5.45410156 C21.1074223,5.54199263 21.1074223,5.57617197 21.0292969,5.55664062 C20.7753894,5.3808585 20.5312512,5.27832046 20.296875,5.24902344 C20.0624988,5.21972642 19.8867193,5.13671943 19.7695312,5 C19.6328118,5.05859404 19.4667979,5.09277339 19.2714844,5.10253906 C19.0761709,5.11230474 18.8710948,5.1171875 18.65625,5.1171875 C18.4414052,5.1171875 18.2363291,5.12207026 18.0410156,5.13183594 C17.8457021,5.14160161 17.6796882,5.18554648 17.5429688,5.26367188 C16.5078073,5.20507783 15.5312546,5.27831929 14.6132812,5.48339844 C13.6953079,5.68847759 12.8847691,5.89843643 12.1816406,6.11328125 C12.0839839,6.03515586 12.0351562,6.0156248 12.0351562,6.0546875 C12.0351562,6.0937502 11.9765631,6.0937502 11.859375,6.0546875 C11.2929659,6.17187559 10.7070343,6.30859297 10.1015625,6.46484375 C9.49609072,6.62109453 8.92480737,6.82617061 8.38769531,7.08007812 C7.85058325,7.33398564 7.36718965,7.64159976 6.9375,8.00292969 C6.50781035,8.36425962 6.19531348,8.80859111 6,9.3359375 C6.33203291,10.1562541 6.76659888,10.8691376 7.30371094,11.4746094 C7.840823,12.0800812 8.51952715,12.5488265 9.33984375,12.8808594 Z M22.2275125,18.5388205 C22.2665752,18.8122593 22.2177476,19.0271009 22.0810282,19.1833517 C21.9443087,19.3396025 21.7782948,19.4812026 21.5829813,19.6081564 C21.3876678,19.7351102 21.1923573,19.8669448 20.9970438,20.0036642 C20.8017303,20.1403836 20.6747785,20.3259287 20.6161844,20.5603048 C20.0497753,20.7751497 19.5029058,21.0046396 18.9755594,21.2487814 C18.448213,21.4929232 17.911109,21.7370614 17.3642313,21.9812033 C16.8173536,22.2253451 16.250953,22.4450695 15.6650125,22.640383 C15.0790721,22.8356964 14.4345473,22.9821794 13.7314188,23.0798361 C13.9853263,22.3181135 14.2489956,21.5368713 14.5224344,20.7360861 C14.7958733,19.9353008 15.0595425,19.2028863 15.31345,18.5388205 C15.8212651,18.4606951 16.3290725,18.3435087 16.8368875,18.187258 C17.3447026,18.0310072 17.8769238,17.9089381 18.4335672,17.821047 C18.9902106,17.733156 19.5761423,17.7282732 20.1913797,17.8063986 C20.8066172,17.884524 21.4853213,18.1286622 22.2275125,18.5388205 Z M20.1846354,9.36904919 C19.6182263,10.0721777 18.983467,10.7118197 18.2803385,11.2879945 C17.57721,11.8641693 16.7569057,12.3377973 15.819401,12.7088929 C15.6045562,12.2792033 15.2871765,11.9374098 14.8672525,11.6835023 C14.4473286,11.4295948 14.0420592,11.136629 13.6514322,10.8045961 C14.4522175,10.3163124 15.4385357,9.94522233 16.6104166,9.69131481 C17.7822975,9.4374073 18.9736918,9.32998649 20.1846354,9.36904919 Z" id="mask"></path>
</svg>
