<svg viewBox="0 0 33 33" version="1.1" xmlns="http://www.w3.org/2000/svg" xmlns:xlink="http://www.w3.org/1999/xlink">
    
            <path d="M12.7711189,13.1074928 L14.0247781,15.0607023 C14.0040426,15.7831142 13.9476884,16.3066144 13.8557156,16.631203 C11.4138433,25.2490094 9.15873908,29.7882052 8.0050739,30.4647956 C5.03369495,30.4253257 4.59611561,25.0704142 6.6923359,14.400061 L9.87264237,10.9574348 L17.9518983,8.07000732 L20.5178819,8.07000732 L23.3458024,8.99638845 L23.8293487,10.4504842 L22.3948406,13.1074928 L19.8664265,14.1190855 L15.3911833,15.7058209 L15.0879918,16.8535054 L19.1340104,16.8535054 L22.9866358,17.5251123 L24.6592446,19.4539172 L25.3610425,21.4683107 L22.3948406,24.2191077 C17.9487168,25.3786123 15.6141644,25.9583646 15.3911833,25.9583646 C15.1682023,25.9583646 14.5941939,25.8924116 13.6691581,25.7605058" id="b" class="stroke"></path>
            <path d="M0.848567775,0.96875 L33.8485678,0.96875 L33.8485678,33.96875 L0.848567775,33.96875 L0.848567775,0.96875 Z M10.1884115,13.8496094 C10.4032563,13.771484 10.6473945,13.7373046 10.9208334,13.7470703 C11.1942723,13.756836 11.4188794,13.6835945 11.5946615,13.5273438 C11.6337242,13.1953108 11.7264967,12.9316416 11.8729818,12.7363281 C12.0194669,12.5410146 12.2587224,12.4238283 12.5907553,12.3847656 C12.6688807,12.7753926 12.6786462,13.117186 12.6200521,13.4101562 C12.5614581,13.7031265 12.4784511,13.981444 12.3710287,14.2451172 C12.2636063,14.5087904 12.1610683,14.7773424 12.0634115,15.0507812 C11.9657548,15.3242201 11.9266927,15.636717 11.946224,15.9882812 C11.7118479,16.5546903 11.5555994,17.0234356 11.477474,17.3945312 C11.3993486,17.7656269 11.3261072,18.1123031 11.2577475,18.4345703 C11.1893877,18.7568375 11.0966152,19.0888655 10.9794271,19.4306641 C10.8622391,19.7724626 10.657163,20.1874976 10.3641928,20.6757812 C10.3641928,20.773438 10.3837238,20.8417967 10.4227865,20.8808594 C10.4618492,20.9199221 10.5009113,20.9687497 10.539974,21.0273438 C10.3641919,21.1640632 10.23724,21.3349599 10.1591146,21.5400391 C10.0809893,21.7451182 10.0175133,21.9550771 9.96868496,22.1699219 C9.91985659,22.3847667 9.86614619,22.5947255 9.80755215,22.7998047 C9.74895811,23.0048838 9.63177178,23.1757806 9.45598965,23.3125 C9.59270908,23.5468762 9.6708333,23.7910144 9.69036465,24.0449219 C9.55364522,24.0839846 9.45598994,24.1523433 9.3973959,24.25 C9.33880186,24.3476567 9.29485698,24.4599603 9.26555996,24.5869141 C9.23626294,24.7138678 9.21673189,24.8505852 9.20696621,24.9970703 C9.19720054,25.1435554 9.18255225,25.2851556 9.1630209,25.421875 C9.26067764,25.7343766 9.39739502,26.0126941 9.57317715,26.2568359 C9.74895928,26.5009778 9.78802139,26.7011711 9.69036465,26.8574219 C9.86614678,26.8964846 10.0028642,27.0185537 10.1005209,27.2236328 C10.1981776,27.428712 10.2274742,27.5800776 10.1884115,27.6777344 C10.383725,27.7363284 10.5302079,27.7998043 10.6278646,27.8681641 C10.7255214,27.9365238 10.8134111,28.014648 10.8915365,28.1025391 L11.1259115,28.3662109 C11.2040369,28.454102 11.3212232,28.537109 11.477474,28.6152344 C11.5946621,28.4980463 11.7167312,28.4492187 11.843685,28.46875 C11.9706387,28.4882813 12.170832,28.5175779 12.4442709,28.5566406 C12.6005217,28.4785152 12.7518874,28.3417979 12.8983725,28.1464844 C13.0448576,27.9511709 13.1669267,27.7656259 13.2645834,27.5898438 C13.4794282,27.7460945 13.7333319,27.9121085 14.0263021,28.0878906 C14.3192724,28.2636728 14.6024727,28.4003901 14.8759115,28.4980469 C15.1493504,28.5957036 15.3788403,28.6396485 15.5643881,28.6298828 C15.7499359,28.6201171 15.8524739,28.498048 15.8720053,28.2636719 C15.969662,28.3027346 16.0233724,28.3662105 16.0331381,28.4541016 C16.0429038,28.5419926 16.0966142,28.6054686 16.1942709,28.6445312 C16.4091157,28.6054686 16.6483711,28.5664064 16.9120443,28.5273438 C17.1757175,28.4882811 17.4247385,28.4394534 17.6591146,28.3808594 C17.8934908,28.3222653 18.1034497,28.2490239 18.2889975,28.1611328 C18.4745453,28.0732417 18.6161454,27.9609382 18.7138021,27.8242188 C19.9247457,27.6484366 21.0917262,27.3115259 22.2147787,26.8134766 C23.3378312,26.3154272 24.416922,25.7539094 25.4520834,25.1289062 C25.7255223,24.8945301 25.9013018,24.7382816 25.9794271,24.6601562 C26.0575525,24.5820309 26.1356768,24.4941411 26.2138021,24.3964844 C26.2919275,24.2988276 26.4091139,24.1425792 26.5653646,23.9277344 C26.7216154,23.7128896 27.0145813,23.3417995 27.4442709,22.8144531 C27.4638022,22.7167964 27.4638022,22.5849618 27.4442709,22.4189453 C27.4247396,22.2529289 27.3466153,22.1308598 27.2098959,22.0527344 C27.327084,21.9355463 27.3759116,21.7890634 27.3563803,21.6132812 C27.3368489,21.4374991 27.2782558,21.2373058 27.180599,21.0126953 C27.0829423,20.7880848 26.9804042,20.5537122 26.8729818,20.3095703 C26.7655594,20.0654285 26.6825524,19.826173 26.6239584,19.5917969 C26.4286449,19.5527342 26.3016931,19.47461 26.243099,19.3574219 C26.0477855,19.025389 25.8085301,18.7275404 25.5253256,18.4638672 C25.242121,18.200194 24.9442725,17.951173 24.6317709,17.7167969 C24.3192693,17.4824207 24.0116552,17.2431653 23.7089193,16.9990234 C23.4061834,16.7548816 23.1376314,16.4863296 22.9032553,16.1933594 C23.2548195,15.7441384 23.6405579,15.3242207 24.0604818,14.9335938 C24.4804058,14.5429668 24.8759097,14.1279319 25.2470053,13.6884766 C25.6181009,13.2490212 25.925715,12.7656276 26.1698568,12.2382812 C26.4139987,11.7109349 26.5263022,11.0859411 26.5067709,10.3632812 C26.4677082,10.2656245 26.3993495,10.2070313 26.3016928,10.1875 C26.204036,10.1679687 26.1649739,10.09961 26.1845053,9.98242188 C26.1845053,9.68945166 26.1112638,9.42578242 25.9647787,9.19140625 C25.8182936,8.95703008 25.6327486,8.74218848 25.4081381,8.546875 C25.1835276,8.35156152 24.9491549,8.16113374 24.7050131,7.97558594 C24.4608712,7.79003813 24.2509124,7.58984482 24.0751303,7.375 C23.8993481,7.375 23.7382169,7.31640684 23.5917318,7.19921875 C23.4452467,7.08203066 23.2889983,6.95019604 23.1229818,6.80371094 C22.9569654,6.65722583 22.7763031,6.52539121 22.5809896,6.40820312 C22.3856762,6.29101504 22.161069,6.23242188 21.9071615,6.23242188 C21.8095048,6.27148457 21.7997393,6.3349605 21.8778646,6.42285156 C21.95599,6.51074263 21.95599,6.54492197 21.8778646,6.52539062 C21.6239571,6.3496085 21.3798189,6.24707046 21.1454428,6.21777344 C20.9110666,6.18847642 20.7352871,6.10546943 20.618099,5.96875 C20.4813796,6.02734404 20.3153656,6.06152339 20.1200521,6.07128906 C19.9247387,6.08105474 19.7196626,6.0859375 19.5048178,6.0859375 C19.289973,6.0859375 19.0848969,6.09082026 18.8895834,6.10058594 C18.6942699,6.11035161 18.528256,6.15429648 18.3915365,6.23242188 C17.3563751,6.17382783 16.3798224,6.24706929 15.461849,6.45214844 C14.5438757,6.65722759 13.7333369,6.86718643 13.0302084,7.08203125 C12.9325517,7.00390586 12.883724,6.9843748 12.883724,7.0234375 C12.883724,7.0625002 12.8251309,7.0625002 12.7079428,7.0234375 C12.1415337,7.14062559 11.5556021,7.27734297 10.9501303,7.43359375 C10.3446585,7.58984453 9.77337515,7.79492061 9.23626309,8.04882812 C8.69915103,8.30273564 8.21575742,8.61034976 7.78606777,8.97167969 C7.35637813,9.33300962 7.04388125,9.77734111 6.84856777,10.3046875 C7.18060069,11.1250041 7.61516665,11.8378876 8.15227871,12.4433594 C8.68939077,13.0488312 9.36809492,13.5175765 10.1884115,13.8496094 Z M23.0760803,19.5075705 C23.115143,19.7810093 23.0663154,19.9958509 22.9295959,20.1521017 C22.7928765,20.3083525 22.6268625,20.4499526 22.4315491,20.5769064 C22.2362356,20.7038602 22.040925,20.8356948 21.8456116,20.9724142 C21.6502981,21.1091336 21.5233462,21.2946787 21.4647522,21.5290548 C20.8983431,21.7438997 20.3514736,21.9733896 19.8241272,22.2175314 C19.2967808,22.4616732 18.7596768,22.7058114 18.2127991,22.9499533 C17.6659213,23.1940951 17.0995208,23.4138195 16.5135803,23.609133 C15.9276399,23.8044464 15.2831151,23.9509294 14.5799866,24.0485861 C14.8338941,23.2868635 15.0975633,22.5056213 15.3710022,21.7048361 C15.6444411,20.9040508 15.9081103,20.1716363 16.1620178,19.5075705 C16.6698329,19.4294451 17.1776403,19.3122587 17.6854553,19.156008 C18.1932704,18.9997572 18.7254916,18.8776881 19.282135,18.789797 C19.8387784,18.701906 20.4247101,18.6970232 21.0399475,18.7751486 C21.655185,18.853274 22.3338891,19.0974122 23.0760803,19.5075705 Z M21.0332031,10.3377992 C20.466794,11.0409277 19.8320348,11.6805697 19.1289062,12.2567445 C18.4257777,12.8329193 17.6054734,13.3065473 16.6679688,13.6776429 C16.4531239,13.2479533 16.1357443,12.9061598 15.7158203,12.6522523 C15.2958963,12.3983448 14.890627,12.105379 14.5,11.7733461 C15.3007853,11.2850624 16.2871035,10.9139723 17.4589844,10.6600648 C18.6308652,10.4061573 19.8222596,10.2987365 21.0332031,10.3377992 Z" id="mask" ></path>
</svg>
