<svg viewBox="0 0 33 33" version="1.1" xmlns="http://www.w3.org/2000/svg" xmlns:xlink="http://www.w3.org/1999/xlink">
            <rect class="background" x="0" y="0" width="33" height="33"></rect>
            <path d="M9.33984375,12.8808594 C8.51952715,12.5488265 7.840823,12.0800812 7.30371094,11.4746094 C6.76659888,10.8691376 6.33203291,10.1562541 6,9.3359375 C6.19531348,8.80859111 6.50781035,8.36425962 6.9375,8.00292969 C7.36718965,7.64159976 7.85058325,7.33398564 8.38769531,7.08007812 C8.92480737,6.82617061 9.49609072,6.62109453 10.1015625,6.46484375 C10.7070343,6.30859297 11.2929659,6.17187559 11.859375,6.0546875 C11.9765631,6.0937502 12.0351562,6.0937502 12.0351562,6.0546875 C12.0351562,6.0156248 12.0839839,6.03515586 12.1816406,6.11328125 C12.8847691,5.89843643 13.6953079,5.68847759 14.6132812,5.48339844 C15.5312546,5.27831929 16.5078073,5.20507783 17.5429688,5.26367188 C17.6796882,5.18554648 17.8457021,5.14160161 18.0410156,5.13183594 C18.2363291,5.12207026 18.4414052,5.1171875 18.65625,5.1171875 C18.8710948,5.1171875 19.0761709,5.11230474 19.2714844,5.10253906 C19.4667979,5.09277339 19.6328118,5.05859404 19.7695312,5 C19.8867193,5.13671943 20.0624988,5.21972642 20.296875,5.24902344 C20.5312512,5.27832046 20.7753894,5.3808585 21.0292969,5.55664062 C21.1074223,5.57617197 21.1074223,5.54199263 21.0292969,5.45410156 C20.9511715,5.3662105 20.960937,5.30273457 21.0585938,5.26367188 C21.3125013,5.26367188 21.5371084,5.32226504 21.7324219,5.43945312 C21.9277354,5.55664121 22.1083976,5.68847583 22.2744141,5.83496094 C22.4404305,5.98144604 22.596679,6.11328066 22.7431641,6.23046875 C22.8896492,6.34765684 23.0507804,6.40625 23.2265625,6.40625 C23.4023446,6.62109482 23.6123035,6.82128813 23.8564453,7.00683594 C24.1005872,7.19238374 24.3349598,7.38281152 24.5595703,7.578125 C24.7841808,7.77343848 24.9697258,7.98828008 25.1162109,8.22265625 C25.262696,8.45703242 25.3359375,8.72070166 25.3359375,9.01367188 C25.3164062,9.13085996 25.3554683,9.19921865 25.453125,9.21875 C25.5507817,9.23828135 25.6191404,9.29687451 25.6582031,9.39453125 C25.6777345,10.1171911 25.5654309,10.7421849 25.3212891,11.2695312 C25.0771472,11.7968776 24.7695331,12.2802712 24.3984375,12.7197266 C24.0273419,13.1591819 23.631838,13.5742168 23.2119141,13.9648438 C22.7919901,14.3554707 22.4062518,14.7753884 22.0546875,15.2246094 C22.2890637,15.5175796 22.5576157,15.7861316 22.8603516,16.0302734 C23.1630875,16.2744153 23.4707016,16.5136707 23.7832031,16.7480469 C24.0957047,16.982423 24.3935533,17.231444 24.6767578,17.4951172 C24.9599624,17.7587904 25.1992178,18.056639 25.3945312,18.3886719 C25.4531253,18.50586 25.5800771,18.5839842 25.7753906,18.6230469 C25.8339847,18.857423 25.9169917,19.0966785 26.0244141,19.3408203 C26.1318365,19.5849622 26.2343745,19.8193348 26.3320312,20.0439453 C26.429688,20.2685558 26.4882812,20.4687491 26.5078125,20.6445312 C26.5273438,20.8203134 26.4785162,20.9667963 26.3613281,21.0839844 C26.4980476,21.1621098 26.5761718,21.2841789 26.5957031,21.4501953 C26.6152345,21.6162118 26.6152345,21.7480464 26.5957031,21.8457031 C26.1660135,22.3730495 25.8730477,22.7441396 25.7167969,22.9589844 C25.5605461,23.1738292 25.4433598,23.3300776 25.3652344,23.4277344 C25.287109,23.5253911 25.2089848,23.6132809 25.1308594,23.6914062 C25.052734,23.7695316 24.8769545,23.9257801 24.6035156,24.1601562 C23.5683542,24.7851594 22.4892634,25.3466772 21.3662109,25.8447266 C20.2431584,26.3427759 19.0761779,26.6796866 17.8652344,26.8554688 C17.7675776,26.9921882 17.6259775,27.1044917 17.4404297,27.1923828 C17.2548819,27.2802739 17.044923,27.3535153 16.8105469,27.4121094 C16.5761707,27.4707034 16.3271498,27.5195311 16.0634766,27.5585938 C15.7998034,27.5976564 15.5605479,27.6367186 15.3457031,27.6757812 C15.2480464,27.6367186 15.194336,27.5732426 15.1845703,27.4853516 C15.1748046,27.3974605 15.1210942,27.3339846 15.0234375,27.2949219 C15.0039062,27.529298 14.9013681,27.6513671 14.7158203,27.6611328 C14.5302725,27.6708985 14.3007826,27.6269536 14.0273438,27.5292969 C13.7539049,27.4316401 13.4707046,27.2949228 13.1777344,27.1191406 C12.8847642,26.9433585 12.6308604,26.7773445 12.4160156,26.6210938 C12.3183589,26.7968759 12.1962898,26.9824209 12.0498047,27.1777344 C11.9033196,27.3730479 11.7519539,27.5097652 11.5957031,27.5878906 C11.3222643,27.5488279 11.1220709,27.5195313 10.9951172,27.5 C10.8681634,27.4804687 10.7460943,27.5292963 10.6289062,27.6464844 C10.4726555,27.568359 10.3554691,27.485352 10.2773438,27.3974609 L10.0429688,27.1337891 C9.96484336,27.045898 9.87695361,26.9677738 9.77929688,26.8994141 C9.68164014,26.8310543 9.53515723,26.7675784 9.33984375,26.7089844 C9.37890645,26.6113276 9.34960986,26.459962 9.25195312,26.2548828 C9.15429639,26.0498037 9.017579,25.9277346 8.84179688,25.8886719 C8.93945361,25.7324211 8.9003915,25.5322278 8.72460938,25.2880859 C8.54882725,25.0439441 8.41210986,24.7656266 8.31445312,24.453125 C8.33398447,24.3164056 8.34863276,24.1748054 8.35839844,24.0283203 C8.36816411,23.8818352 8.38769517,23.7451178 8.41699219,23.6181641 C8.44628921,23.4912103 8.49023408,23.3789067 8.54882812,23.28125 C8.60742217,23.1835933 8.70507744,23.1152346 8.84179688,23.0761719 C8.82226553,22.8222644 8.74414131,22.5781262 8.60742188,22.34375 C8.783204,22.2070306 8.90039033,22.0361338 8.95898438,21.8310547 C9.01757842,21.6259755 9.07128882,21.4160167 9.12011719,21.2011719 C9.16894556,20.9863271 9.23242148,20.7763682 9.31054688,20.5712891 C9.38867227,20.3662099 9.51562412,20.1953132 9.69140625,20.0585938 C9.65234355,19.9999997 9.61328145,19.9511721 9.57421875,19.9121094 C9.53515605,19.8730467 9.515625,19.804688 9.515625,19.7070312 C9.80859521,19.2187476 10.0136713,18.8037126 10.1308594,18.4619141 C10.2480475,18.1201155 10.34082,17.7880875 10.4091797,17.4658203 C10.4775394,17.1435531 10.5507809,16.7968769 10.6289062,16.4257812 C10.7070316,16.0546856 10.8632801,15.5859403 11.0976562,15.0195312 C11.0781249,14.667967 11.117187,14.3554701 11.2148438,14.0820312 C11.3125005,13.8085924 11.4150385,13.5400404 11.5224609,13.2763672 C11.6298833,13.012694 11.7128903,12.7343765 11.7714844,12.4414062 C11.8300784,12.148436 11.8203129,11.8066426 11.7421875,11.4160156 C11.4101546,11.4550783 11.1708992,11.5722646 11.0244141,11.7675781 C10.877929,11.9628916 10.7851564,12.2265608 10.7460938,12.5585938 C10.5703116,12.7148445 10.3457045,12.788086 10.0722656,12.7783203 C9.79882676,12.7685546 9.55468857,12.802734 9.33984375,12.8808594 Z M22.2304688,18.5351563 C21.4882775,18.1249979 20.8095734,17.8808598 20.1943359,17.8027344 C19.5790985,17.724609 18.9931668,17.7294917 18.4365234,17.8173828 C17.87988,17.9052739 17.3476588,18.027343 16.8398438,18.1835938 C16.3320287,18.3398445 15.8242213,18.4570309 15.3164062,18.5351563 C15.0624987,19.1992221 14.7988295,19.9316366 14.5253906,20.7324219 C14.2519518,21.5332071 13.9882825,22.3144493 13.734375,23.0761719 C14.4375035,22.9785151 15.0820283,22.8320322 15.6679688,22.6367188 C16.2539092,22.4414053 16.8203098,22.2216809 17.3671875,21.9775391 C17.9140652,21.7333972 18.4511692,21.489259 18.9785156,21.2451172 C19.505862,21.0009753 20.0527315,20.7714854 20.6191406,20.5566406 C20.6777347,20.3222645 20.8046865,20.1367194 21,20 C21.1953135,19.8632806 21.390624,19.7314459 21.5859375,19.6044922 C21.781251,19.4775384 21.9472649,19.3359383 22.0839844,19.1796875 C22.2207038,19.0234367 22.2695314,18.8085951 22.2304688,18.5351563 Z M20.1796875,9.36523438 C18.9687439,9.32617168 17.7773496,9.43359248 16.6054688,9.6875 C15.4335879,9.94140752 14.4472696,10.3124976 13.6464844,10.8007813 C14.0371113,11.1328142 14.4423807,11.42578 14.8623047,11.6796875 C15.2822287,11.933595 15.5996083,12.2753885 15.8144531,12.7050781 C16.7519578,12.3339825 17.5722621,11.8603544 18.2753906,11.2841797 C18.9785191,10.7080049 19.6132784,10.0683629 20.1796875,9.36523438 Z" class="stroke"></path>
</svg>
