<svg viewBox="0 0 33 33" version="1.1" xmlns="http://www.w3.org/2000/svg" xmlns:xlink="http://www.w3.org/1999/xlink">
            <rect class="background" x="0" y="0" width="33" height="33"></rect>
            <path d="M19.1855469,24.2597656 C19.2246096,24.4160164 19.2539062,24.5624993 19.2734375,24.6992188 C19.2929688,24.8359382 19.3222654,24.9824211 19.3613281,25.1386719 C19.2832027,25.3339854 19.214844,25.5244131 19.15625,25.7099609 C19.097656,25.8955087 19.0390628,26.076171 18.9804688,26.2519531 C18.9218747,26.3886726 18.8828126,26.4765623 18.8632812,26.515625 C18.8437499,26.5546877 18.8339844,26.5839843 18.8339844,26.6035156 C18.8339844,26.623047 18.8388671,26.6474608 18.8486328,26.6767578 C18.8583985,26.7060548 18.8632812,26.7890618 18.8632812,26.9257812 L18.7460938,27.2773438 C18.648437,27.4140632 18.5312507,27.521484 18.3945312,27.5996094 C18.2578118,27.6777348 18.1210944,27.7460935 17.984375,27.8046875 C17.9453123,27.8437502 17.8867191,27.8779295 17.8085938,27.9072266 C17.7304684,27.9365236 17.6718752,27.9707029 17.6328125,28.0097656 L17.5449219,28.3613281 L17.1640625,28.4199219 C16.8320296,28.4980473 16.5488293,28.5371094 16.3144531,28.5371094 L15.9628906,28.5371094 C15.7285145,28.3222646 15.5429694,28.1562506 15.40625,28.0390625 C15.2695306,27.9218744 15.1230477,27.8144536 14.9667969,27.7167969 C14.7714834,27.443358 14.6640626,27.2431647 14.6445312,27.1162109 C14.6249999,26.9892572 14.5957033,26.8671881 14.5566406,26.75 C14.5175779,26.4960925 14.4687503,26.3300785 14.4101562,26.2519531 L14,25.8417969 L14.3515625,25.578125 L14.0292969,25.0214844 C14.263673,24.8457022 14.4394525,24.7187504 14.5566406,24.640625 C14.6738287,24.5624996 14.771484,24.4794926 14.8496094,24.3916016 C14.9277348,24.3037105 15.0156245,24.1914069 15.1132812,24.0546875 C15.210938,23.9179681 15.3671864,23.6933609 15.5820312,23.3808594 L15.8457031,23 L16.2265625,23.2050781 C16.3046879,23.2636722 16.4755846,23.3173826 16.7392578,23.3662109 C17.002931,23.4150393 17.2324209,23.4589842 17.4277344,23.4980469 C17.7597673,23.5957036 18.0722642,23.6689451 18.3652344,23.7177734 C18.6582046,23.7666018 18.8925772,23.8691398 19.0683594,24.0253906 L19.1855469,24.2597656 Z" class="stroke"></path>
</svg>
