<svg viewBox="0 0 33 33" version="1.1" xmlns="http://www.w3.org/2000/svg" xmlns:xlink="http://www.w3.org/1999/xlink">
  <path d="M13.8344492,10.912757 C15.1631132,10.4493011 16.1734523,10.1396138 16.8654664,9.98369521 C17.5574806,9.82777663 18.7714528,9.63285011 20.5073831,9.39891562 L25.6560954,8.43075889 L26.4910079,8.43075889" id="e3" class="stroke"></path>
  <path d="M12,17.833216 C13.3300432,17.6421562 15.0173364,17.3275779 17.0618795,16.8894811 C19.1064226,16.4513843 21.0422351,15.9896175 22.869317,15.5041806" id="e2" class="stroke"></path>
  <path d="M10.5109651,7.57495995 L11.4440316,11.1031091 C11.75777,12.5185098 11.9456312,13.5912845 12.007615,14.3214332 C12.0695989,15.0515818 11.8817377,15.7807186 11.4440316,16.5088435 L9.95334353,21.0895387 C9.29562036,22.4302368 8.93585502,23.3241179 8.87404751,23.771182 C8.78133623,24.4417781 8.97837925,24.5541046 9.3964014,25.1179941 C9.81442354,25.6818837 8.5649818,25.8976948 10.5109651,25.9792963 C11.8082873,26.0336974 13.1604318,25.8188757 14.5673988,25.3348313 L19.7522694,25.1179941 L24.6013882,22.9780622" id="e1" class="stroke"></path>
  <path d="M0,0 L33,0 L33,33 L0,33 L0,0 Z M8.34765638,26.6835938 C8.81640872,27.1328147 9.40234036,27.4453116 10.1054689,27.6210938 C10.8085974,27.7968759 11.5410119,27.8945312 12.3027345,27.9140625 C13.0644571,27.9335938 13.8212854,27.8945317 14.5732423,27.796875 C15.3251992,27.6992183 15.9746068,27.601563 16.5214845,27.5039062 C16.6777353,27.5039062 16.829101,27.5283201 16.9755861,27.5771484 C17.1220712,27.6259768 17.3027334,27.6308596 17.5175783,27.5917969 C18.3964889,27.4355461 19.1923794,27.3037115 19.9052736,27.1962891 C20.6181678,27.0888667 21.2626926,26.9228527 21.8388673,26.6982422 C22.4150421,26.4736317 22.932615,26.1562521 23.3916017,25.7460938 C23.8505884,25.3359354 24.2656233,24.7500038 24.6367189,23.9882812 C24.4804681,24.0078126 24.3730473,23.9833988 24.3144533,23.9150391 C24.2558592,23.8466793 24.2119143,23.7539068 24.1826173,23.6367188 C24.1533203,23.5195307 24.1240237,23.3925788 24.0947267,23.2558594 C24.0654297,23.1191399 24.0019537,23.0019536 23.904297,22.9042969 C23.6894522,22.9433596 23.5136727,22.9042975 23.3769533,22.7871094 C23.2402338,22.6699213 23.1083992,22.5283211 22.9814454,22.3623047 C22.8544917,22.1962882 22.7226571,22.0302743 22.5859376,21.8642578 C22.4492182,21.6982414 22.2832042,21.5859378 22.0878908,21.5273438 C21.541013,21.7031259 20.9501986,21.8349605 20.3154298,21.9228516 C19.680661,22.0107426 19.1191432,22.1718738 18.6308595,22.40625 C17.9081996,22.3867187 17.2978542,22.4062497 16.7998048,22.4648438 C16.3017555,22.5234378 15.8183618,22.582031 15.3496095,22.640625 C14.8808572,22.699219 14.3828153,22.7382812 13.8554689,22.7578125 C13.3281225,22.7773438 12.6640666,22.7285162 11.8632814,22.6113281 C12.0976576,21.986325 12.3710923,21.3955106 12.6835939,20.8388672 C12.9960954,20.2822238 13.3281234,19.7500025 13.6796876,19.2421875 C13.9531265,19.3398442 14.2705061,19.3886719 14.6318361,19.3886719 C14.993166,19.3886719 15.3105456,19.4374995 15.5839845,19.5351562 C15.7988293,19.4374995 16.0673813,19.4033202 16.3896486,19.4326172 C16.7119158,19.4619142 16.9707023,19.4277349 17.1660158,19.3300781 C17.2636725,19.4082035 17.3466795,19.4472656 17.4150392,19.4472656 L17.6640626,19.4472656 C18.2109404,19.466797 18.7187478,19.4082038 19.1875001,19.2714844 C19.6562525,19.1347649 20.0908184,18.9589854 20.4912111,18.7441406 C20.8916037,18.5292958 21.277342,18.2900404 21.6484376,18.0263672 C22.0195332,17.762694 22.4003888,17.5039075 22.7910158,17.25 C22.8886725,17.0156238 22.9179691,16.7910167 22.8789064,16.5761719 C22.8398437,16.3613271 22.771485,16.156251 22.6738283,15.9609375 C22.4394521,15.9804688 22.234376,15.936524 22.0585939,15.8291016 C21.8828118,15.7216792 21.711915,15.5849618 21.5458986,15.4189453 C21.3798821,15.2529289 21.2187509,15.0820321 21.0625001,14.90625 C20.9062493,14.7304679 20.7402354,14.583985 20.5644533,14.4667969 C20.5644533,14.3691401 20.5839843,14.3007814 20.623047,14.2617188 C20.6621097,14.2226561 20.6718752,14.1542974 20.6523439,14.0566406 C19.6953078,14.0957033 18.7187551,14.1591792 17.7226564,14.2470703 C16.7265576,14.3349614 15.8183636,14.3398441 14.998047,14.2617188 C14.939453,14.105468 14.9150391,13.9199229 14.9248048,13.7050781 C14.9345705,13.4902333 14.8906256,13.2753917 14.7929689,13.0605469 C15.0078137,13.0019528 15.2177725,12.9433597 15.4228517,12.8847656 C15.6279308,12.8261716 15.8085931,12.7285163 15.9648439,12.5917969 C16.1992201,12.6308596 16.3994134,12.6308596 16.5654298,12.5917969 C16.7314463,12.5527342 16.8828119,12.5136721 17.0195314,12.4746094 C17.1562508,12.4355467 17.2880854,12.4111329 17.4150392,12.4013672 C17.541993,12.3916015 17.6835931,12.4160153 17.8398439,12.4746094 C18.3476589,12.1621078 18.8652319,11.9277352 19.3925783,11.7714844 C19.9199246,11.6152336 20.4423804,11.4931645 20.9599611,11.4052734 C21.4775418,11.3173824 21.9853492,11.2343754 22.4833986,11.15625 C22.9814479,11.0781246 23.455076,10.9609383 23.904297,10.8046875 C24.353518,10.6484367 24.7783184,10.4238296 25.1787111,10.1308594 C25.5791037,9.83788916 25.9355454,9.42773701 26.248047,8.90039063 C26.2089843,8.74413984 26.1894533,8.62207075 26.1894533,8.53417969 C26.1894533,8.44628862 26.1992188,8.3681644 26.2187501,8.29980469 C26.2382815,8.23144497 26.2529298,8.15820352 26.2626954,8.08007813 C26.2724611,8.00195273 26.2675784,7.87500088 26.248047,7.69921875 C25.798826,7.50390527 25.3886739,7.27441538 25.0175783,7.01074219 C24.6464826,6.74706899 24.3437513,6.4101583 24.1093751,6 C24.1289065,6.09765674 24.119141,6.16113267 24.0800783,6.19042969 C24.0410156,6.21972671 23.9970707,6.22460947 23.9482423,6.20507813 C23.8994139,6.18554678 23.8408208,6.16601572 23.7724611,6.14648438 C23.7041014,6.12695303 23.650391,6.1171875 23.6113283,6.1171875 C23.6113283,6.1562502 23.616211,6.20019507 23.6259767,6.24902344 C23.6357424,6.29785181 23.6406251,6.35156221 23.6406251,6.41015625 C23.4843743,6.41015625 23.3769535,6.34179756 23.3183595,6.20507813 L23.1279298,6.20507813 C23.0791014,6.20507813 23.0449221,6.17578154 23.0253908,6.1171875 C22.029292,6.29296963 21.1503946,6.42480425 20.388672,6.51269531 C19.6269494,6.60058638 18.8945349,6.69824165 18.1914064,6.80566406 C17.4882779,6.91308647 16.7656288,7.04980386 16.0234376,7.21582031 C15.2812464,7.38183677 14.4414111,7.61132666 13.5039064,7.90429688 C12.97656,8.02148496 12.4785181,8.124023 12.0097658,8.21191406 C11.5410134,8.29980513 11.1064474,8.41699146 10.7060548,8.56347656 C10.3056622,8.70996167 9.93945492,8.89550669 9.60742201,9.12011719 C9.2753891,9.34472769 8.9921888,9.63281074 8.75781263,9.984375 C8.87500072,10.375002 8.95312493,10.7607403 8.99218763,11.1416016 C9.03125033,11.5224628 9.08984349,11.8984356 9.16796888,12.2695312 C9.24609427,12.6406269 9.35839784,13.0068341 9.50488294,13.3681641 C9.65136805,13.729494 9.89062347,14.0664047 10.2226564,14.3789062 C10.0664056,14.8281272 9.89550887,15.2333966 9.70996107,15.5947266 C9.52441326,15.9560565 9.34375101,16.3124982 9.16796888,16.6640625 C8.99218675,17.0156268 8.82617279,17.3769513 8.66992201,17.7480469 C8.51367122,18.1191425 8.36718831,18.5195291 8.23046888,18.9492188 C8.0742181,18.9101561 7.98144559,18.9443354 7.95214857,19.0517578 C7.92285155,19.1591802 7.84961009,19.2226562 7.73242201,19.2421875 C7.7714847,19.3984383 7.76660194,19.5546867 7.71777357,19.7109375 C7.6689452,19.8671883 7.60058651,20.018554 7.51269544,20.1650391 C7.42480438,20.3115242 7.33691463,20.4628898 7.24902357,20.6191406 C7.1611325,20.7753914 7.09765658,20.9414054 7.05859388,21.1171875 C6.99999984,21.4492204 6.98535155,21.8154277 7.01464857,22.2158203 C7.04394559,22.6162129 7.09277323,23.0165996 7.16113294,23.4169922 C7.22949266,23.8173848 7.29785135,24.2080059 7.36621107,24.5888672 C7.43457078,24.9697285 7.48828118,25.3066392 7.52734388,25.5996094 C7.7812514,25.7363288 7.9423826,25.9121083 8.01074232,26.1269531 C8.07910203,26.3417979 8.1914056,26.527343 8.34765638,26.6835938 Z" id="mask"></path>
</svg>
