<svg viewBox="0 0 33 33" version="1.1" xmlns="http://www.w3.org/2000/svg" xmlns:xlink="http://www.w3.org/1999/xlink">
            <rect class="background" x="0" y="0" width="33" height="33"></rect>
            <path d="M8.34765638,26.6835937 C8.1914056,26.527343 8.07910203,26.3417979 8.01074232,26.1269531 C7.9423826,25.9121083 7.7812514,25.7363288 7.52734388,25.5996094 C7.48828118,25.3066392 7.43457078,24.9697285 7.36621107,24.5888672 C7.29785135,24.2080059 7.22949266,23.8173848 7.16113294,23.4169922 C7.09277323,23.0165996 7.04394559,22.6162129 7.01464857,22.2158203 C6.98535155,21.8154277 6.99999984,21.4492204 7.05859388,21.1171875 C7.09765658,20.9414054 7.1611325,20.7753914 7.24902357,20.6191406 C7.33691463,20.4628898 7.42480438,20.3115242 7.51269544,20.1650391 C7.60058651,20.018554 7.6689452,19.8671883 7.71777357,19.7109375 C7.76660194,19.5546867 7.7714847,19.3984383 7.73242201,19.2421875 C7.84961009,19.2226562 7.92285155,19.1591802 7.95214857,19.0517578 C7.98144559,18.9443354 8.0742181,18.9101561 8.23046888,18.9492188 C8.36718831,18.5195291 8.51367122,18.1191425 8.66992201,17.7480469 C8.82617279,17.3769513 8.99218675,17.0156268 9.16796888,16.6640625 C9.34375101,16.3124982 9.52441326,15.9560565 9.70996107,15.5947266 C9.89550887,15.2333966 10.0664056,14.8281272 10.2226564,14.3789062 C9.89062347,14.0664047 9.65136805,13.729494 9.50488294,13.3681641 C9.35839784,13.0068341 9.24609427,12.6406269 9.16796888,12.2695312 C9.08984349,11.8984356 9.03125033,11.5224628 8.99218763,11.1416016 C8.95312493,10.7607403 8.87500072,10.375002 8.75781263,9.984375 C8.9921888,9.63281074 9.2753891,9.34472769 9.60742201,9.12011719 C9.93945492,8.89550669 10.3056622,8.70996167 10.7060548,8.56347656 C11.1064474,8.41699146 11.5410134,8.29980513 12.0097658,8.21191406 C12.4785181,8.124023 12.97656,8.02148496 13.5039064,7.90429688 C14.4414111,7.61132666 15.2812464,7.38183677 16.0234376,7.21582031 C16.7656288,7.04980386 17.4882779,6.91308647 18.1914064,6.80566406 C18.8945349,6.69824165 19.6269494,6.60058638 20.388672,6.51269531 C21.1503946,6.42480425 22.029292,6.29296963 23.0253908,6.1171875 C23.0449221,6.17578154 23.0791014,6.20507812 23.1279298,6.20507812 L23.3183595,6.20507812 C23.3769535,6.34179756 23.4843743,6.41015625 23.6406251,6.41015625 C23.6406251,6.35156221 23.6357424,6.29785181 23.6259767,6.24902344 C23.616211,6.20019507 23.6113283,6.1562502 23.6113283,6.1171875 C23.650391,6.1171875 23.7041014,6.12695303 23.7724611,6.14648438 C23.8408208,6.16601572 23.8994139,6.18554678 23.9482423,6.20507812 C23.9970707,6.22460947 24.0410156,6.21972671 24.0800783,6.19042969 C24.119141,6.16113267 24.1289065,6.09765674 24.1093751,6 C24.3437513,6.4101583 24.6464826,6.74706899 25.0175783,7.01074219 C25.3886739,7.27441538 25.798826,7.50390527 26.248047,7.69921875 C26.2675784,7.87500088 26.2724611,8.00195273 26.2626954,8.08007812 C26.2529298,8.15820352 26.2382815,8.23144497 26.2187501,8.29980469 C26.1992188,8.3681644 26.1894533,8.44628862 26.1894533,8.53417969 C26.1894533,8.62207075 26.2089843,8.74413984 26.248047,8.90039062 C25.9355454,9.42773701 25.5791037,9.83788916 25.1787111,10.1308594 C24.7783184,10.4238296 24.353518,10.6484367 23.904297,10.8046875 C23.455076,10.9609383 22.9814479,11.0781246 22.4833986,11.15625 C21.9853492,11.2343754 21.4775418,11.3173824 20.9599611,11.4052734 C20.4423804,11.4931645 19.9199246,11.6152336 19.3925783,11.7714844 C18.8652319,11.9277352 18.3476589,12.1621078 17.8398439,12.4746094 C17.6835931,12.4160153 17.541993,12.3916015 17.4150392,12.4013672 C17.2880854,12.4111329 17.1562508,12.4355467 17.0195314,12.4746094 C16.8828119,12.5136721 16.7314463,12.5527342 16.5654298,12.5917969 C16.3994134,12.6308596 16.1992201,12.6308596 15.9648439,12.5917969 C15.8085931,12.7285163 15.6279308,12.8261716 15.4228517,12.8847656 C15.2177725,12.9433597 15.0078137,13.0019528 14.7929689,13.0605469 C14.8906256,13.2753917 14.9345705,13.4902333 14.9248048,13.7050781 C14.9150391,13.9199229 14.939453,14.105468 14.998047,14.2617187 C15.8183636,14.3398441 16.7265576,14.3349614 17.7226564,14.2470703 C18.7187551,14.1591792 19.6953078,14.0957033 20.6523439,14.0566406 C20.6718752,14.1542974 20.6621097,14.2226561 20.623047,14.2617187 C20.5839843,14.3007814 20.5644533,14.3691401 20.5644533,14.4667969 C20.7402354,14.583985 20.9062493,14.7304679 21.0625001,14.90625 C21.2187509,15.0820321 21.3798821,15.2529289 21.5458986,15.4189453 C21.711915,15.5849618 21.8828118,15.7216792 22.0585939,15.8291016 C22.234376,15.936524 22.4394521,15.9804688 22.6738283,15.9609375 C22.771485,16.156251 22.8398437,16.3613271 22.8789064,16.5761719 C22.9179691,16.7910167 22.8886725,17.0156238 22.7910158,17.25 C22.4003888,17.5039075 22.0195332,17.762694 21.6484376,18.0263672 C21.277342,18.2900404 20.8916037,18.5292958 20.4912111,18.7441406 C20.0908184,18.9589854 19.6562525,19.1347649 19.1875001,19.2714844 C18.7187478,19.4082038 18.2109404,19.466797 17.6640626,19.4472656 L17.4150392,19.4472656 C17.3466795,19.4472656 17.2636725,19.4082035 17.1660158,19.3300781 C16.9707023,19.4277349 16.7119158,19.4619142 16.3896486,19.4326172 C16.0673813,19.4033202 15.7988293,19.4374995 15.5839845,19.5351562 C15.3105456,19.4374995 14.993166,19.3886719 14.6318361,19.3886719 C14.2705061,19.3886719 13.9531265,19.3398442 13.6796876,19.2421875 C13.3281234,19.7500025 12.9960954,20.2822238 12.6835939,20.8388672 C12.3710923,21.3955106 12.0976576,21.986325 11.8632814,22.6113281 C12.6640666,22.7285162 13.3281225,22.7773438 13.8554689,22.7578125 C14.3828153,22.7382812 14.8808572,22.699219 15.3496095,22.640625 C15.8183618,22.582031 16.3017555,22.5234378 16.7998048,22.4648437 C17.2978542,22.4062497 17.9081996,22.3867187 18.6308595,22.40625 C19.1191432,22.1718738 19.680661,22.0107426 20.3154298,21.9228516 C20.9501986,21.8349605 21.541013,21.7031259 22.0878908,21.5273438 C22.2832042,21.5859378 22.4492182,21.6982414 22.5859376,21.8642578 C22.7226571,22.0302743 22.8544917,22.1962882 22.9814454,22.3623047 C23.1083992,22.5283211 23.2402338,22.6699213 23.3769533,22.7871094 C23.5136727,22.9042975 23.6894522,22.9433596 23.904297,22.9042969 C24.0019537,23.0019536 24.0654297,23.1191399 24.0947267,23.2558594 C24.1240237,23.3925788 24.1533203,23.5195307 24.1826173,23.6367187 C24.2119143,23.7539068 24.2558592,23.8466793 24.3144533,23.9150391 C24.3730473,23.9833988 24.4804681,24.0078126 24.6367189,23.9882812 C24.2656233,24.7500038 23.8505884,25.3359354 23.3916017,25.7460937 C22.932615,26.1562521 22.4150421,26.4736317 21.8388673,26.6982422 C21.2626926,26.9228527 20.6181678,27.0888667 19.9052736,27.1962891 C19.1923794,27.3037115 18.3964889,27.4355461 17.5175783,27.5917969 C17.3027334,27.6308596 17.1220712,27.6259768 16.9755861,27.5771484 C16.829101,27.5283201 16.6777353,27.5039062 16.5214845,27.5039062 C15.9746068,27.601563 15.3251992,27.6992183 14.5732423,27.796875 C13.8212854,27.8945317 13.0644571,27.9335938 12.3027345,27.9140625 C11.5410119,27.8945312 10.8085974,27.7968759 10.1054689,27.6210937 C9.40234036,27.4453116 8.81640872,27.1328147 8.34765638,26.6835937 Z" class="stroke"></path>
</svg>
