<svg viewBox="0 0 33 33" version="1.1" xmlns="http://www.w3.org/2000/svg" xmlns:xlink="http://www.w3.org/1999/xlink">
  <path d="M19.1067409,8.00327153 L18.1286863,12.8634647 L16.8392032,16.8142291 L15.3483453,20.5582151 L13.9597959,23.3034326 C14.2589588,26.0382474 13.8421812,28.1316608 12.709463,29.5836727 C10.2989696,29.2111834 7.22931455,28.726269 3.50049793,28.1289297 C3.50049793,27.0657647 3.50049793,26.0533804 3.50049793,25.0917767 C4.96776003,25.4153934 6.97480246,25.2208274 9.5216252,24.5080789 L23.1131626,23.3034326 L23.5238375,16.5993453 L9.5216252,14.1270104 L9.5216252,8.64756278 L16.3105493,7.23613806 L22.3651219,7 L27.5889785,7" id="i" class="stroke"></path>
  <path d="M0.5,0 L33.5,0 L33.5,33 L0.5,33 L0.5,0 Z M8.05273438,27.1777344 C8.75586289,27.158203 9.44921533,27.0654305 10.1328125,26.8994141 C10.8164097,26.7333976 11.4853483,26.5771492 12.1396484,26.4306641 C12.7939486,26.284179 13.4384734,26.1914064 14.0732422,26.1523438 C14.708011,26.1132811 15.328122,26.1914053 15.9335938,26.3867188 C15.9921878,26.3476561 16.0117188,26.2841801 15.9921875,26.1962891 C15.9726562,26.108398 16.0117183,26.0546876 16.109375,26.0351562 C16.5781273,25.9960936 17.0859348,25.9472659 17.6328125,25.8886719 C18.1796902,25.8300778 18.7363253,25.8398434 19.3027344,25.9179688 C19.4394538,25.761718 19.5859367,25.6201178 19.7421875,25.4931641 C19.8984383,25.3662103 20.0644522,25.3222654 20.2402344,25.3613281 C20.3769538,25.185546 20.518554,24.9804699 20.6650391,24.7460938 C20.8115242,24.5117176 20.9091794,24.2822277 20.9580078,24.0576172 C21.0068362,23.8330067 20.9824224,23.6230479 20.8847656,23.4277344 C20.7871089,23.2324209 20.5527362,23.085938 20.1816406,22.9882812 C20.1816406,22.7929678 20.1181647,22.6513676 19.9912109,22.5634766 C19.8642572,22.4755855 19.722657,22.402344 19.5664062,22.34375 C19.4101555,22.285156 19.2636726,22.2167973 19.1269531,22.1386719 C18.9902337,22.0605465 18.9023439,21.9140636 18.8632812,21.6992188 L16.8710938,21.6992188 C17.0273445,21.3671858 17.1591792,21.0693373 17.2666016,20.8056641 C17.374024,20.5419909 17.4814448,20.2734389 17.5888672,20 C17.6962896,19.7265611 17.8134759,19.4335953 17.9404297,19.1210938 C18.0673834,18.8085922 18.2285146,18.4277366 18.4238281,17.9785156 C18.4042968,17.7832021 18.4873038,17.3584017 18.6728516,16.7041016 C18.8583994,16.0498014 19.0781237,15.3076213 19.3320312,14.4775391 C19.5859388,13.6474568 19.8349597,12.7978559 20.0791016,11.9287109 C20.3232434,11.059566 20.4941401,10.3027376 20.5917969,9.65820312 C21.1777373,9.63867178 21.7783172,9.61425796 22.3935547,9.58496094 C23.0087921,9.55566392 23.5996065,9.49707075 24.1660156,9.40917969 C24.7324247,9.32128862 25.2548804,9.20410229 25.7333984,9.05761719 C26.2119165,8.91113208 26.6074203,8.7207043 26.9199219,8.48632812 C26.9199219,8.29101465 26.9248046,8.09082134 26.9345703,7.88574219 C26.944336,7.68066304 26.9296877,7.49511802 26.890625,7.32910156 C26.8515623,7.16308511 26.7587898,7.02148496 26.6123047,6.90429687 C26.4658196,6.78710879 26.2460952,6.70898457 25.953125,6.66992187 C25.8164056,6.18163818 25.5673846,5.83984473 25.2060547,5.64453125 C24.8447248,5.44921777 24.4345726,5.32226592 23.9755859,5.26367187 C23.5165993,5.20507783 23.0576195,5.17578125 22.5986328,5.17578125 C22.1396461,5.17578125 21.7343768,5.11718809 21.3828125,5 C20.4453078,5.05859404 19.4248102,5.10742168 18.3212891,5.14648437 C17.2177679,5.18554707 16.1582082,5.22460918 15.1425781,5.26367187 C14.908202,5.41992266 14.6250017,5.52246069 14.2929688,5.57128906 C13.9609358,5.62011743 13.6142596,5.65917954 13.2529297,5.68847656 C12.8915998,5.71777358 12.5253925,5.74707017 12.1542969,5.77636719 C11.7832013,5.80566421 11.4316423,5.86914014 11.0996094,5.96679687 C11.1582034,6.08398496 11.1484379,6.25488169 11.0703125,6.47949219 C10.9921871,6.70410269 10.8750008,6.8359373 10.71875,6.875 C10.9140635,7.03125078 11.0312498,7.28027173 11.0703125,7.62207031 C11.1093752,7.9638689 11.0898441,8.22265537 11.0117188,8.3984375 C11.1484382,8.67187637 11.2656245,8.93554561 11.3632812,9.18945312 C11.460938,9.44336064 11.5781243,9.66796777 11.7148438,9.86328125 C11.8515632,10.0585947 12.0322254,10.2246087 12.2568359,10.3613281 C12.4814464,10.4980476 12.7890605,10.5761718 13.1796875,10.5957031 C13.375001,10.4980464 13.6972634,10.3955083 14.1464844,10.2880859 C14.5957054,10.1806635 15.1914025,10.06836 15.9335938,9.95117188 C15.835937,10.7519571 15.6943369,11.4404268 15.5087891,12.0166016 C15.3232413,12.5927763 15.1132824,13.2226528 14.8789062,13.90625 C14.8398436,14.3359396 14.7519538,14.741209 14.6152344,15.1220703 C14.4785149,15.5029316 14.3222665,15.8837872 14.1464844,16.2646484 C13.9707022,16.6455097 13.79004,17.0458963 13.6044922,17.4658203 C13.4189444,17.8857443 13.2675787,18.3398413 13.1503906,18.828125 C12.9160145,19.33594 12.6718763,19.8681613 12.4179688,20.4248047 C12.1640612,20.9814481 11.8906265,21.562497 11.5976562,22.1679688 C11.1874979,22.1679688 10.8066424,22.1923826 10.4550781,22.2412109 C10.1035139,22.2900393 9.75195488,22.3437497 9.40039063,22.4023438 C9.04882637,22.4609378 8.68750186,22.519531 8.31640625,22.578125 C7.94531064,22.636719 7.52539297,22.6757812 7.05664063,22.6953125 C6.91992119,22.8125006 6.79296934,22.9345697 6.67578125,23.0615234 C6.55859316,23.1884772 6.5,23.3886705 6.5,23.6621094 C6.57812539,23.9746109 6.65136685,24.3017561 6.71972656,24.6435547 C6.78808628,24.9853533 6.87597603,25.3124984 6.98339844,25.625 C7.09082085,25.9375016 7.22753823,26.2304674 7.39355469,26.5039062 C7.55957114,26.7773451 7.77929551,27.0019522 8.05273438,27.1777344 Z" id="mask" ></path>
</svg>
