<svg viewBox="0 0 33 33" version="1.1" xmlns="http://www.w3.org/2000/svg" xmlns:xlink="http://www.w3.org/1999/xlink">
  <path d="M5.58429262,25.2177455 C8.90693008,24.6789716 11.5022676,24.3132795 13.3703052,24.1206691 C15.2383428,23.9280587 18.0609628,23.7390611 21.8381652,23.5536763" id="i3" class="stroke"></path>
  <path d="M9.26755207,8.72549679 C13.7320388,7.81776612 16.1084413,7.36325008 16.3967596,7.36194869 C16.6850778,7.36064729 20.4251474,7.36064729 27.6169682,7.36194869" id="i2" class="stroke"></path>
  <path d="M17.8375027,8.68274863 L17.1743189,12.0871 C16.9951542,13.3045976 16.5122408,14.9222164 15.7255788,16.9399565 C15.1913459,18.3102315 14.6946944,19.6307779 13.9606902,21.0847672 C13.7294752,21.542781 13.3970025,22.260457 12.9632721,23.2377951" id="i1" class="stroke"></path>
  <path d="M0,0 L33,0 L33,33 L0,33 L0,0 Z M7.55273438,27.1777344 C8.25586289,27.158203 8.94921533,27.0654305 9.6328125,26.8994141 C10.3164097,26.7333976 10.9853483,26.5771492 11.6396484,26.4306641 C12.2939486,26.284179 12.9384734,26.1914064 13.5732422,26.1523438 C14.208011,26.1132811 14.828122,26.1914053 15.4335938,26.3867188 C15.4921878,26.3476561 15.5117188,26.2841801 15.4921875,26.1962891 C15.4726562,26.108398 15.5117183,26.0546876 15.609375,26.0351562 C16.0781273,25.9960936 16.5859348,25.9472659 17.1328125,25.8886719 C17.6796902,25.8300778 18.2363253,25.8398434 18.8027344,25.9179688 C18.9394538,25.761718 19.0859367,25.6201178 19.2421875,25.4931641 C19.3984383,25.3662103 19.5644522,25.3222654 19.7402344,25.3613281 C19.8769538,25.185546 20.018554,24.9804699 20.1650391,24.7460938 C20.3115242,24.5117176 20.4091794,24.2822277 20.4580078,24.0576172 C20.5068362,23.8330067 20.4824224,23.6230479 20.3847656,23.4277344 C20.2871089,23.2324209 20.0527362,23.085938 19.6816406,22.9882812 C19.6816406,22.7929678 19.6181647,22.6513676 19.4912109,22.5634766 C19.3642572,22.4755855 19.222657,22.402344 19.0664062,22.34375 C18.9101555,22.285156 18.7636726,22.2167973 18.6269531,22.1386719 C18.4902337,22.0605465 18.4023439,21.9140636 18.3632812,21.6992188 L16.3710938,21.6992188 C16.5273445,21.3671858 16.6591792,21.0693373 16.7666016,20.8056641 C16.874024,20.5419909 16.9814448,20.2734389 17.0888672,20 C17.1962896,19.7265611 17.3134759,19.4335953 17.4404297,19.1210938 C17.5673834,18.8085922 17.7285146,18.4277366 17.9238281,17.9785156 C17.9042968,17.7832021 17.9873038,17.3584017 18.1728516,16.7041016 C18.3583994,16.0498014 18.5781237,15.3076213 18.8320312,14.4775391 C19.0859388,13.6474568 19.3349597,12.7978559 19.5791016,11.9287109 C19.8232434,11.059566 19.9941401,10.3027376 20.0917969,9.65820312 C20.6777373,9.63867178 21.2783172,9.61425796 21.8935547,9.58496094 C22.5087921,9.55566392 23.0996065,9.49707075 23.6660156,9.40917969 C24.2324247,9.32128862 24.7548804,9.20410229 25.2333984,9.05761719 C25.7119165,8.91113208 26.1074203,8.7207043 26.4199219,8.48632812 C26.4199219,8.29101465 26.4248046,8.09082134 26.4345703,7.88574219 C26.444336,7.68066304 26.4296877,7.49511802 26.390625,7.32910156 C26.3515623,7.16308511 26.2587898,7.02148496 26.1123047,6.90429687 C25.9658196,6.78710879 25.7460952,6.70898457 25.453125,6.66992187 C25.3164056,6.18163818 25.0673846,5.83984473 24.7060547,5.64453125 C24.3447248,5.44921777 23.9345726,5.32226592 23.4755859,5.26367187 C23.0165993,5.20507783 22.5576195,5.17578125 22.0986328,5.17578125 C21.6396461,5.17578125 21.2343768,5.11718809 20.8828125,5 C19.9453078,5.05859404 18.9248102,5.10742168 17.8212891,5.14648437 C16.7177679,5.18554707 15.6582082,5.22460918 14.6425781,5.26367187 C14.408202,5.41992266 14.1250017,5.52246069 13.7929688,5.57128906 C13.4609358,5.62011743 13.1142596,5.65917954 12.7529297,5.68847656 C12.3915998,5.71777358 12.0253925,5.74707017 11.6542969,5.77636719 C11.2832013,5.80566421 10.9316423,5.86914014 10.5996094,5.96679687 C10.6582034,6.08398496 10.6484379,6.25488169 10.5703125,6.47949219 C10.4921871,6.70410269 10.3750008,6.8359373 10.21875,6.875 C10.4140635,7.03125078 10.5312498,7.28027173 10.5703125,7.62207031 C10.6093752,7.9638689 10.5898441,8.22265537 10.5117188,8.3984375 C10.6484382,8.67187637 10.7656245,8.93554561 10.8632812,9.18945312 C10.960938,9.44336064 11.0781243,9.66796777 11.2148438,9.86328125 C11.3515632,10.0585947 11.5322254,10.2246087 11.7568359,10.3613281 C11.9814464,10.4980476 12.2890605,10.5761718 12.6796875,10.5957031 C12.875001,10.4980464 13.1972634,10.3955083 13.6464844,10.2880859 C14.0957054,10.1806635 14.6914025,10.06836 15.4335938,9.95117188 C15.335937,10.7519571 15.1943369,11.4404268 15.0087891,12.0166016 C14.8232413,12.5927763 14.6132824,13.2226528 14.3789062,13.90625 C14.3398436,14.3359396 14.2519538,14.741209 14.1152344,15.1220703 C13.9785149,15.5029316 13.8222665,15.8837872 13.6464844,16.2646484 C13.4707022,16.6455097 13.29004,17.0458963 13.1044922,17.4658203 C12.9189444,17.8857443 12.7675787,18.3398413 12.6503906,18.828125 C12.4160145,19.33594 12.1718763,19.8681613 11.9179688,20.4248047 C11.6640612,20.9814481 11.3906265,21.562497 11.0976562,22.1679688 C10.6874979,22.1679688 10.3066424,22.1923826 9.95507813,22.2412109 C9.60351387,22.2900393 9.25195488,22.3437497 8.90039063,22.4023438 C8.54882637,22.4609378 8.18750186,22.519531 7.81640625,22.578125 C7.44531064,22.636719 7.02539297,22.6757812 6.55664063,22.6953125 C6.41992119,22.8125006 6.29296934,22.9345697 6.17578125,23.0615234 C6.05859316,23.1884772 6,23.3886705 6,23.6621094 C6.07812539,23.9746109 6.15136685,24.3017561 6.21972656,24.6435547 C6.28808628,24.9853533 6.37597603,25.3124984 6.48339844,25.625 C6.59082085,25.9375016 6.72753823,26.2304674 6.89355469,26.5039062 C7.05957114,26.7773451 7.27929551,27.0019522 7.55273438,27.1777344 Z" id="mask"></path>
</svg>
