<svg viewBox="0 0 33 33" version="1.1" xmlns="http://www.w3.org/2000/svg" xmlns:xlink="http://www.w3.org/1999/xlink">
  <rect class="background" x="0" y="0" width="33" height="33"></rect>
  <path d="M7.55273438,27.1777344 C7.27929551,27.0019522 7.05957114,26.7773451 6.89355469,26.5039062 C6.72753823,26.2304674 6.59082085,25.9375016 6.48339844,25.625 C6.37597603,25.3124984 6.28808628,24.9853533 6.21972656,24.6435547 C6.15136685,24.3017561 6.07812539,23.9746109 6,23.6621094 C6,23.3886705 6.05859316,23.1884772 6.17578125,23.0615234 C6.29296934,22.9345697 6.41992119,22.8125006 6.55664062,22.6953125 C7.02539297,22.6757812 7.44531064,22.636719 7.81640625,22.578125 C8.18750186,22.519531 8.54882637,22.4609378 8.90039062,22.4023438 C9.25195488,22.3437497 9.60351387,22.2900393 9.95507812,22.2412109 C10.3066424,22.1923826 10.6874979,22.1679688 11.0976562,22.1679688 C11.3906265,21.562497 11.6640612,20.9814481 11.9179688,20.4248047 C12.1718763,19.8681613 12.4160145,19.33594 12.6503906,18.828125 C12.7675787,18.3398413 12.9189444,17.8857443 13.1044922,17.4658203 C13.29004,17.0458963 13.4707022,16.6455097 13.6464844,16.2646484 C13.8222665,15.8837872 13.9785149,15.5029316 14.1152344,15.1220703 C14.2519538,14.741209 14.3398436,14.3359396 14.3789062,13.90625 C14.6132824,13.2226528 14.8232413,12.5927763 15.0087891,12.0166016 C15.1943369,11.4404268 15.335937,10.7519571 15.4335937,9.95117188 C14.6914025,10.06836 14.0957054,10.1806635 13.6464844,10.2880859 C13.1972634,10.3955083 12.875001,10.4980464 12.6796875,10.5957031 C12.2890605,10.5761718 11.9814464,10.4980476 11.7568359,10.3613281 C11.5322254,10.2246087 11.3515632,10.0585947 11.2148438,9.86328125 C11.0781243,9.66796777 10.960938,9.44336064 10.8632812,9.18945312 C10.7656245,8.93554561 10.6484382,8.67187637 10.5117188,8.3984375 C10.5898441,8.22265537 10.6093752,7.9638689 10.5703125,7.62207031 C10.5312498,7.28027173 10.4140635,7.03125078 10.21875,6.875 C10.3750008,6.8359373 10.4921871,6.70410269 10.5703125,6.47949219 C10.6484379,6.25488169 10.6582034,6.08398496 10.5996094,5.96679688 C10.9316423,5.86914014 11.2832013,5.80566421 11.6542969,5.77636719 C12.0253925,5.74707017 12.3915998,5.71777358 12.7529297,5.68847656 C13.1142596,5.65917954 13.4609358,5.62011743 13.7929688,5.57128906 C14.1250017,5.52246069 14.408202,5.41992266 14.6425781,5.26367188 C15.6582082,5.22460918 16.7177679,5.18554707 17.8212891,5.14648438 C18.9248102,5.10742168 19.9453078,5.05859404 20.8828125,5 C21.2343768,5.11718809 21.6396461,5.17578125 22.0986328,5.17578125 C22.5576195,5.17578125 23.0165993,5.20507783 23.4755859,5.26367188 C23.9345726,5.32226592 24.3447248,5.44921777 24.7060547,5.64453125 C25.0673846,5.83984473 25.3164056,6.18163818 25.453125,6.66992188 C25.7460952,6.70898457 25.9658196,6.78710879 26.1123047,6.90429688 C26.2587898,7.02148496 26.3515623,7.16308511 26.390625,7.32910156 C26.4296877,7.49511802 26.444336,7.68066304 26.4345703,7.88574219 C26.4248046,8.09082134 26.4199219,8.29101465 26.4199219,8.48632812 C26.1074203,8.7207043 25.7119165,8.91113208 25.2333984,9.05761719 C24.7548804,9.20410229 24.2324247,9.32128862 23.6660156,9.40917969 C23.0996065,9.49707075 22.5087921,9.55566392 21.8935547,9.58496094 C21.2783172,9.61425796 20.6777373,9.63867178 20.0917969,9.65820312 C19.9941401,10.3027376 19.8232434,11.059566 19.5791016,11.9287109 C19.3349597,12.7978559 19.0859388,13.6474568 18.8320312,14.4775391 C18.5781237,15.3076213 18.3583994,16.0498014 18.1728516,16.7041016 C17.9873038,17.3584017 17.9042968,17.7832021 17.9238281,17.9785156 C17.7285146,18.4277366 17.5673834,18.8085922 17.4404297,19.1210938 C17.3134759,19.4335953 17.1962896,19.7265611 17.0888672,20 C16.9814448,20.2734389 16.874024,20.5419909 16.7666016,20.8056641 C16.6591792,21.0693373 16.5273445,21.3671858 16.3710938,21.6992188 L18.3632812,21.6992188 C18.4023439,21.9140636 18.4902337,22.0605465 18.6269531,22.1386719 C18.7636726,22.2167973 18.9101555,22.285156 19.0664062,22.34375 C19.222657,22.402344 19.3642572,22.4755855 19.4912109,22.5634766 C19.6181647,22.6513676 19.6816406,22.7929678 19.6816406,22.9882812 C20.0527362,23.085938 20.2871089,23.2324209 20.3847656,23.4277344 C20.4824224,23.6230479 20.5068362,23.8330067 20.4580078,24.0576172 C20.4091794,24.2822277 20.3115242,24.5117176 20.1650391,24.7460938 C20.018554,24.9804699 19.8769538,25.185546 19.7402344,25.3613281 C19.5644522,25.3222654 19.3984383,25.3662103 19.2421875,25.4931641 C19.0859367,25.6201178 18.9394538,25.761718 18.8027344,25.9179688 C18.2363253,25.8398434 17.6796902,25.8300778 17.1328125,25.8886719 C16.5859348,25.9472659 16.0781273,25.9960936 15.609375,26.0351562 C15.5117183,26.0546876 15.4726562,26.108398 15.4921875,26.1962891 C15.5117188,26.2841801 15.4921878,26.3476561 15.4335937,26.3867188 C14.828122,26.1914053 14.208011,26.1132811 13.5732422,26.1523438 C12.9384734,26.1914064 12.2939486,26.284179 11.6396484,26.4306641 C10.9853483,26.5771492 10.3164097,26.7333976 9.6328125,26.8994141 C8.94921533,27.0654305 8.25586289,27.158203 7.55273438,27.1777344 Z"  class="stroke"></path>
</svg>
