<svg viewBox="0 0 33 33" version="1.1" xmlns="http://www.w3.org/2000/svg" xmlns:xlink="http://www.w3.org/1999/xlink">
  <rect class="background" x="0" y="0" width="33" height="33"></rect>
  <path d="M8.37109392,25.8007812 C8.29296853,25.7226559 8.22460984,25.6298833 8.16601579,25.5224609 C8.10742175,25.4150385 8.05859411,25.2734384 8.01953142,25.0976562 C7.74609255,24.7656233 7.53125095,24.3847678 7.37500017,23.9550781 C7.21874939,23.5253885 7.11132859,23.081057 7.05273454,22.6220703 C6.9941405,22.1630836 6.98437497,21.6992211 7.02343767,21.2304688 C7.06250036,20.7617164 7.13085906,20.3222677 7.22851579,19.9121094 C7.28710984,19.7167959 7.33593747,19.5117198 7.37500017,19.296875 C7.47265691,18.9257794 7.57031218,18.5595721 7.66796892,18.1982422 C7.76562566,17.8369123 7.91210857,17.5390637 8.10742204,17.3046875 C8.02929665,17.0898427 8.03906218,16.85547 8.13671892,16.6015625 C8.23437566,16.347655 8.33203093,16.1132823 8.42968767,15.8984375 C8.46875036,15.8398435 8.49804695,15.7861331 8.51757829,15.7373047 C8.53710964,15.6884763 8.5566407,15.6445314 8.57617204,15.6054688 C8.81054822,14.9218716 9.04003811,14.2626985 9.26464861,13.6279297 C9.4892591,12.9931609 9.70898347,12.3828154 9.92382829,11.796875 C10.3144552,10.7226509 10.690428,9.66797393 11.051758,8.6328125 C11.4130879,7.59765107 11.7402331,6.49414648 12.0332033,5.32226562 C12.1894541,5.20507754 12.3261715,5.12695332 12.4433595,5.08789062 C12.4824222,5.06835928 12.5312499,5.04882822 12.5898439,5.02929688 C12.648438,5.00976553 12.7167967,5 12.794922,5 C13.2050803,5.21484482 13.6884739,5.41503813 14.2451174,5.60058594 C14.8017608,5.78613374 15.2753888,5.87890625 15.6660158,5.87890625 L16.1640627,6.31835938 C16.4179702,6.61132959 16.6376946,6.9189437 16.8232424,7.24121094 C17.0087902,7.56347817 17.0625006,7.97851309 16.9843752,8.48632812 C16.8671871,8.66211025 16.7695318,8.76953105 16.6914064,8.80859375 C16.5742183,9.25781475 16.4472665,9.6533186 16.310547,9.99511719 C16.1738276,10.3369158 16.0371102,10.6640609 15.9003908,10.9765625 C15.74414,11.3281268 15.5976571,11.6796857 15.4609377,12.03125 C15.3242182,12.3828143 15.2070319,12.8124975 15.1093752,13.3203125 C14.9921871,13.4570319 14.9189456,13.5742183 14.8896486,13.671875 C14.8603516,13.7695317 14.8261722,13.867187 14.7871095,13.9648438 C14.7480468,14.0820318 14.6992192,14.2041009 14.6406252,14.3310547 C14.5820311,14.4580084 14.4941414,14.570312 14.3769533,14.6679688 C14.2988279,15.2734405 14.1816416,15.7665997 14.0253908,16.1474609 C13.86914,16.5283222 13.7128916,16.904295 13.5566408,17.2753906 C13.2832019,17.9589878 13.0292982,18.6376919 12.794922,19.3115234 C12.5605459,19.9853549 12.4238285,20.7519488 12.3847658,21.6113281 C12.619142,21.5527341 12.8339836,21.5234375 13.029297,21.5234375 C13.2832046,21.5234375 13.5273427,21.5624996 13.7617189,21.640625 C14.4648474,21.2890607 15.2314413,21.0742191 16.0615236,20.9960938 C16.8916059,20.9179684 17.7167929,20.8691407 18.5371095,20.8496094 C19.2207067,20.8496094 19.855466,20.8203128 20.4414064,20.7617188 C20.6367199,20.8984382 20.7636718,20.9716796 20.8222658,20.9814453 C20.8808598,20.991211 20.9785151,20.9960938 21.1152345,20.9960938 L21.2910158,20.9960938 C21.3496098,20.9960938 21.4277341,21.0058593 21.5253908,21.0253906 C21.7988297,21.2988295 22.0624989,21.4892573 22.3164064,21.5966797 C22.5703139,21.7041021 22.8437487,21.8066401 23.1367189,21.9042969 C23.3906264,22.0019536 23.6396474,22.1044917 23.8837892,22.2119141 C24.1279311,22.3193365 24.3671865,22.4609366 24.6015627,22.6367188 L24.8652345,24.1308594 C25.0214853,24.3457042 25.089844,24.4921871 25.0703127,24.5703125 C25.0703127,24.7265633 25.0312506,24.8632807 24.9531252,24.9804688 L25.0117189,25.3613281 C24.6406233,25.4394535 24.3964851,25.5224605 24.279297,25.6103516 C24.162109,25.6982426 24.0351571,25.8105462 23.8984377,25.9472656 C23.6835928,25.966797 23.4785168,25.9765625 23.2832033,25.9765625 C22.8925763,25.9765625 22.4921897,26.0351557 22.0820314,26.1523438 C21.496091,25.9374989 20.8515662,25.8300781 20.1484377,25.8300781 C19.8749988,25.8300781 19.5966813,25.8398437 19.3134767,25.859375 C19.0302722,25.8789063 18.7519547,25.9082029 18.4785158,25.9472656 C18.1855456,25.9863283 17.8925798,26.0205077 17.5996095,26.0498047 C17.3066393,26.0791017 17.0136735,26.09375 16.7207033,26.09375 C16.4863271,26.1328127 16.3203132,26.1621093 16.2226564,26.1816406 C16.1249997,26.201172 16.0273444,26.2304686 15.9296877,26.2695312 C15.2656218,26.4843761 14.5478556,26.6992177 13.7763674,26.9140625 C13.0048791,27.1289073 12.2285197,27.2363281 11.4472658,27.2363281 C10.2949163,27.2363281 9.36719118,26.9433623 8.66406267,26.3574219 C8.58593728,26.1816397 8.52734411,26.0644534 8.48828142,26.0058594 C8.44921872,25.9472653 8.41015661,25.8789066 8.37109392,25.8007812 Z" class="stroke"></path>
</svg>
