<svg viewBox="0 0 33 33" version="1.1" xmlns="http://www.w3.org/2000/svg" xmlns:xlink="http://www.w3.org/1999/xlink">
  <path d="M5.04779853,28.0796923 L5,23.2111068 C5.27904754,22.0142381 5.52375865,21.2049202 5.73413335,20.7831531 C5.94450804,20.3613859 7.54420451,16.3592986 10.5332227,8.7768913 L13.1034534,14.7525336 L14.8804058,17.5560393 L18.4029499,17.5560393 L23.4450185,14.129382 L27.8412359,9.83653434 L27.4632155,16.0007911 L26.0605859,22.3269564 L26.0605859,28.0796923" id="m" class="stroke"></path>
  <path d="M0,0 L33,0 L33,33 L0,33 L0,0 Z M4.47642543,27.4707031 C4.67172259,27.4707031 4.84260505,27.4462893 4.98907792,27.3974609 C5.13555079,27.3486326 5.27713911,27.2558601 5.41384713,27.1191406 C5.55055514,26.9824212 5.69214346,26.7822279 5.83861634,26.5185547 C5.98508921,26.2548815 6.15597166,25.9179708 6.35126883,25.5078125 C6.40985798,25.4296871 6.43915211,25.2832042 6.43915211,25.0683594 C6.45868183,24.9707026 6.47821125,24.8583991 6.49774097,24.7314453 C6.51727069,24.6044916 6.54656482,24.4824225 6.58562425,24.3652344 C6.66374312,24.2285149 6.75162552,24.1064458 6.84927411,23.9990234 C6.94692269,23.891601 7.04456981,23.789063 7.14221839,23.6914062 C7.22033725,23.6328122 7.28869024,23.574219 7.34727939,23.515625 C7.40586853,23.457031 7.44492738,23.3593757 7.4644571,23.2226562 C7.42539766,23.1249995 7.39610353,23.032227 7.37657381,22.9443359 C7.3570441,22.8564449 7.36680881,22.7636724 7.40586824,22.6660156 C7.50351682,22.3144514 7.66463457,22.0019545 7.88922631,21.7285156 C8.11381804,21.4550768 8.34328877,21.2109386 8.57764537,20.9960938 C8.53858593,20.7031235 8.57276243,20.3613301 8.68017587,19.9707031 C8.78758931,19.5800762 8.91453056,19.1992206 9.06100343,18.828125 C9.20747631,18.4570294 9.35394698,18.1298842 9.50041985,17.8466797 C9.64689273,17.5634751 9.7494222,17.3730474 9.80801135,17.2753906 L10.1009556,16.8066406 L10.3646055,17.3339844 C11.360621,19.3261818 12.8350925,20.3222656 14.7880641,20.3222656 C15.5497231,20.3222656 16.3357824,20.190431 17.1462656,19.9267578 C17.9567488,19.6630846 18.7525728,19.3310567 19.5337615,18.9306641 C20.3149502,18.5302714 21.0717153,18.0908227 21.8040797,17.6123047 C22.536444,17.1337867 23.2150915,16.6699241 23.8400424,16.2207031 C23.8791019,16.0644523 23.9376901,15.9765626 24.015809,15.9570312 C24.0939279,15.9374999 24.1818103,15.9277344 24.2794589,15.9277344 L24.5724031,15.9570312 L24.5724031,16.2792969 C24.5919329,16.4746104 24.5333446,16.6210933 24.3966366,16.71875 C23.6545073,19.3164192 23.2980954,21.4550697 23.3273899,23.1347656 C23.3566845,24.8144615 23.8400377,25.9960903 24.7774641,26.6796875 C25.0118207,26.6796875 25.2364091,26.6357426 25.451236,26.5478516 C25.6660629,26.4599605 25.8808865,26.3476569 26.0957134,26.2109375 C26.2519511,26.1132808 26.4179512,26.025391 26.5937187,25.9472656 C26.7694861,25.8691402 26.9647804,25.8007815 27.1796072,25.7421875 C27.2186667,25.6249994 27.2674902,25.5078131 27.3260794,25.390625 C27.3846685,25.2734369 27.4432568,25.1464851 27.501846,25.0097656 C27.9900889,23.9355415 28.444148,22.7832093 28.8640369,21.5527344 C29.2839258,20.3222595 29.4548082,18.9648512 29.3766894,17.4804688 C29.5133974,17.1874985 29.6256916,16.909181 29.7135753,16.6455078 C29.801459,16.3818346 29.8649296,16.1035171 29.9039891,15.8105469 C29.9430485,15.5175767 29.9625779,15.200197 29.9625779,14.8583984 C29.9625779,14.5165999 29.9430485,14.0527373 29.9039891,13.4667969 C30.0406971,13.2324207 30.162756,12.9101583 30.2701694,12.5 C30.3775829,12.0898417 30.4019946,11.7187517 30.3434055,11.3867188 L30.2555222,10.7421875 L30.8999996,10.8007812 C30.8609402,10.7031245 30.8316461,10.6201175 30.8121163,10.5517578 C30.7925866,10.4833981 30.7632925,10.4101566 30.724233,10.3320312 C30.6461142,10.1367178 30.5777612,9.93652446 30.5191721,9.73144531 C30.4605829,9.52636616 30.4508182,9.31640732 30.4898776,9.1015625 C30.0797536,8.80859229 29.7868122,8.39844014 29.6110448,7.87109375 C29.5524556,7.73437432 29.4694556,7.62695352 29.3620421,7.54882812 C29.2546287,7.47070273 29.1228051,7.38281299 28.9665674,7.28515625 L28.8493896,7.2265625 C28.8103302,7.20703115 28.7419772,7.15820352 28.6443287,7.08007812 C28.4685612,6.904296 28.3806788,6.70898545 28.3806788,6.49414062 C28.3220896,6.45507793 28.2683837,6.42578135 28.2195594,6.40625 C28.1707352,6.38671865 28.1170292,6.35742207 28.0584401,6.31835938 C27.7850241,6.18163994 27.5116121,6.05957085 27.2381961,5.95214844 C26.9647801,5.84472603 26.6913681,5.79101562 26.4179521,5.79101562 C26.1445361,5.79101562 25.9004183,5.85937432 25.6855914,5.99609375 C25.2949971,6.97266113 24.7677026,7.78808267 24.1036923,8.44238281 C23.4396819,9.09668296 22.7561521,9.70702842 22.0530823,10.2734375 C21.6820177,10.5859391 21.3256057,10.8935532 20.9838357,11.1962891 C20.6420657,11.499025 20.2661243,11.8457012 19.8560002,12.2363281 C19.6802328,12.2753908 19.4995856,12.3437495 19.3140533,12.4414062 C19.128521,12.539063 18.9283444,12.6660148 18.7135175,12.8222656 C18.4401015,12.9980478 18.1471601,13.1738272 17.8346847,13.3496094 C17.5222092,13.5253915 17.1706796,13.6132812 16.7800852,13.6132812 C16.4871395,13.6132812 16.1844334,13.535157 15.871958,13.3789062 L15.666897,13.1445312 C15.6083078,12.9296864 15.5838961,12.7294931 15.5936609,12.5439453 C15.6034258,12.3583975 15.6180728,12.1875008 15.6376026,12.03125 C15.676662,11.8164052 15.6961914,11.6503912 15.6961914,11.5332031 C15.6961914,11.416015 15.6473678,11.2890632 15.5497193,11.1523438 L15.5204248,10.8300781 C15.7743112,10.205075 15.7743112,9.62890889 15.5204248,9.1015625 C15.2665385,8.57421611 14.944303,8.02734658 14.5537087,7.4609375 C14.4755898,7.36328076 14.4023545,7.25585996 14.3340005,7.13867188 C14.2656465,7.02148379 14.1924112,6.90429746 14.1142923,6.78710938 C13.8994654,6.76757803 13.6992888,6.72363315 13.5137565,6.65527344 C13.3282242,6.58691372 13.1085182,6.52343779 12.8546319,6.46484375 C12.7960427,6.46484375 12.7228074,6.44042993 12.6349237,6.39160156 C12.5470399,6.34277319 12.4835693,6.25000068 12.4445099,6.11328125 L12.3566266,5.703125 C12.2199186,5.54687422 12.0636832,5.4150396 11.8879157,5.30761719 C11.7121483,5.20019478 11.5070894,5.09765674 11.2727328,5 C10.8821384,5.13671943 10.5501382,5.29785063 10.2767222,5.48339844 C10.0033062,5.66894624 9.75430602,5.88378784 9.52971428,6.12792969 C9.30512254,6.37207153 9.1000636,6.6455063 8.91453129,6.94824219 C8.72899899,7.25097808 8.52882239,7.57812324 8.31399551,7.9296875 C8.1772875,8.14453232 8.03569918,8.37890498 7.88922631,8.6328125 C7.74275343,8.88672002 7.58163569,9.15038926 7.40586824,9.42382812 C7.15198193,9.79492373 6.85415822,10.3173794 6.51238818,10.9912109 C6.17061815,11.6650424 5.81420617,12.4121053 5.44314156,13.2324219 C5.07207694,14.0527385 4.7010179,14.8876911 4.32995329,15.7373047 C3.95888867,16.5869183 3.62688847,17.358395 3.33394273,18.0517578 C3.04099698,18.7451207 2.80176154,19.316404 2.61622924,19.765625 C2.43069693,20.214846 2.33793217,20.4492187 2.33793217,20.46875 C2.12310529,20.976565 2.01081111,21.5576139 2.00104625,22.2119141 C1.99128139,22.8662142 2.04986966,23.5205045 2.17681282,24.1748047 C2.30375597,24.8291048 2.4892855,25.4443331 2.73340695,26.0205078 C2.97752841,26.5966826 3.25582269,27.0507796 3.56829815,27.3828125 C3.9784222,27.4414065 4.28112826,27.4707031 4.47642543,27.4707031 Z" id="mask" ></path>
</svg>
