<svg viewBox="0 0 27 31" version="1.1" xmlns="http://www.w3.org/2000/svg" xmlns:xlink="http://www.w3.org/1999/xlink">
  <path d="M24.2408443,5.60529077 C23.9230431,9.16017196 23.1957192,13.5116361 22.0588727,18.659683 L20.9675749,24.0054199" id="path3" stroke="#979797"></path>
  <path d="M4.91070987,3.55715758 C6.74139465,4.35738022 9.46757291,7.24558318 9.36419065,7.83998659 C9.15003188,9.0713072 9.46094353,9.72952626 9.71048583,10.7058132 C9.91516293,11.5065735 8.60275828,12.8069891 8.8934164,13.5055005 C9.12819613,14.0697246 10.3568372,14.7441766 11.3249701,14.935294 C13.4916548,15.3630153 14.5124456,12.6778238 15.7266626,12.1465259 C16.5361406,11.7923273 17.8372953,10.8276924 19.6301268,9.25262133 L25.431039,2.54011048" id="path2" stroke="#934F4F"></path>
  <path d="M0.0865996574,24.3017986 L0.665006198,19.8657886 L1.65023158,17.1275609 C2.93544093,13.5099498 3.9934611,10.8340137 4.82429207,9.09975229 C5.65512303,7.36549093 7.23435384,4.53647771 9.56198447,0.61271263" id="path1" stroke="#979797"></path>
</svg>
