<svg viewBox="0 0 33 33" version="1.1" xmlns="http://www.w3.org/2000/svg" xmlns:xlink="http://www.w3.org/1999/xlink">
  <rect class="background" x="0" y="0" width="33" height="33"></rect>
  <path d="M4.47663227,27.4707031 C4.2813188,27.4707031 3.97858745,27.4414065 3.56842915,27.3828125 C3.25592759,27.0507796 2.97761006,26.5966826 2.73346821,26.0205078 C2.48932636,25.4443331 2.30378134,24.8291048 2.17682759,24.1748047 C2.04987383,23.5205045 1.99128066,22.8662142 2.00104634,22.2119141 C2.01081201,21.5576139 2.12311557,20.976565 2.3379604,20.46875 C2.3379604,20.4492187 2.43073291,20.214846 2.61628071,19.765625 C2.80182851,19.316404 3.04108393,18.7451207 3.33405415,18.0517578 C3.62702436,17.358395 3.95905229,16.5869183 4.3301479,15.7373047 C4.7012435,14.8876911 5.07233354,14.0527385 5.44342915,13.2324219 C5.81452475,12.4121053 6.1709665,11.6650424 6.51276509,10.9912109 C6.85456367,10.3173794 7.15241225,9.79492373 7.40631977,9.42382812 C7.5821019,9.15038926 7.7432331,8.88672002 7.88971821,8.6328125 C8.03620332,8.37890498 8.17780346,8.14453232 8.3145229,7.9296875 C8.52936772,7.57812324 8.72956103,7.25097808 8.91510884,6.94824219 C9.10065664,6.6455063 9.30573271,6.37207153 9.53034321,6.12792969 C9.75495371,5.88378784 10.0039747,5.66894624 10.2774135,5.48339844 C10.5508524,5.29785063 10.8828803,5.13671943 11.2735073,5 C11.5078834,5.09765674 11.7129595,5.20019478 11.8887416,5.30761719 C12.0645238,5.4150396 12.2207722,5.54687422 12.3574916,5.703125 L12.4453823,6.11328125 C12.484445,6.25000068 12.5479209,6.34277319 12.635812,6.39160156 C12.723703,6.44042993 12.7969445,6.46484375 12.8555385,6.46484375 C13.109446,6.52343779 13.3291704,6.58691372 13.5147182,6.65527344 C13.700266,6.72363315 13.9004593,6.76757803 14.1153041,6.78710938 C14.1934295,6.90429746 14.266671,7.02148379 14.3350307,7.13867188 C14.4033904,7.25585996 14.4766319,7.36328076 14.5547573,7.4609375 C14.9453842,8.02734658 15.2676466,8.57421611 15.5215541,9.1015625 C15.7754617,9.62890889 15.7754617,10.205075 15.5215541,10.8300781 L15.550851,11.1523438 C15.6485078,11.2890632 15.6973354,11.416015 15.6973354,11.5332031 C15.6973354,11.6503912 15.6778043,11.8164052 15.6387416,12.03125 C15.6192103,12.1875008 15.604562,12.3583975 15.5947963,12.5439453 C15.5850307,12.7294931 15.6094445,12.9296864 15.6680385,13.1445312 L15.8731166,13.3789062 C16.1856182,13.535157 16.4883496,13.6132812 16.7813198,13.6132812 C17.1719467,13.6132812 17.5235057,13.5253915 17.8360073,13.3496094 C18.1485088,13.1738272 18.4414747,12.9980478 18.7149135,12.8222656 C18.9297583,12.6660148 19.1299517,12.539063 19.3154995,12.4414062 C19.5010473,12.3437495 19.6817095,12.2753908 19.8574916,12.2363281 C20.2676499,11.8457012 20.6436228,11.499025 20.9854213,11.1962891 C21.3272199,10.8935532 21.6836617,10.5859391 22.0547573,10.2734375 C22.7578858,9.70702842 23.4414727,9.09668296 24.1055385,8.44238281 C24.7696043,7.78808267 25.2969428,6.97266113 25.6875698,5.99609375 C25.9024146,5.85937432 26.1465528,5.79101562 26.4199916,5.79101562 C26.6934305,5.79101562 26.9668653,5.84472603 27.2403041,5.95214844 C27.513743,6.05957085 27.7871778,6.18163994 28.0606166,6.31835938 C28.1192107,6.35742207 28.1729211,6.38671865 28.2217495,6.40625 C28.2705778,6.42578135 28.3242882,6.45507793 28.3828823,6.49414062 C28.3828823,6.70898545 28.470772,6.904296 28.6465541,7.08007812 C28.7442109,7.15820352 28.8125696,7.20703115 28.8516323,7.2265625 L28.9688198,7.28515625 C29.1250706,7.38281299 29.2569052,7.47070273 29.3643276,7.54882812 C29.47175,7.62695352 29.554757,7.73437432 29.613351,7.87109375 C29.7891332,8.39844014 30.082099,8.80859229 30.4922573,9.1015625 C30.4531946,9.31640732 30.4629601,9.52636616 30.5215541,9.73144531 C30.5801482,9.93652446 30.6485069,10.1367178 30.7266323,10.3320312 C30.765695,10.4101566 30.7949915,10.4833981 30.8145229,10.5517578 C30.8340542,10.6201175 30.8633508,10.7031245 30.9024135,10.8007812 L30.2578823,10.7421875 L30.3457729,11.3867188 C30.4043669,11.7187517 30.3799531,12.0898417 30.2725307,12.5 C30.1651083,12.9101583 30.0430392,13.2324207 29.9063198,13.4667969 C29.9453825,14.0527373 29.9649135,14.5165999 29.9649135,14.8583984 C29.9649135,15.200197 29.9453825,15.5175767 29.9063198,15.8105469 C29.8672571,16.1035171 29.8037811,16.3818346 29.7158901,16.6455078 C29.627999,16.909181 29.5156955,17.1874985 29.378976,17.4804688 C29.4571014,18.9648512 29.2862047,20.3222595 28.8662807,21.5527344 C28.4463567,22.7832093 27.9922597,23.9355415 27.503976,25.0097656 C27.445382,25.1464851 27.3867888,25.2734369 27.3281948,25.390625 C27.2696007,25.5078131 27.2207731,25.6249994 27.1817104,25.7421875 C26.9668656,25.8007815 26.771555,25.8691402 26.5957729,25.9472656 C26.4199908,26.025391 26.2539768,26.1132808 26.097726,26.2109375 C25.8828812,26.3476569 25.6680396,26.4599605 25.4531948,26.5478516 C25.2383499,26.6357426 25.0137428,26.6796875 24.7793666,26.6796875 C23.841862,25.9960903 23.3584684,24.8144615 23.3291713,23.1347656 C23.2998743,21.4550697 23.6563161,19.3164192 24.3985073,16.71875 C24.5352267,16.6210933 24.5938199,16.4746104 24.5742885,16.2792969 L24.5742885,15.9570312 L24.2813198,15.9277344 C24.183663,15.9277344 24.0957733,15.9374999 24.0176479,15.9570312 C23.9395225,15.9765626 23.8809293,16.0644523 23.8418666,16.2207031 C23.2168635,16.6699241 22.5381594,17.1337867 21.8057338,17.6123047 C21.0733083,18.0908227 20.3164799,18.5302714 19.535226,18.9306641 C18.7539721,19.3310567 17.9580816,19.6630846 17.1475307,19.9267578 C16.3369798,20.190431 15.5508548,20.3222656 14.7891323,20.3222656 C12.8359975,20.3222656 11.3614029,19.3261818 10.3653041,17.3339844 L10.1016323,16.8066406 L9.80866352,17.2753906 C9.75006948,17.3730474 9.64753144,17.5634751 9.50104634,17.8466797 C9.35456123,18.1298842 9.20807832,18.4570294 9.06159321,18.828125 C8.9151081,19.1992206 8.78815625,19.5800762 8.68073384,19.9707031 C8.57331142,20.3613301 8.53913208,20.7031235 8.57819477,20.9960938 C8.3438186,21.2109386 8.11432871,21.4550768 7.88971821,21.7285156 C7.66510771,22.0019545 7.50397651,22.3144514 7.40631977,22.6660156 C7.36725708,22.7636724 7.35749155,22.8564449 7.3770229,22.9443359 C7.39655425,23.032227 7.42585083,23.1249995 7.46491352,23.2226562 C7.44538217,23.3593757 7.40632007,23.457031 7.34772602,23.515625 C7.28913198,23.574219 7.22077329,23.6328122 7.1426479,23.6914062 C7.04499116,23.789063 6.94733589,23.891601 6.84967915,23.9990234 C6.75202241,24.1064458 6.66413266,24.2285149 6.58600727,24.3652344 C6.54694458,24.4824225 6.517648,24.6044916 6.49811665,24.7314453 C6.4785853,24.8583991 6.45905425,24.9707026 6.4395229,25.0683594 C6.4395229,25.2832042 6.41022632,25.4296871 6.35163227,25.5078125 C6.1563188,25.9179708 5.98542207,26.2548815 5.83893696,26.5185547 C5.69245185,26.7822279 5.55085171,26.9824212 5.41413227,27.1191406 C5.27741284,27.2558601 5.13581269,27.3486326 4.98932759,27.3974609 C4.84284248,27.4462893 4.67194575,27.4707031 4.47663227,27.4707031 Z" class="stroke"></path>
</svg>
