<svg viewBox="0 0 33 33" version="1.1" xmlns="http://www.w3.org/2000/svg" xmlns:xlink="http://www.w3.org/1999/xlink">
  <path d="M18.9620079,7.6175522 L13.5669618,11.9497804 L11.6129239,13.5485387 L9.27565946,16.7293512 L8.59834747,19.3113924 L8.59834747,22.109139 L10.704648,23.9565288 L14.742661,23.9565288 L18.4870704,23.1833298 L22.3745875,21.7458287 L23.9298192,19.3113924 L23.9298192,16.3181777 L22.0307115,13.0141737 C20.7260812,10.869594 19.70318,9.2584149 18.9620079,8.18063634 C18.2208359,7.10285779 17.5142385,6.19907913 16.8422158,5.46930039" id="o" class="stroke"></path>
  <path d="M0,0 L33,0 L33,33 L0,33 L0,0 Z M12.7535673,27.4707031 C13.6520093,27.6660166 14.4332515,27.7148442 15.0973173,27.6171875 C15.7613832,27.5195308 16.4449701,27.3437513 17.1480986,27.0898438 C17.4410688,27.1289064 17.7730967,27.1142582 18.1441923,27.0458984 C18.5152879,26.9775387 18.886378,26.8847662 19.2574736,26.7675781 C19.6285692,26.65039 19.9898937,26.5185554 20.341458,26.3720703 C20.6930222,26.2255852 20.9957536,26.0742195 21.2496611,25.9179688 C21.581694,25.8398434 21.9039564,25.7666019 22.216458,25.6982422 C22.5289595,25.6298825 22.8219253,25.5175789 23.0953642,25.3613281 C23.4859912,25.0292952 23.9156744,24.7412122 24.3844267,24.4970703 C24.8531791,24.2529285 25.2438002,23.9355488 25.5563017,23.5449219 C25.8102092,23.3886711 26.0348164,23.1591812 26.2301298,22.8564453 C26.4254433,22.5537094 26.5816918,22.2265643 26.6988798,21.875 C26.8160679,21.5234357 26.8941921,21.1572285 26.9332548,20.7763672 C26.9723175,20.3955059 26.9723175,20.0390642 26.9332548,19.7070312 C26.8941921,19.4531237 26.8258335,19.19922 26.7281767,18.9453125 C26.63052,18.691405 26.5279819,18.4375013 26.4205595,18.1835938 C26.3131371,17.9296862 26.2252474,17.6708998 26.1568877,17.4072266 C26.0885279,17.1435534 26.0738796,16.8750014 26.1129423,16.6015625 C25.5465333,15.6835892 25.0387258,14.7216847 24.5895048,13.7158203 C24.1402838,12.7099559 23.642242,11.7480515 23.0953642,10.8300781 C23.1734896,10.71289 23.2027862,10.5664071 23.1832548,10.390625 C23.1637235,10.2539056 23.0953648,10.1806641 22.9781767,10.1708984 C22.8609886,10.1611328 22.8023955,10.0781258 22.8023955,9.921875 C23.0367716,9.82421826 23.1930201,9.64355601 23.2711455,9.37988281 C23.3492709,9.11620962 23.4371606,8.86718867 23.5348173,8.6328125 C23.4957546,8.49609307 23.4518098,8.37890674 23.4029814,8.28125 C23.354153,8.18359326 23.3053254,8.09570352 23.256497,8.01757812 C23.2076687,7.93945273 23.1637238,7.85156299 23.1246611,7.75390625 C23.0855984,7.65624951 23.0465363,7.52929766 23.0074736,7.37304688 C22.9098169,7.35351553 22.8463409,7.36328105 22.8170439,7.40234375 C22.7877469,7.44140645 22.724271,7.4609375 22.6266142,7.4609375 C22.5875515,7.24609268 22.4996618,7.08007871 22.3629423,6.96289062 C22.2262229,6.84570254 22.0895055,6.73339897 21.9527861,6.62597656 C21.8160667,6.51855415 21.6891148,6.40136782 21.5719267,6.27441406 C21.4547386,6.1474603 21.3863799,5.96679805 21.3668486,5.73242188 C21.0934097,5.45898301 20.7906784,5.30761733 20.4586455,5.27832031 C20.1266126,5.24902329 19.8141157,5.15625078 19.5211455,5 C19.2281753,5.19531348 19.0035681,5.37109297 18.8473173,5.52734375 C18.6910666,5.68359453 18.5250526,5.92773271 18.3492705,6.25976562 C18.0758316,6.29882832 17.8756383,6.31835938 17.7486845,6.31835938 C17.6217308,6.31835938 17.450834,6.3281249 17.2359892,6.34765625 C16.9625503,6.71875186 16.7281777,7.0214832 16.5328642,7.25585938 C16.3375507,7.49023555 16.0250539,7.70507715 15.5953642,7.90039062 L15.5953642,8.28125 C15.4000507,8.33984404 15.2340368,8.41796826 15.0973173,8.515625 C14.9605979,8.61328174 14.8287633,8.72070254 14.7018095,8.83789062 C14.5748558,8.95507871 14.4381384,9.06249951 14.2916533,9.16015625 C14.1451682,9.25781299 13.9742714,9.32617168 13.778958,9.36523438 C13.6813012,9.5410165 13.5689977,9.68749941 13.4420439,9.8046875 C13.3150901,9.92187559 13.1783728,10.0341792 13.0318877,10.1416016 C12.8854025,10.249024 12.7486852,10.3613275 12.6217314,10.4785156 C12.4947776,10.5957037 12.3922396,10.7421866 12.3141142,10.9179688 C12.1969261,10.9570314 12.0943881,11.0253901 12.006497,11.1230469 C11.918606,11.2207036 11.8404817,11.3183589 11.772122,11.4160156 C11.7037623,11.5136724 11.6256381,11.5917966 11.537747,11.6503906 C11.449856,11.7089847 11.3375524,11.7089847 11.200833,11.6503906 C10.5758298,12.3925818 9.92642227,13.1640585 9.25259078,13.9648438 C8.57875928,14.765629 7.97817935,15.6249954 7.45083297,16.5429688 C6.92348658,17.4609421 6.52309996,18.4619086 6.24966109,19.5458984 C5.97622222,20.6298882 5.92739459,21.8359309 6.10317672,23.1640625 C6.35708424,23.808597 6.6842294,24.4140597 7.08462203,24.9804688 C7.48501466,25.5468778 7.96352549,26.0351542 8.5201689,26.4453125 C9.07681231,26.8554708 9.70668883,27.1582021 10.4098173,27.3535156 C11.1129459,27.5488291 11.894188,27.5878912 12.7535673,27.4707031 Z M13.1316528,16.8071899 C13.2488409,16.7681272 13.3171996,16.7583617 13.336731,16.7778931 C13.3562623,16.7974244 13.4148555,16.7778934 13.5125122,16.7192993 C14.0593899,16.0357021 14.6697354,15.440005 15.3435669,14.9321899 C16.0173984,14.4243749 16.6961025,13.8970364 17.3796997,13.3501587 C17.4968878,13.4478154 17.6287224,13.5259396 17.7752075,13.5845337 C17.9216926,13.6431277 18.0681755,13.6724243 18.2146606,13.6724243 C18.3611458,13.6724243 18.4929804,13.638245 18.6101685,13.5698853 C18.7273565,13.5015255 18.8152463,13.3696909 18.8738403,13.1743774 C19.0105598,13.3110969 19.1375116,13.3306279 19.2546997,13.2329712 C19.3718878,13.1353145 19.450012,13.0376592 19.4890747,12.9400024 C19.9773584,13.6821937 20.4070416,14.4683186 20.7781372,15.2984009 C21.1492328,16.1284832 21.5886815,16.8950771 22.0964966,17.5982056 C22.0964966,17.8325817 22.1111449,18.0083612 22.1404419,18.1255493 C22.1697389,18.2427374 22.2332148,18.3892203 22.3308716,18.5650024 C22.3113402,18.8970354 22.2234505,19.1509391 22.0671997,19.3267212 C21.9109489,19.5025033 21.7839971,19.7075794 21.6863403,19.9419556 C20.9246178,20.3325825 20.1922032,20.7183208 19.4890747,21.0991821 C18.7859462,21.4800434 18.0242351,21.7095333 17.2039185,21.7876587 C17.0476677,21.7876587 16.9695435,21.8755484 16.9695435,22.0513306 C16.5203225,22.0513306 16.012515,22.1001582 15.446106,22.1978149 C14.8796969,22.2954717 14.3132963,22.3687131 13.7468872,22.4175415 C13.1804781,22.4663699 12.6287258,22.4566043 12.0916138,22.3882446 C11.5545017,22.3198849 11.0906392,22.1196916 10.7000122,21.7876587 C10.7195436,21.2212496 10.8220816,20.7280905 11.0076294,20.3081665 C11.1931772,19.8882425 11.4129016,19.4927387 11.6668091,19.1216431 C11.9207166,18.7505475 12.1795031,18.3843402 12.4431763,18.0230103 C12.7068495,17.6616803 12.9363394,17.2564109 13.1316528,16.8071899 Z" id="mask" ></path>
</svg>
