<svg viewBox="0 0 33 33" version="1.1" xmlns="http://www.w3.org/2000/svg" xmlns:xlink="http://www.w3.org/1999/xlink">
            <rect class="background" x="0" y="0" width="33" height="33"></rect>
            <path d="M12.7535673,27.4707031 C11.894188,27.5878912 11.1129459,27.5488291 10.4098173,27.3535156 C9.70668883,27.1582021 9.07681231,26.8554708 8.5201689,26.4453125 C7.96352549,26.0351542 7.48501466,25.5468778 7.08462203,24.9804688 C6.6842294,24.4140597 6.35708424,23.808597 6.10317672,23.1640625 C5.92739459,21.8359309 5.97622222,20.6298882 6.24966109,19.5458984 C6.52309996,18.4619086 6.92348658,17.4609421 7.45083297,16.5429688 C7.97817935,15.6249954 8.57875928,14.765629 9.25259078,13.9648438 C9.92642227,13.1640585 10.5758298,12.3925818 11.200833,11.6503906 C11.3375524,11.7089847 11.449856,11.7089847 11.537747,11.6503906 C11.6256381,11.5917966 11.7037623,11.5136724 11.772122,11.4160156 C11.8404817,11.3183589 11.918606,11.2207036 12.006497,11.1230469 C12.0943881,11.0253901 12.1969261,10.9570314 12.3141142,10.9179688 C12.3922396,10.7421866 12.4947776,10.5957037 12.6217314,10.4785156 C12.7486852,10.3613275 12.8854025,10.249024 13.0318877,10.1416016 C13.1783728,10.0341792 13.3150901,9.92187559 13.4420439,9.8046875 C13.5689977,9.68749941 13.6813012,9.5410165 13.778958,9.36523438 C13.9742714,9.32617168 14.1451682,9.25781299 14.2916533,9.16015625 C14.4381384,9.06249951 14.5748558,8.95507871 14.7018095,8.83789062 C14.8287633,8.72070254 14.9605979,8.61328174 15.0973173,8.515625 C15.2340368,8.41796826 15.4000507,8.33984404 15.5953642,8.28125 L15.5953642,7.90039062 C16.0250539,7.70507715 16.3375507,7.49023555 16.5328642,7.25585938 C16.7281777,7.0214832 16.9625503,6.71875186 17.2359892,6.34765625 C17.450834,6.3281249 17.6217308,6.31835938 17.7486845,6.31835938 C17.8756383,6.31835938 18.0758316,6.29882832 18.3492705,6.25976562 C18.5250526,5.92773271 18.6910666,5.68359453 18.8473173,5.52734375 C19.0035681,5.37109297 19.2281753,5.19531348 19.5211455,5 C19.8141157,5.15625078 20.1266126,5.24902329 20.4586455,5.27832031 C20.7906784,5.30761733 21.0934097,5.45898301 21.3668486,5.73242188 C21.3863799,5.96679805 21.4547386,6.1474603 21.5719267,6.27441406 C21.6891148,6.40136782 21.8160667,6.51855415 21.9527861,6.62597656 C22.0895055,6.73339897 22.2262229,6.84570254 22.3629423,6.96289062 C22.4996618,7.08007871 22.5875515,7.24609268 22.6266142,7.4609375 C22.724271,7.4609375 22.7877469,7.44140645 22.8170439,7.40234375 C22.8463409,7.36328105 22.9098169,7.35351553 23.0074736,7.37304688 C23.0465363,7.52929766 23.0855984,7.65624951 23.1246611,7.75390625 C23.1637238,7.85156299 23.2076687,7.93945273 23.256497,8.01757812 C23.3053254,8.09570352 23.354153,8.18359326 23.4029814,8.28125 C23.4518098,8.37890674 23.4957546,8.49609307 23.5348173,8.6328125 C23.4371606,8.86718867 23.3492709,9.11620962 23.2711455,9.37988281 C23.1930201,9.64355601 23.0367716,9.82421826 22.8023955,9.921875 C22.8023955,10.0781258 22.8609886,10.1611328 22.9781767,10.1708984 C23.0953648,10.1806641 23.1637235,10.2539056 23.1832548,10.390625 C23.2027862,10.5664071 23.1734896,10.71289 23.0953642,10.8300781 C23.642242,11.7480515 24.1402838,12.7099559 24.5895048,13.7158203 C25.0387258,14.7216847 25.5465333,15.6835892 26.1129423,16.6015625 C26.0738796,16.8750014 26.0885279,17.1435534 26.1568877,17.4072266 C26.2252474,17.6708998 26.3131371,17.9296862 26.4205595,18.1835938 C26.5279819,18.4375013 26.63052,18.691405 26.7281767,18.9453125 C26.8258335,19.19922 26.8941921,19.4531237 26.9332548,19.7070312 C26.9723175,20.0390642 26.9723175,20.3955059 26.9332548,20.7763672 C26.8941921,21.1572285 26.8160679,21.5234357 26.6988798,21.875 C26.5816918,22.2265643 26.4254433,22.5537094 26.2301298,22.8564453 C26.0348164,23.1591812 25.8102092,23.3886711 25.5563017,23.5449219 C25.2438002,23.9355488 24.8531791,24.2529285 24.3844267,24.4970703 C23.9156744,24.7412122 23.4859912,25.0292952 23.0953642,25.3613281 C22.8219253,25.5175789 22.5289595,25.6298825 22.216458,25.6982422 C21.9039564,25.7666019 21.581694,25.8398434 21.2496611,25.9179688 C20.9957536,26.0742195 20.6930222,26.2255852 20.341458,26.3720703 C19.9898937,26.5185554 19.6285692,26.65039 19.2574736,26.7675781 C18.886378,26.8847662 18.5152879,26.9775387 18.1441923,27.0458984 C17.7730967,27.1142582 17.4410688,27.1289064 17.1480986,27.0898438 C16.4449701,27.3437513 15.7613832,27.5195308 15.0973173,27.6171875 C14.4332515,27.7148442 13.6520093,27.6660166 12.7535673,27.4707031 Z M13.1344267,16.8066406 C12.9391132,17.2558616 12.7096233,17.661131 12.4459502,18.0224609 C12.182277,18.3837909 11.9234905,18.7499981 11.669583,19.1210938 C11.4156754,19.4921894 11.1959511,19.8876932 11.0104033,20.3076172 C10.8248555,20.7275412 10.7223174,21.2207003 10.7027861,21.7871094 C11.093413,22.1191423 11.5572756,22.3193356 12.0943877,22.3876953 C12.6314997,22.456055 13.183252,22.4658206 13.7496611,22.4169922 C14.3160702,22.3681638 14.8824708,22.2949224 15.4488798,22.1972656 C16.0152889,22.0996089 16.5230963,22.0507812 16.9723173,22.0507812 C16.9723173,21.8749991 17.0504416,21.7871094 17.2066923,21.7871094 C18.0270089,21.708984 18.7887201,21.4794941 19.4918486,21.0986328 C20.1949771,20.7177715 20.9273917,20.3320332 21.6891142,19.9414062 C21.786771,19.7070301 21.9137228,19.501954 22.0699736,19.3261719 C22.2262244,19.1503897 22.3141141,18.896486 22.3336455,18.5644531 C22.2359887,18.388671 22.1725128,18.2421881 22.1432158,18.125 C22.1139188,18.0078119 22.0992705,17.8320324 22.0992705,17.5976562 C21.5914554,16.8945277 21.1520067,16.1279338 20.7809111,15.2978516 C20.4098155,14.4677693 19.9801323,13.6816443 19.4918486,12.9394531 C19.4527859,13.0371099 19.3746617,13.1347651 19.2574736,13.2324219 C19.1402855,13.3300786 19.0133336,13.3105476 18.8766142,13.1738281 C18.8180202,13.3691416 18.7301304,13.5009762 18.6129423,13.5693359 C18.4957543,13.6376957 18.3639196,13.671875 18.2174345,13.671875 C18.0709494,13.671875 17.9244665,13.6425784 17.7779814,13.5839844 C17.6314963,13.5253903 17.4996617,13.4472661 17.3824736,13.3496094 C16.6988764,13.8964871 16.0201723,14.4238256 15.3463408,14.9316406 C14.6725093,15.4394557 14.0621638,16.0351528 13.5152861,16.71875 C13.4176294,16.777344 13.3590362,16.7968751 13.3395048,16.7773438 C13.3199735,16.7578124 13.2516148,16.7675779 13.1344267,16.8066406 Z" class="stroke"></path>
</svg>
