<svg viewBox="0 0 33 33" version="1.1" xmlns="http://www.w3.org/2000/svg" xmlns:xlink="http://www.w3.org/1999/xlink">
  <path d="M9,27.4947636 L9.26533838,23.4488824 L10.3669064,17.1777377 L11.9691346,12.7701189 L15.3050095,8.99496363 L17.6924777,7.30999756 L20.5511669,10.1683019 L21.9284636,14.1372176 L19.8417378,16.1885392 L15.9324703,17.4023806 L12.5134727,18.352038 L12.2150392,20.0510503 L14.6159763,22.3515475 L18.0796139,24.1057825 L21.9284636,25.4486371 C22.4597103,25.5591585 22.858623,25.6309101 23.1252017,25.663892 C23.3917805,25.6968738 23.8694818,25.7335794 24.5583057,25.7740086 L26.7794063,25.7740086" id="r" class="stroke"></path>
  <path d="M0,0 L33,0 L33,33 L0,33 L0,0 Z M7.52734375,24.453125 C7.46874971,24.6093758 7.45410142,24.7460932 7.48339844,24.8632813 C7.51269546,24.9804693 7.5468748,25.0927729 7.5859375,25.2001953 C7.6250002,25.3076177 7.65429678,25.4248041 7.67382812,25.5517578 C7.69335947,25.6787116 7.67382842,25.8300772 7.61523437,26.0058594 C7.86914189,25.986328 8.02539033,26.0595695 8.08398437,26.2255859 C8.14257842,26.3916024 8.20117158,26.5624991 8.25976562,26.7382813 C8.47461045,26.7187499 8.63085889,26.738281 8.72851562,26.796875 C8.82617236,26.855469 8.91406211,26.9140622 8.9921875,26.9726563 C9.07031289,27.0312503 9.15820264,27.0849607 9.25585937,27.1337891 C9.35351611,27.1826174 9.49999902,27.1875002 9.6953125,27.1484375 C9.85156328,27.0507808 9.9833979,26.94336 10.0908203,26.8261719 C10.1982427,26.7089838 10.4082016,26.6796872 10.7207031,26.7382813 C11.1113301,26.2304662 11.4091787,25.7324243 11.6142578,25.2441406 C11.819337,24.7558569 11.9707026,24.1210977 12.0683594,23.3398438 C12.1269534,23.3203124 12.1611328,23.2812503 12.1708984,23.2226563 C12.1806641,23.1640622 12.2148435,23.1250001 12.2734375,23.1054688 C12.7031271,23.4960957 13.0839827,23.8330064 13.4160156,24.1162109 C13.7480485,24.3994155 14.109373,24.6630847 14.5,24.9072266 C14.890627,25.1513684 15.3496067,25.4003894 15.8769531,25.6542969 C16.4042995,25.9082044 17.0878864,26.1914047 17.9277344,26.5039063 C19.6269616,27.1484407 21.023432,27.597655 22.1171875,27.8515625 C23.210943,28.10547 24.1093715,28.0957045 24.8125,27.8222656 C25.0078135,27.8027343 25.1689447,27.7343756 25.2958984,27.6171875 C25.4228522,27.4999994 25.5351558,27.3730476 25.6328125,27.2363281 L25.9257812,26.8261719 C26.023438,26.6894524 26.1406243,26.5722661 26.2773438,26.4746094 C26.179687,26.455078 26.0869145,26.4501953 25.9990234,26.4599609 C25.9111324,26.4697266 25.857422,26.4355473 25.8378906,26.3574219 C25.9746101,26.2011711 26.057617,25.9912123 26.0869141,25.7275391 C26.1162111,25.4638659 26.1015628,25.1855483 26.0429688,24.8925781 C25.9843747,24.5996079 25.8867194,24.3066421 25.75,24.0136719 C25.6132806,23.7207017 25.4375011,23.4667979 25.2226562,23.2519531 C24.6953099,23.1933591 24.2753922,23.1445314 23.9628906,23.1054688 C23.6503891,23.0664061 23.3574232,23.0224612 23.0839844,22.9736328 C22.8105455,22.9248044 22.5029314,22.8564458 22.1611328,22.7685547 C21.8193342,22.6806636 21.3457062,22.5683601 20.7402344,22.4316406 C20.1347626,22.2949212 19.6611345,22.1777349 19.3193359,22.0800781 C18.9775374,21.9824214 18.6650405,21.8603523 18.3818359,21.7138672 C18.0986314,21.5673821 17.7959,21.3867198 17.4736328,21.171875 C17.1513656,20.9570302 16.6972686,20.6738299 16.1113281,20.3222656 C16.1503908,20.2050775 16.125977,20.1464844 16.0380859,20.1464844 C15.9501949,20.1464844 15.90625,20.1074223 15.90625,20.0292969 C16.6875039,19.697264 17.5566358,19.3896499 18.5136719,19.1064453 C19.4707079,18.8232408 20.3740192,18.4814473 21.2236328,18.0810547 C22.0732464,17.6806621 22.7958955,17.1630891 23.3916016,16.5283203 C23.9873077,15.8935515 24.3242184,15.0585989 24.4023438,14.0234375 C24.4023438,13.8671867 24.3925782,13.7353521 24.3730469,13.6279297 C24.3535155,13.5205073 24.3291017,13.422852 24.2998047,13.3349609 C24.2705077,13.2470699 24.2509766,13.1591801 24.2412109,13.0712891 C24.2314453,12.983398 24.2460936,12.88086 24.2851562,12.7636719 C24.1093741,12.431639 23.9531257,12.0703145 23.8164062,11.6796875 C23.6796868,11.2890605 23.5380867,10.9033222 23.3916016,10.5224609 C23.2451165,10.1415997 23.0791025,9.78027515 22.8935547,9.43847656 C22.7080069,9.09667798 22.478517,8.79882939 22.2050781,8.54492188 L22.2050781,8.10546875 C22.0488273,8.00781201 21.8974617,7.90527397 21.7509766,7.79785156 C21.6044915,7.69042915 21.4531258,7.58789111 21.296875,7.49023438 C20.9257794,6.92382529 20.4472686,6.45019722 19.8613281,6.06933594 C19.2753877,5.68847466 18.7480492,5.33203291 18.2792969,5 C17.3808549,5.09765674 16.6289093,5.39062256 16.0234375,5.87890625 C15.4179657,6.36718994 14.875979,6.92870776 14.3974609,7.56347656 C13.9189429,8.19824536 13.4453148,8.84765293 12.9765625,9.51171875 C12.5078102,10.1757846 11.9707062,10.7421852 11.3652344,11.2109375 C11.2675776,11.0546867 11.0673843,10.9228521 10.7646484,10.8154297 C10.4619125,10.7080073 10.1738295,10.6738279 9.90039062,10.7128906 C9.66601445,11.240237 9.47558667,11.8017548 9.32910156,12.3974609 C9.18261646,12.993167 9.05078184,13.6083953 8.93359375,14.2431641 C8.81640566,14.8779329 8.68457104,15.5175749 8.53808594,16.1621094 C8.39160083,16.8066438 8.19140752,17.4316376 7.9375,18.0371094 C7.95703135,18.1542975 7.97167964,18.3056631 7.98144531,18.4912109 C7.99121099,18.6767587 7.98144546,18.8525382 7.95214844,19.0185547 C7.92285142,19.1845711 7.88378931,19.3212885 7.83496094,19.4287109 C7.78613257,19.5361333 7.71289111,19.5605472 7.61523437,19.5019531 C7.75195381,19.8535174 7.78613315,20.1904281 7.71777344,20.5126953 C7.64941372,20.8349625 7.56640674,21.1669905 7.46875,21.5087891 C7.37109326,21.8505876 7.28808628,22.2021466 7.21972656,22.5634766 C7.15136685,22.9248065 7.18554619,23.3203104 7.32226562,23.75 L7,23.75 C7.09765674,23.9062508 7.18554648,24.067382 7.26367187,24.2333984 C7.34179727,24.3994149 7.42968701,24.4726563 7.52734375,24.453125 Z M17.3090575,11.0626526 C17.7582785,11.2189034 18.1879617,11.516752 18.59812,11.9562073 C19.0082783,12.3956626 19.262182,12.9767115 19.3598388,13.6993713 C18.5590535,14.0314042 17.7094526,14.3780805 16.8110106,14.7394104 C15.9125687,15.1007403 15.0532022,15.3302302 14.2328856,15.427887 C14.3305424,14.9005406 14.4965563,14.4464436 14.7309325,14.0655823 C14.9653087,13.684721 15.2338607,13.333162 15.5365966,13.0108948 C15.8393325,12.6886275 16.1469466,12.3761307 16.4594481,12.0733948 C16.7719497,11.7706589 17.05515,11.4337482 17.3090575,11.0626526 Z" id="mask"></path>
</svg>
