<svg viewBox="0 0 33 33" version="1.1" xmlns="http://www.w3.org/2000/svg" xmlns:xlink="http://www.w3.org/1999/xlink">
            <rect class="background" x="0" y="0" width="33" height="33"></rect>
            <path d="M7.52734375,24.453125 C7.42968701,24.4726563 7.34179727,24.3994149 7.26367188,24.2333984 C7.18554648,24.067382 7.09765674,23.9062508 7,23.75 L7.32226562,23.75 C7.18554619,23.3203104 7.15136685,22.9248065 7.21972656,22.5634766 C7.28808628,22.2021466 7.37109326,21.8505876 7.46875,21.5087891 C7.56640674,21.1669905 7.64941372,20.8349625 7.71777344,20.5126953 C7.78613315,20.1904281 7.75195381,19.8535174 7.61523438,19.5019531 C7.71289111,19.5605472 7.78613257,19.5361333 7.83496094,19.4287109 C7.88378931,19.3212885 7.92285142,19.1845711 7.95214844,19.0185547 C7.98144546,18.8525382 7.99121099,18.6767587 7.98144531,18.4912109 C7.97167964,18.3056631 7.95703135,18.1542975 7.9375,18.0371094 C8.19140752,17.4316376 8.39160083,16.8066438 8.53808594,16.1621094 C8.68457104,15.5175749 8.81640566,14.8779329 8.93359375,14.2431641 C9.05078184,13.6083953 9.18261646,12.993167 9.32910156,12.3974609 C9.47558667,11.8017548 9.66601445,11.240237 9.90039062,10.7128906 C10.1738295,10.6738279 10.4619125,10.7080073 10.7646484,10.8154297 C11.0673843,10.9228521 11.2675776,11.0546867 11.3652344,11.2109375 C11.9707062,10.7421852 12.5078102,10.1757846 12.9765625,9.51171875 C13.4453148,8.84765293 13.9189429,8.19824536 14.3974609,7.56347656 C14.875979,6.92870776 15.4179657,6.36718994 16.0234375,5.87890625 C16.6289093,5.39062256 17.3808549,5.09765674 18.2792969,5 C18.7480492,5.33203291 19.2753877,5.68847466 19.8613281,6.06933594 C20.4472686,6.45019722 20.9257794,6.92382529 21.296875,7.49023438 C21.4531258,7.58789111 21.6044915,7.69042915 21.7509766,7.79785156 C21.8974617,7.90527397 22.0488273,8.00781201 22.2050781,8.10546875 L22.2050781,8.54492188 C22.478517,8.79882939 22.7080069,9.09667798 22.8935547,9.43847656 C23.0791025,9.78027515 23.2451165,10.1415997 23.3916016,10.5224609 C23.5380867,10.9033222 23.6796868,11.2890605 23.8164062,11.6796875 C23.9531257,12.0703145 24.1093741,12.431639 24.2851562,12.7636719 C24.2460936,12.88086 24.2314453,12.983398 24.2412109,13.0712891 C24.2509766,13.1591801 24.2705077,13.2470699 24.2998047,13.3349609 C24.3291017,13.422852 24.3535155,13.5205073 24.3730469,13.6279297 C24.3925782,13.7353521 24.4023437,13.8671867 24.4023437,14.0234375 C24.3242184,15.0585989 23.9873077,15.8935515 23.3916016,16.5283203 C22.7958955,17.1630891 22.0732464,17.6806621 21.2236328,18.0810547 C20.3740192,18.4814473 19.4707079,18.8232408 18.5136719,19.1064453 C17.5566358,19.3896499 16.6875039,19.697264 15.90625,20.0292969 C15.90625,20.1074223 15.9501949,20.1464844 16.0380859,20.1464844 C16.125977,20.1464844 16.1503908,20.2050775 16.1113281,20.3222656 C16.6972686,20.6738299 17.1513656,20.9570302 17.4736328,21.171875 C17.7959,21.3867198 18.0986314,21.5673821 18.3818359,21.7138672 C18.6650405,21.8603523 18.9775374,21.9824214 19.3193359,22.0800781 C19.6611345,22.1777349 20.1347626,22.2949212 20.7402344,22.4316406 C21.3457062,22.5683601 21.8193342,22.6806636 22.1611328,22.7685547 C22.5029314,22.8564458 22.8105455,22.9248044 23.0839844,22.9736328 C23.3574232,23.0224612 23.6503891,23.0664061 23.9628906,23.1054688 C24.2753922,23.1445314 24.6953099,23.1933591 25.2226562,23.2519531 C25.4375011,23.4667979 25.6132806,23.7207017 25.75,24.0136719 C25.8867194,24.3066421 25.9843747,24.5996079 26.0429687,24.8925781 C26.1015628,25.1855483 26.1162111,25.4638659 26.0869141,25.7275391 C26.057617,25.9912123 25.9746101,26.2011711 25.8378906,26.3574219 C25.857422,26.4355473 25.9111324,26.4697266 25.9990234,26.4599609 C26.0869145,26.4501953 26.179687,26.455078 26.2773437,26.4746094 C26.1406243,26.5722661 26.023438,26.6894524 25.9257812,26.8261719 L25.6328125,27.2363281 C25.5351558,27.3730476 25.4228522,27.4999994 25.2958984,27.6171875 C25.1689447,27.7343756 25.0078135,27.8027343 24.8125,27.8222656 C24.1093715,28.0957045 23.210943,28.10547 22.1171875,27.8515625 C21.023432,27.597655 19.6269616,27.1484407 17.9277344,26.5039063 C17.0878864,26.1914047 16.4042995,25.9082044 15.8769531,25.6542969 C15.3496067,25.4003894 14.890627,25.1513684 14.5,24.9072266 C14.109373,24.6630847 13.7480485,24.3994155 13.4160156,24.1162109 C13.0839827,23.8330064 12.7031271,23.4960957 12.2734375,23.1054688 C12.2148435,23.1250001 12.1806641,23.1640622 12.1708984,23.2226563 C12.1611328,23.2812503 12.1269534,23.3203124 12.0683594,23.3398438 C11.9707026,24.1210977 11.819337,24.7558569 11.6142578,25.2441406 C11.4091787,25.7324243 11.1113301,26.2304662 10.7207031,26.7382813 C10.4082016,26.6796872 10.1982427,26.7089838 10.0908203,26.8261719 C9.9833979,26.94336 9.85156328,27.0507808 9.6953125,27.1484375 C9.49999902,27.1875002 9.35351611,27.1826174 9.25585938,27.1337891 C9.15820264,27.0849607 9.07031289,27.0312503 8.9921875,26.9726563 C8.91406211,26.9140622 8.82617236,26.855469 8.72851562,26.796875 C8.63085889,26.738281 8.47461045,26.7187499 8.25976562,26.7382813 C8.20117158,26.5624991 8.14257842,26.3916024 8.08398438,26.2255859 C8.02539033,26.0595695 7.86914189,25.986328 7.61523438,26.0058594 C7.67382842,25.8300772 7.69335947,25.6787116 7.67382812,25.5517578 C7.65429678,25.4248041 7.6250002,25.3076177 7.5859375,25.2001953 C7.5468748,25.0927729 7.51269546,24.9804693 7.48339844,24.8632813 C7.45410142,24.7460932 7.46874971,24.6093758 7.52734375,24.453125 Z M17.3125,11.0644531 C17.0585925,11.4355487 16.7753922,11.7724594 16.4628906,12.0751953 C16.1503891,12.3779312 15.842775,12.6904281 15.5400391,13.0126953 C15.2373032,13.3349625 14.9687512,13.6865215 14.734375,14.0673828 C14.4999988,14.4482441 14.3339849,14.9023411 14.2363281,15.4296875 C15.0566447,15.3320308 15.9160111,15.1025409 16.8144531,14.7412109 C17.7128951,14.379881 18.562496,14.0332048 19.3632812,13.7011719 C19.2656245,12.978512 19.0117208,12.3974631 18.6015625,11.9580078 C18.1914042,11.5185525 17.761721,11.2207039 17.3125,11.0644531 Z" class="stroke"></path>
</svg>
