<svg viewBox="0 0 33 33" version="1.1" xmlns="http://www.w3.org/2000/svg" xmlns:xlink="http://www.w3.org/1999/xlink">
           <path d="M26.6060364,7.40584566 L16.9247363,7.94405483 L11.3454628,10.312256 L7.65234585,12.2824571 L14.2563179,14.6967213 L17.4738551,15.7173792 L18.8306918,18.759554 L17.4738551,21.0938141 C15.7767992,22.6111976 14.7042868,23.3983083 14.2563179,23.4551462 C13.808349,23.5119841 12.3430893,23.8772552 9.86053889,24.5509595 L6.04620361,25.0798752" id="s" class="stroke"></path>
            <path d="M0,0 L33,0 L33,33 L0,33 L0,0 Z M6.08789062,13.6731773 C6.20507871,13.8880221 6.33691333,14.0784499 6.48339844,14.2444664 C6.62988354,14.4104828 6.77148369,14.5911451 6.90820312,14.7864586 C7.12304795,14.7473959 7.25976533,14.7718097 7.31835938,14.8597007 C7.37695342,14.9475918 7.42578105,15.0501298 7.46484375,15.1673179 C8.14844092,15.4602882 8.85644165,15.6653642 9.58886719,15.7825523 C10.3212927,15.8997404 11.0976521,15.9778646 11.9179688,16.0169273 C12.2500017,16.0950527 12.533202,16.1731769 12.7675781,16.2513023 C13.0019543,16.3294277 13.236327,16.2903656 13.4707031,16.1341148 C13.8613301,16.3489596 14.3398409,16.5442702 14.90625,16.7200523 C15.4726591,16.8958344 16.0097631,17.110676 16.5175781,17.3645836 C16.5566408,17.3645836 16.6005857,17.3743491 16.6494141,17.3938804 C16.6982424,17.4134118 16.7519528,17.4329428 16.8105469,17.4524742 C16.8105469,17.5305996 16.8300779,17.5891927 16.8691406,17.6282554 C16.9082033,17.6673181 16.9472654,17.7014975 16.9863281,17.7307945 C17.0253908,17.7600915 17.0546874,17.7942709 17.0742188,17.8333336 C17.0937501,17.8723963 17.0937501,17.9309894 17.0742188,18.0091148 C17.0156247,18.2239596 16.927735,18.4046219 16.8105469,18.551107 C16.6933588,18.6975921 16.5664069,18.8343095 16.4296875,18.9612632 C16.2929681,19.088217 16.1611334,19.2200516 16.0341797,19.3567711 C15.9072259,19.4934905 15.8144534,19.6595045 15.7558594,19.8548179 C15.2089816,20.1282568 14.6474638,20.4261054 14.0712891,20.7483726 C13.4951143,21.0706399 12.8896516,21.3684884 12.2548828,21.6419273 C11.620114,21.9153662 10.9462926,22.1302078 10.2333984,22.2864586 C9.52050425,22.4427093 8.76367588,22.4817715 7.96289062,22.4036461 C7.68945176,22.5598968 7.52343779,22.7503246 7.46484375,22.9749351 C7.40624971,23.1995456 7.38671865,23.438801 7.40625,23.6927086 C7.42578135,23.9466161 7.45019517,24.195637 7.47949219,24.4397789 C7.50878921,24.6839207 7.47460986,24.8938796 7.37695312,25.0696617 C7.35742178,25.1282557 7.37207007,25.1770834 7.42089844,25.2161461 C7.46972681,25.2552088 7.51855444,25.2893881 7.56738281,25.3186851 C7.61621118,25.3479821 7.64550776,25.3772787 7.65527344,25.4065757 C7.66503911,25.4358728 7.63085977,25.4798176 7.55273438,25.5384117 L7.49414062,25.6555992 C7.47460928,25.6946619 7.46484375,25.753255 7.46484375,25.8313804 C7.56250049,25.8313804 7.60644536,25.8850908 7.59667969,25.9925132 C7.58691401,26.0999357 7.63085889,26.1634116 7.72851562,26.1829429 C7.80664102,26.3977878 7.90917905,26.5833328 8.03613281,26.7395836 C8.16308657,26.8958343 8.30468672,27.0520828 8.4609375,27.2083336 C8.71484502,27.1692709 8.97363149,27.1595053 9.23730469,27.1790367 C9.50097788,27.198568 9.76464712,27.2132163 10.0283203,27.222982 C10.2919935,27.2327477 10.5361317,27.2180994 10.7607422,27.1790367 C10.9853527,27.139974 11.185546,27.0423187 11.3613281,26.8860679 C11.3027341,27.0227874 11.3271479,27.0813805 11.4345703,27.0618492 C11.5419927,27.0423178 11.6347652,27.0423178 11.7128906,27.0618492 C12.5722699,26.8079417 13.4414019,26.490562 14.3203125,26.1097007 C15.1992231,25.7288395 16.0341757,25.2796252 16.8251953,24.7620445 C17.6162149,24.2444638 18.3242156,23.6438839 18.9492188,22.9602867 C19.5742219,22.2766895 20.0527327,21.5052129 20.3847656,20.6458336 C20.5800791,20.1966126 20.6630861,19.7376328 20.6337891,19.2688804 C20.604492,18.8001281 20.5703127,18.2727896 20.53125,17.6868492 C20.3749992,17.3157536 20.1552749,16.9690774 19.8720703,16.6468101 C19.5888658,16.3245429 19.4082035,16.0169288 19.3300781,15.7239586 C19.21289,15.5872391 19.110352,15.5384115 19.0224609,15.5774742 C18.9345699,15.6165369 18.8515629,15.5384127 18.7734375,15.3430992 C18.7929688,15.1282544 18.7636723,14.8889989 18.6855469,14.6253257 C18.6074215,14.3616526 18.4804696,14.1126316 18.3046875,13.8782554 C18.1289054,13.6438793 17.9140638,13.443686 17.6601562,13.2776695 C17.4062487,13.111653 17.1035174,13.0188805 16.7519531,12.9993492 C16.6933591,12.764973 16.5664072,12.5940763 16.3710938,12.4866539 C16.1757803,12.3792315 15.9560559,12.2962245 15.7119141,12.2376304 C15.4677722,12.1790364 15.2285168,12.1155605 14.9941406,12.0472007 C14.7597645,11.978841 14.5742194,11.8567719 14.4375,11.6809898 C14.4765627,11.5638017 14.4667972,11.4856775 14.4082031,11.4466148 C14.3496091,11.4075521 14.330078,11.3391934 14.3496094,11.2415367 C14.7402363,11.202474 15.1113264,11.1487636 15.4628906,11.0804039 C15.8144549,11.0120442 16.0976552,10.8802095 16.3125,10.6848961 C16.5859389,10.7239588 16.8789047,10.6995449 17.1914062,10.6116539 C17.5039078,10.5237628 17.8212875,10.4358731 18.1435547,10.347982 C18.4658219,10.2600909 18.773436,10.2112633 19.0664062,10.2014976 C19.3593765,10.1917319 19.6132802,10.3040355 19.828125,10.5384117 C20.5312535,10.4602863 21.3222612,10.3919276 22.2011719,10.3333336 C23.0800825,10.2747395 23.95898,10.3528637 24.8378906,10.5677086 C25.0917981,10.4309891 25.3359363,10.2845062 25.5703125,10.1282554 C25.8046887,9.97200465 26.0292958,9.81575622 26.2441406,9.65950544 C26.3417974,9.24934714 26.3173835,8.92220197 26.1708984,8.67806012 C26.0244133,8.43391828 25.8339855,8.20442839 25.5996094,7.98958356 C25.580078,7.77473874 25.5117193,7.56966266 25.3945312,7.37434919 C25.2773432,7.17903571 25.1455085,6.9788424 24.9990234,6.77376325 C24.8525383,6.5686841 24.7109382,6.35872526 24.5742188,6.14388044 C24.4374993,5.92903561 24.3300785,5.70442848 24.2519531,5.47005231 C22.9628842,5.09895671 21.7324277,4.94759103 20.5605469,5.01595075 C19.388666,5.08431047 18.2460993,5.26497272 17.1328125,5.55794294 C16.0195257,5.85091315 14.9306694,6.18294108 13.8662109,6.55403669 C12.8017525,6.92513229 11.7421928,7.20833258 10.6875,7.40364606 C10.6484373,7.5013028 10.6679684,7.55013044 10.7460938,7.55013044 C10.8242191,7.55013044 10.8632812,7.58919255 10.8632812,7.66731794 C10.4531229,7.78450602 10.0136742,7.92610617 9.54492188,8.09212262 C9.07616953,8.25813908 8.62695527,8.46321515 8.19726562,8.707357 C7.76757598,8.95149884 7.37207212,9.24934743 7.01074219,9.60091169 C6.64941226,9.95247594 6.38086025,10.3821591 6.20507812,10.8899742 C6.24414082,11.2024757 6.23925806,11.4466139 6.19042969,11.6223961 C6.14160132,11.7981782 6.07812539,12.0423164 6,12.3548179 C6.15625078,12.5696628 6.22460947,12.7698561 6.20507812,12.9554039 C6.18554678,13.1409517 6.14648467,13.3802071 6.08789062,13.6731773 Z" id="mask" ></path>
</svg>
