<svg viewBox="0 0 33 33" version="1.1" xmlns="http://www.w3.org/2000/svg" xmlns:xlink="http://www.w3.org/1999/xlink">
  <rect class="background" x="0" y="0" width="33" height="33"></rect>
  <path d="M6.08789062,13.6731773 C6.14648467,13.3802071 6.18554678,13.1409517 6.20507812,12.9554039 C6.22460947,12.7698561 6.15625078,12.5696628 6,12.3548179 C6.07812539,12.0423164 6.14160132,11.7981782 6.19042969,11.6223961 C6.23925806,11.4466139 6.24414082,11.2024757 6.20507812,10.8899742 C6.38086025,10.3821591 6.64941226,9.95247594 7.01074219,9.60091169 C7.37207212,9.24934743 7.76757598,8.95149884 8.19726562,8.707357 C8.62695527,8.46321515 9.07616953,8.25813908 9.54492188,8.09212262 C10.0136742,7.92610617 10.4531229,7.78450602 10.8632812,7.66731794 C10.8632812,7.58919255 10.8242191,7.55013044 10.7460938,7.55013044 C10.6679684,7.55013044 10.6484373,7.5013028 10.6875,7.40364606 C11.7421928,7.20833258 12.8017525,6.92513229 13.8662109,6.55403669 C14.9306694,6.18294108 16.0195257,5.85091315 17.1328125,5.55794294 C18.2460993,5.26497272 19.388666,5.08431047 20.5605469,5.01595075 C21.7324277,4.94759103 22.9628842,5.09895671 24.2519531,5.47005231 C24.3300785,5.70442848 24.4374993,5.92903561 24.5742188,6.14388044 C24.7109382,6.35872526 24.8525383,6.5686841 24.9990234,6.77376325 C25.1455085,6.9788424 25.2773432,7.17903571 25.3945312,7.37434919 C25.5117193,7.56966266 25.580078,7.77473874 25.5996094,7.98958356 C25.8339855,8.20442839 26.0244133,8.43391828 26.1708984,8.67806012 C26.3173835,8.92220197 26.3417974,9.24934714 26.2441406,9.65950544 C26.0292958,9.81575622 25.8046887,9.97200465 25.5703125,10.1282554 C25.3359363,10.2845062 25.0917981,10.4309891 24.8378906,10.5677086 C23.95898,10.3528637 23.0800825,10.2747395 22.2011719,10.3333336 C21.3222612,10.3919276 20.5312535,10.4602863 19.828125,10.5384117 C19.6132802,10.3040355 19.3593765,10.1917319 19.0664062,10.2014976 C18.773436,10.2112633 18.4658219,10.2600909 18.1435547,10.347982 C17.8212875,10.4358731 17.5039078,10.5237628 17.1914062,10.6116539 C16.8789047,10.6995449 16.5859389,10.7239588 16.3125,10.6848961 C16.0976552,10.8802095 15.8144549,11.0120442 15.4628906,11.0804039 C15.1113264,11.1487636 14.7402363,11.202474 14.3496094,11.2415367 C14.330078,11.3391934 14.3496091,11.4075521 14.4082031,11.4466148 C14.4667972,11.4856775 14.4765627,11.5638017 14.4375,11.6809898 C14.5742194,11.8567719 14.7597645,11.978841 14.9941406,12.0472007 C15.2285168,12.1155605 15.4677722,12.1790364 15.7119141,12.2376304 C15.9560559,12.2962245 16.1757803,12.3792315 16.3710938,12.4866539 C16.5664072,12.5940763 16.6933591,12.764973 16.7519531,12.9993492 C17.1035174,13.0188805 17.4062487,13.111653 17.6601562,13.2776695 C17.9140638,13.443686 18.1289054,13.6438793 18.3046875,13.8782554 C18.4804696,14.1126316 18.6074215,14.3616526 18.6855469,14.6253257 C18.7636723,14.8889989 18.7929688,15.1282544 18.7734375,15.3430992 C18.8515629,15.5384127 18.9345699,15.6165369 19.0224609,15.5774742 C19.110352,15.5384115 19.21289,15.5872391 19.3300781,15.7239586 C19.4082035,16.0169288 19.5888658,16.3245429 19.8720703,16.6468101 C20.1552749,16.9690774 20.3749992,17.3157536 20.53125,17.6868492 C20.5703127,18.2727896 20.604492,18.8001281 20.6337891,19.2688804 C20.6630861,19.7376328 20.5800791,20.1966126 20.3847656,20.6458336 C20.0527327,21.5052129 19.5742219,22.2766895 18.9492188,22.9602867 C18.3242156,23.6438839 17.6162149,24.2444638 16.8251953,24.7620445 C16.0341757,25.2796252 15.1992231,25.7288395 14.3203125,26.1097007 C13.4414019,26.490562 12.5722699,26.8079417 11.7128906,27.0618492 C11.6347652,27.0423178 11.5419927,27.0423178 11.4345703,27.0618492 C11.3271479,27.0813805 11.3027341,27.0227874 11.3613281,26.8860679 C11.185546,27.0423187 10.9853527,27.139974 10.7607422,27.1790367 C10.5361317,27.2180994 10.2919935,27.2327477 10.0283203,27.222982 C9.76464712,27.2132163 9.50097788,27.198568 9.23730469,27.1790367 C8.97363149,27.1595053 8.71484502,27.1692709 8.4609375,27.2083336 C8.30468672,27.0520828 8.16308657,26.8958343 8.03613281,26.7395836 C7.90917905,26.5833328 7.80664102,26.3977878 7.72851562,26.1829429 C7.63085889,26.1634116 7.58691401,26.0999357 7.59667969,25.9925132 C7.60644536,25.8850908 7.56250049,25.8313804 7.46484375,25.8313804 C7.46484375,25.753255 7.47460928,25.6946619 7.49414062,25.6555992 L7.55273438,25.5384117 C7.63085977,25.4798176 7.66503911,25.4358728 7.65527344,25.4065757 C7.64550776,25.3772787 7.61621118,25.3479821 7.56738281,25.3186851 C7.51855444,25.2893881 7.46972681,25.2552088 7.42089844,25.2161461 C7.37207007,25.1770834 7.35742178,25.1282557 7.37695312,25.0696617 C7.47460986,24.8938796 7.50878921,24.6839207 7.47949219,24.4397789 C7.45019517,24.195637 7.42578135,23.9466161 7.40625,23.6927086 C7.38671865,23.438801 7.40624971,23.1995456 7.46484375,22.9749351 C7.52343779,22.7503246 7.68945176,22.5598968 7.96289062,22.4036461 C8.76367588,22.4817715 9.52050425,22.4427093 10.2333984,22.2864586 C10.9462926,22.1302078 11.620114,21.9153662 12.2548828,21.6419273 C12.8896516,21.3684884 13.4951143,21.0706399 14.0712891,20.7483726 C14.6474638,20.4261054 15.2089816,20.1282568 15.7558594,19.8548179 C15.8144534,19.6595045 15.9072259,19.4934905 16.0341797,19.3567711 C16.1611334,19.2200516 16.2929681,19.088217 16.4296875,18.9612632 C16.5664069,18.8343095 16.6933588,18.6975921 16.8105469,18.551107 C16.927735,18.4046219 17.0156247,18.2239596 17.0742188,18.0091148 C17.0937501,17.9309894 17.0937501,17.8723963 17.0742188,17.8333336 C17.0546874,17.7942709 17.0253908,17.7600915 16.9863281,17.7307945 C16.9472654,17.7014975 16.9082033,17.6673181 16.8691406,17.6282554 C16.8300779,17.5891927 16.8105469,17.5305996 16.8105469,17.4524742 C16.7519528,17.4329428 16.6982424,17.4134118 16.6494141,17.3938804 C16.6005857,17.3743491 16.5566408,17.3645836 16.5175781,17.3645836 C16.0097631,17.110676 15.4726591,16.8958344 14.90625,16.7200523 C14.3398409,16.5442702 13.8613301,16.3489596 13.4707031,16.1341148 C13.236327,16.2903656 13.0019543,16.3294277 12.7675781,16.2513023 C12.533202,16.1731769 12.2500017,16.0950527 11.9179688,16.0169273 C11.0976521,15.9778646 10.3212927,15.8997404 9.58886719,15.7825523 C8.85644165,15.6653642 8.14844092,15.4602882 7.46484375,15.1673179 C7.42578105,15.0501298 7.37695342,14.9475918 7.31835938,14.8597007 C7.25976533,14.7718097 7.12304795,14.7473959 6.90820312,14.7864586 C6.77148369,14.5911451 6.62988354,14.4104828 6.48339844,14.2444664 C6.33691333,14.0784499 6.20507871,13.8880221 6.08789062,13.6731773 Z" class="stroke"></path>
</svg>
