<svg viewBox="0 0 14 30" version="1.1" xmlns="http://www.w3.org/2000/svg" xmlns:xlink="http://www.w3.org/1999/xlink">
  <path d="M0.24,0.33 C0.3800007,0.1899993 0.5399991,0.12 0.72,0.12 C0.9400011,0.12 1.0999995,0.1999992 1.2,0.36 L13.56,14.52 C13.6800006,14.6400006 13.74,14.8099989 13.74,15.03 C13.74,15.2500011 13.6800006,15.4199994 13.56,15.54 L1.2,29.73 C1.0999995,29.8700007 0.9400011,29.94 0.72,29.94 C0.519999,29.94 0.3600006,29.8800006 0.24,29.76 C0.0799992,29.5199988 0,29.3400006 0,29.22 C0,28.9999989 0.0599994,28.8300006 0.18,28.71 L12.09,15.03 L0.18,1.35 C0.0599994,1.2299994 0,1.0400013 0,0.78 C0,0.7199997 0.0799992,0.5700012 0.24,0.33 Z" id="arrow-right"></path>
</svg>
