<svg viewBox="0 0 14 30" version="1.1" xmlns="http://www.w3.org/2000/svg" xmlns:xlink="http://www.w3.org/1999/xlink">
  <path d="M13.72,0.33 C13.8800008,0.4900008 13.96,0.6399993 13.96,0.78 C13.96,1.0400013 13.9000006,1.2299994 13.78,1.35 L1.87,15.03 L13.78,28.71 C13.9000006,28.8300006 13.96,28.9999989 13.96,29.22 C13.96,29.3400006 13.8800008,29.5199988 13.72,29.76 C13.5999994,29.8800006 13.4300011,29.94 13.21,29.94 C13.0299991,29.94 12.8900005,29.8700007 12.79,29.73 L0.4,15.54 C0.2799994,15.4199994 0.22,15.2500011 0.22,15.03 C0.22,14.8699992 0.2799994,14.7000009 0.4,14.52 L12.79,0.36 C12.8900005,0.1999992 13.0299991,0.12 13.21,0.12 C13.410001,0.12 13.5799993,0.1899993 13.72,0.33 Z" id="arrow-left"></path>
</svg>
