<svg width="22px" height="22px" viewBox="0 0 22 22" version="1.1" xmlns="http://www.w3.org/2000/svg" xmlns:xlink="http://www.w3.org/1999/xlink">
    <g id="Page-1" stroke="none" stroke-width="1" fill="none" fill-rule="evenodd">
        <g id="A" transform="translate(-6.000000, -5.000000)" fill="#191919">
            <path d="M6,23.9550781 L6.38085938,23.6621094 L6.41015625,23.046875 C6.89843994,21.8554628 7.4013646,20.7128961 7.91894531,19.6191406 C8.43652603,18.5253852 8.97851279,17.4023495 9.54492188,16.25 C9.720704,15.8789044 9.90136626,15.5078144 10.0869141,15.1367188 C10.2724619,14.7656231 10.4531241,14.3847676 10.6289062,13.9941406 C10.6093749,13.9160152 10.5996094,13.8330083 10.5996094,13.7451172 C10.5996094,13.6572261 10.6191404,13.5546881 10.6582031,13.4375 C10.931642,13.046873 11.1513664,12.6953141 11.3173828,12.3828125 C11.4833993,12.0703109 11.6445305,11.7480485 11.8007812,11.4160156 C11.9765634,11.0253887 12.1669912,10.6347676 12.3720703,10.2441406 C12.5771495,9.85351367 12.8359359,9.47265811 13.1484375,9.1015625 L13.3535156,8.80859375 L13.6757812,8.83789062 C13.7539066,8.79882793 13.8369136,8.76464858 13.9248047,8.73535156 C14.0126958,8.70605454 14.1249993,8.69140625 14.2617188,8.69140625 L14.7890625,8.77929688 C15.433597,8.48632666 16.0048803,8.06152622 16.5029297,7.50488281 C17.0009791,6.9482394 17.5039037,6.27930078 18.0117188,5.49804688 L18.3632812,5 L18.8320312,5.29296875 C18.929688,5.35156279 19.0859364,5.41015596 19.3007812,5.46875 C19.5156261,5.52734404 19.7402332,5.59570273 19.9746094,5.67382812 C20.3847677,5.77148486 20.7851543,5.88378843 21.1757812,6.01074219 C21.5664082,6.13769595 21.8691396,6.30859268 22.0839844,6.5234375 L22.2304688,6.78710938 C22.2695314,7.0019542 22.3037108,7.19726475 22.3330078,7.37304688 C22.3623048,7.548829 22.3964842,7.7246085 22.4355469,7.90039062 C22.5136723,8.31054893 22.582031,8.71581831 22.640625,9.11621094 C22.699219,9.51660356 22.7382812,9.96093506 22.7578125,10.4492188 C22.8554692,10.8398457 22.9482417,11.2353496 23.0361328,11.6357422 C23.1240239,12.0361348 23.2070309,12.4316387 23.2851562,12.8222656 C23.382813,13.3886747 23.4902338,13.9306615 23.6074219,14.4482422 C23.72461,14.9658229 23.8808584,15.458982 24.0761719,15.9277344 C24.2714854,15.9277344 24.3886717,15.9374999 24.4277344,15.9570312 C24.6621105,15.8593745 24.9355453,15.8007813 25.2480469,15.78125 L25.6289062,15.7519531 L25.7460938,16.1035156 C25.7851564,16.1621097 25.8339841,16.2207028 25.8925781,16.2792969 C25.9511722,16.3378909 26.0195309,16.3964841 26.0976562,16.4550781 C26.4101578,16.4746095 26.6396477,16.5380854 26.7861328,16.6455078 C26.9326179,16.7529302 27.054687,16.8554683 27.1523438,16.953125 C27.1914064,16.9921877 27.2402341,17.0361326 27.2988281,17.0849609 C27.3574222,17.1337893 27.4062498,17.1679687 27.4453125,17.1875 L27.9726562,17.3925781 L27.6796875,17.9492188 C27.4648427,18.3593771 27.1376975,18.7597637 26.6982422,19.1503906 C26.2587869,19.5410176 25.7656277,19.86328 25.21875,20.1171875 C25.2578127,20.2539069 25.2822265,20.3808588 25.2919922,20.4980469 C25.3017579,20.615235 25.3261717,20.7519523 25.3652344,20.9082031 C25.4433598,21.2988301 25.5068357,21.7040995 25.5556641,22.1240234 C25.6044924,22.5439474 25.5996097,22.9785134 25.5410156,23.4277344 C25.3457021,23.9355494 25.1162123,24.3896464 24.8525391,24.7900391 C24.5888659,25.1904317 24.276369,25.5517562 23.9150391,25.8740234 C23.5537091,26.1962907 23.1484397,26.4599599 22.6992188,26.6650391 C22.2499978,26.8701182 21.7812524,26.9824218 21.2929688,27.0019531 C21.0195299,26.9433591 20.8193366,26.8750004 20.6923828,26.796875 C20.5654291,26.7187496 20.4531255,26.6406254 20.3554688,26.5625 C20.199218,26.4453119 20.0722661,26.3671877 19.9746094,26.328125 L19.59375,26.1523438 L19.7109375,25.7128906 C19.7695315,25.5566398 19.7646488,25.4199225 19.6962891,25.3027344 C19.6279293,25.1855463 19.4863292,25.0292979 19.2714844,24.8339844 C19.193359,24.7753903 19.1250003,24.7119144 19.0664062,24.6435547 C19.0078122,24.575195 18.9394535,24.5019535 18.8613281,24.4238281 L18.2753906,23.75 L19.2421875,23.4863281 C19.8281279,23.3300773 20.218749,23.129884 20.4140625,22.8857422 C20.609376,22.6416003 20.6875002,22.2070344 20.6484375,21.5820312 C20.1601538,21.4843745 19.7597672,21.4697262 19.4472656,21.5380859 C19.1347641,21.6064457 18.8222672,21.6796871 18.5097656,21.7578125 C18.0605446,21.8750006 17.6210959,21.9775386 17.1914062,22.0654297 C16.7617166,22.1533208 16.2929713,22.1972656 15.7851562,22.1972656 C15.4531233,22.1972656 15.1015644,22.167969 14.7304688,22.109375 L14.4082031,22.0800781 L14.3203125,21.7578125 C14.3203125,21.7187498 14.2958987,21.6748049 14.2470703,21.6259766 L14.1152344,21.4941406 C14.0175776,21.3769525 13.9003913,21.2207041 13.7636719,21.0253906 C13.6269524,20.8300771 13.5976559,20.585939 13.6757812,20.2929688 C13.5390618,20.0781239 13.4609376,19.8535168 13.4414062,19.6191406 C13.3632809,19.7753914 13.2998049,19.9267571 13.2509766,20.0732422 C13.2021482,20.2197273 13.1582033,20.3613274 13.1191406,20.4980469 L13.0019531,20.8789062 L12.6210938,20.9375 C12.5820311,20.9765627 12.5478517,21.0351559 12.5185547,21.1132812 C12.4892577,21.1914066 12.4843749,21.2499998 12.5039062,21.2890625 L12.6210938,21.6113281 L12.328125,21.875 C12.2890623,21.933594 12.2402347,21.9824217 12.1816406,22.0214844 C12.1230466,22.0605471 12.0742189,22.0996092 12.0351562,22.1386719 C11.9960936,22.3535167 11.9423832,22.5585928 11.8740234,22.7539062 C11.8056637,22.9492197 11.7324223,23.1445303 11.6542969,23.3398438 C11.5566401,23.6523453 11.4638676,23.9550767 11.3759766,24.2480469 C11.2880855,24.5410171 11.2441406,24.8339829 11.2441406,25.1269531 L11.1269531,25.5078125 C11.0292964,25.6640633 10.9072273,25.7812496 10.7607422,25.859375 C10.6142571,25.9375004 10.4726569,26.0058591 10.3359375,26.0644531 C10.140624,26.1425785 10.0039066,26.2207027 9.92578125,26.2988281 L9.83789062,26.6796875 L9.3984375,26.7382812 C9.14452998,26.7968753 8.96386772,26.8359374 8.85644531,26.8554688 C8.7490229,26.8750001 8.62695381,26.8847656 8.49023438,26.8847656 L8.109375,26.8554688 C7.87499883,26.6210926 7.68457104,26.4404303 7.53808594,26.3134766 C7.39160083,26.1865228 7.2207041,26.0742192 7.02539062,25.9765625 L6.84960938,25.7421875 C6.77148398,25.5859367 6.72265635,25.4443366 6.703125,25.3173828 C6.68359365,25.1904291 6.65429707,25.0585944 6.61523438,24.921875 C6.57617168,24.6679675 6.51757852,24.492188 6.43945312,24.3945312 L6,23.9550781 Z M15.3457031,16.3378906 C15.0722643,16.7285176 14.808595,17.1386697 14.5546875,17.5683594 C14.6914069,17.548828 14.8232416,17.5390625 14.9501953,17.5390625 C15.0771491,17.5390625 15.2089837,17.529297 15.3457031,17.5097656 C16.0293003,17.4707029 16.6640596,17.4218753 17.25,17.3632812 C17.8359404,17.3046872 18.4706997,17.2070319 19.1542969,17.0703125 C18.9980461,16.3476526 18.8271494,15.6103553 18.6416016,14.8583984 C18.4560538,14.1064416 18.2558604,13.3496132 18.0410156,12.5878906 L17.8945312,12.8808594 C17.4062476,13.4082058 16.9375022,13.9746063 16.4882812,14.5800781 C16.0390603,15.1855499 15.6679702,15.761716 15.375,16.3085938 L15.3457031,16.3378906 Z"></path>
        </g>
    </g>
</svg>
