<svg viewBox="0 0 243 25" version="1.1" xmlns="http://www.w3.org/2000/svg" xmlns:xlink="http://www.w3.org/1999/xlink">
        <path d="M0.23828125,20.2167969 L0.619140625,19.9238281 L0.6484375,19.3085938 C1.13672119,18.1171815 1.63964585,16.9746148 2.15722656,15.8808594 C2.67480728,14.7871039 3.21679404,13.6640683 3.78320312,12.5117188 C3.95898525,12.1406231 4.13964751,11.7695331 4.32519531,11.3984375 C4.51074312,11.0273419 4.69140537,10.6464863 4.8671875,10.2558594 C4.84765615,10.177734 4.83789062,10.094727 4.83789062,10.0068359 C4.83789062,9.91894487 4.85742168,9.81640684 4.89648437,9.69921875 C5.16992324,9.3085918 5.38964761,8.95703281 5.55566406,8.64453125 C5.72168052,8.33202969 5.88281172,8.00976729 6.0390625,7.67773438 C6.21484463,7.28710742 6.40527241,6.89648633 6.61035156,6.50585938 C6.81543071,6.11523242 7.07421719,5.73437686 7.38671875,5.36328125 L7.59179687,5.0703125 L7.9140625,5.09960938 C7.99218789,5.06054668 8.07519487,5.02636733 8.16308594,4.99707031 C8.250977,4.96777329 8.36328057,4.953125 8.5,4.953125 L9.02734375,5.04101562 C9.67187822,4.74804541 10.2431616,4.32324497 10.7412109,3.76660156 C11.2392603,3.20995815 11.742185,2.54101953 12.25,1.75976562 L12.6015625,1.26171875 L13.0703125,1.5546875 C13.1679692,1.61328154 13.3242177,1.67187471 13.5390625,1.73046875 C13.7539073,1.78906279 13.9785145,1.85742148 14.2128906,1.93554688 C14.6230489,2.03320361 15.0234355,2.14550718 15.4140625,2.27246094 C15.8046895,2.3994147 16.1074208,2.57031143 16.3222656,2.78515625 L16.46875,3.04882812 C16.5078127,3.26367295 16.541992,3.4589835 16.5712891,3.63476562 C16.6005861,3.81054775 16.6347654,3.98632725 16.6738281,4.16210938 C16.7519535,4.57226768 16.8203122,4.97753706 16.8789062,5.37792969 C16.9375003,5.77832231 16.9765624,6.22265381 16.9960938,6.7109375 C17.0937505,7.10156445 17.186523,7.49706831 17.2744141,7.89746094 C17.3623051,8.29785356 17.4453121,8.69335742 17.5234375,9.08398438 C17.6210942,9.65039346 17.728515,10.1923802 17.8457031,10.7099609 C17.9628912,11.2275417 18.1191396,11.7207008 18.3144531,12.1894531 C18.5097666,12.1894531 18.6269529,12.1992187 18.6660156,12.21875 C18.9003918,12.1210933 19.1738266,12.0625001 19.4863281,12.0429688 L19.8671875,12.0136719 L19.984375,12.3652344 C20.0234377,12.4238284 20.0722653,12.4824216 20.1308594,12.5410156 C20.1894534,12.5996097 20.2578121,12.6582028 20.3359375,12.7167969 C20.6484391,12.7363282 20.877929,12.7998042 21.0244141,12.9072266 C21.1708992,13.014649 21.2929683,13.117187 21.390625,13.2148438 C21.4296877,13.2539064 21.4785153,13.2978513 21.5371094,13.3466797 C21.5957034,13.3955081 21.6445311,13.4296874 21.6835937,13.4492188 L22.2109375,13.6542969 L21.9179687,14.2109375 C21.7031239,14.6210958 21.3759788,15.0214824 20.9365234,15.4121094 C20.4970681,15.8027363 20.003909,16.1249987 19.4570312,16.3789062 C19.4960939,16.5156257 19.5205078,16.6425775 19.5302734,16.7597656 C19.5400391,16.8769537 19.5644529,17.0136711 19.6035156,17.1699219 C19.681641,17.5605488 19.7451169,17.9658182 19.7939453,18.3857422 C19.8427737,18.8056662 19.8378909,19.2402321 19.7792969,19.6894531 C19.5839834,20.1972682 19.3544935,20.6513652 19.0908203,21.0517578 C18.8271471,21.4521504 18.5146502,21.813475 18.1533203,22.1357422 C17.7919904,22.4580094 17.386721,22.7216787 16.9375,22.9267578 C16.488279,23.131837 16.0195337,23.2441405 15.53125,23.2636719 C15.2578111,23.2050778 15.0576178,23.1367191 14.9306641,23.0585938 C14.8037103,22.9804684 14.6914067,22.9023441 14.59375,22.8242188 C14.4374992,22.7070307 14.3105474,22.6289064 14.2128906,22.5898438 L13.8320312,22.4140625 L13.9492187,21.9746094 C14.0078128,21.8183586 14.00293,21.6816412 13.9345703,21.5644531 C13.8662106,21.447265 13.7246104,21.2910166 13.5097656,21.0957031 C13.4316402,21.0371091 13.3632815,20.9736332 13.3046875,20.9052734 C13.2460935,20.8369137 13.1777348,20.7636723 13.0996094,20.6855469 L12.5136719,20.0117188 L13.4804687,19.7480469 C14.0664092,19.5917961 14.4570303,19.3916028 14.6523437,19.1474609 C14.8476572,18.9033191 14.9257814,18.4687531 14.8867187,17.84375 C14.3984351,17.7460933 13.9980484,17.731445 13.6855469,17.7998047 C13.3730453,17.8681644 13.0605484,17.9414059 12.7480469,18.0195312 C12.2988259,18.1367193 11.8593771,18.2392574 11.4296875,18.3271484 C10.9999979,18.4150395 10.5312525,18.4589844 10.0234375,18.4589844 C9.69140459,18.4589844 9.33984561,18.4296878 8.96875,18.3710938 L8.64648437,18.3417969 L8.55859375,18.0195312 C8.55859375,17.9804686 8.53417993,17.9365237 8.48535156,17.8876953 L8.35351562,17.7558594 C8.25585889,17.6386713 8.13867256,17.4824229 8.00195312,17.2871094 C7.86523369,17.0917959 7.83593711,16.8476577 7.9140625,16.5546875 C7.77734307,16.3398427 7.69921885,16.1152355 7.6796875,15.8808594 C7.60156211,16.0371102 7.53808618,16.1884758 7.48925781,16.3349609 C7.44042944,16.481446 7.39648457,16.6230462 7.35742187,16.7597656 L7.24023437,17.140625 L6.859375,17.1992188 C6.8203123,17.2382814 6.78613296,17.2968746 6.75683594,17.375 C6.72753892,17.4531254 6.72265615,17.5117186 6.7421875,17.5507812 L6.859375,17.8730469 L6.56640625,18.1367188 C6.52734355,18.1953128 6.47851592,18.2441404 6.41992187,18.2832031 C6.36132783,18.3222658 6.3125002,18.3613279 6.2734375,18.4003906 C6.2343748,18.6152354 6.1806644,18.8203115 6.11230469,19.015625 C6.04394497,19.2109385 5.97070352,19.406249 5.89257812,19.6015625 C5.79492139,19.9140641 5.70214888,20.2167954 5.61425781,20.5097656 C5.52636675,20.8027358 5.48242187,21.0957017 5.48242187,21.3886719 L5.36523437,21.7695312 C5.26757764,21.925782 5.14550854,22.0429684 4.99902344,22.1210938 C4.85253833,22.1992191 4.71093818,22.2675778 4.57421875,22.3261719 C4.37890527,22.4042973 4.24218789,22.4824215 4.1640625,22.5605469 L4.07617187,22.9414062 L3.63671875,23 C3.38281123,23.058594 3.20214897,23.0976562 3.09472656,23.1171875 C2.98730415,23.1367188 2.86523506,23.1464844 2.72851562,23.1464844 L2.34765625,23.1171875 C2.11328008,22.8828113 1.92285229,22.7021491 1.77636719,22.5751953 C1.62988208,22.4482416 1.45898535,22.335938 1.26367187,22.2382812 L1.08789062,22.0039062 C1.00976523,21.8476555 0.960937598,21.7060553 0.94140625,21.5791016 C0.921874902,21.4521478 0.89257832,21.3203132 0.853515625,21.1835938 C0.81445293,20.9296862 0.755859766,20.7539067 0.677734375,20.65625 L0.23828125,20.2167969 Z M9.58398437,12.5996094 C9.31054551,12.9902363 9.04687627,13.4003885 8.79296875,13.8300781 C8.92968818,13.8105468 9.0615228,13.8007812 9.18847656,13.8007812 C9.31543032,13.8007812 9.44726494,13.7910157 9.58398437,13.7714844 C10.2675815,13.7324217 10.9023408,13.683594 11.4882812,13.625 C12.0742217,13.566406 12.708981,13.4687507 13.3925781,13.3320312 C13.2363273,12.6093714 13.0654306,11.8720741 12.8798828,11.1201172 C12.694335,10.3681603 12.4941417,9.61133193 12.2792969,8.84960938 L12.1328125,9.14257812 C11.6445288,9.66992451 11.1757835,10.2363251 10.7265625,10.8417969 C10.2773415,11.4472687 9.90625146,12.0234348 9.61328125,12.5703125 L9.58398437,12.5996094 Z M24.4428386,23.4101562 C24.2475251,23.4101562 23.9447938,23.3808597 23.5346354,23.3222656 C23.2221339,22.9902327 22.9438164,22.5361357 22.6996745,21.9599609 C22.4555327,21.3837862 22.2699876,20.768558 22.1430339,20.1142578 C22.0160801,19.4599577 21.957487,18.8056673 21.9672526,18.1513672 C21.9770183,17.497067 22.0893219,16.9160182 22.3041667,16.4082031 C22.3041667,16.3886718 22.3969392,16.1542991 22.582487,15.7050781 C22.7680348,15.2558571 23.0072902,14.6845738 23.3002604,13.9912109 C23.5932307,13.2978481 23.9252586,12.5263714 24.2963542,11.6767578 C24.6674498,10.8271442 25.0385398,9.9921916 25.4096354,9.171875 C25.7807311,8.3515584 26.1371728,7.60449556 26.4789714,6.93066406 C26.82077,6.25683257 27.1186186,5.73437686 27.3725261,5.36328125 C27.5483082,5.08984238 27.7094394,4.82617314 27.8559245,4.57226562 C28.0024096,4.31835811 28.1440098,4.08398545 28.2807292,3.86914062 C28.495574,3.51757637 28.6957673,3.1904312 28.8813151,2.88769531 C29.0668629,2.58495942 29.271939,2.31152466 29.4965495,2.06738281 C29.72116,1.82324097 29.970181,1.60839937 30.2436198,1.42285156 C30.5170587,1.23730376 30.8490866,1.07617256 31.2397136,0.939453125 C31.4740897,1.03710986 31.6791658,1.1396479 31.8549479,1.24707031 C32.0307301,1.35449272 32.1869785,1.48632734 32.3236979,1.64257812 L32.4115886,2.05273438 C32.4506513,2.18945381 32.5141272,2.28222632 32.6020183,2.33105469 C32.6899093,2.37988306 32.7631508,2.40429688 32.8217448,2.40429688 C33.0756523,2.46289092 33.2953767,2.52636685 33.4809245,2.59472656 C33.6664723,2.66308628 33.8666656,2.70703115 34.0815104,2.7265625 C34.1596358,2.84375059 34.2328773,2.96093691 34.301237,3.078125 C34.3695967,3.19531309 34.4428382,3.30273389 34.5209636,3.40039062 C34.9115905,3.96679971 35.2338529,4.51366924 35.4877604,5.04101562 C35.741668,5.56836201 35.741668,6.14452813 35.4877604,6.76953125 L35.5170573,7.09179688 C35.6147141,7.22851631 35.6635417,7.35546816 35.6635417,7.47265625 C35.6635417,7.58984434 35.6440106,7.7558583 35.6049479,7.97070312 C35.5854166,8.12695391 35.5707683,8.29785063 35.5610026,8.48339844 C35.551237,8.66894624 35.5756508,8.86913955 35.6342448,9.08398438 L35.8393229,9.31835938 C36.1518245,9.47461016 36.4545559,9.55273438 36.7475261,9.55273438 C37.138153,9.55273438 37.489712,9.46484463 37.8022136,9.2890625 C38.1147151,9.11328037 38.407681,8.93750088 38.6811198,8.76171875 C38.8959646,8.60546797 39.096158,8.47851611 39.2817058,8.38085938 C39.4672536,8.28320264 39.6479158,8.21484395 39.8236979,8.17578125 C40.2338563,7.7851543 40.6098291,7.43847808 40.9516276,7.13574219 C41.2934262,6.8330063 41.649868,6.52539219 42.0209636,6.21289062 C42.7240921,5.64648154 43.407679,5.03613608 44.0717448,4.38183594 C44.7358106,3.72753579 45.2631491,2.91211426 45.6537761,1.93554688 C45.8686209,1.79882744 46.1127591,1.73046875 46.3861979,1.73046875 C46.6596368,1.73046875 46.9330716,1.78417915 47.2065104,1.89160156 C47.4799493,1.99902397 47.7533841,2.12109307 48.0268229,2.2578125 C48.085417,2.2968752 48.1391274,2.32617178 48.1879558,2.34570312 C48.2367841,2.36523447 48.2904945,2.39453105 48.3490886,2.43359375 C48.3490886,2.64843857 48.4369783,2.84374912 48.6127604,3.01953125 C48.7104172,3.09765664 48.7787759,3.14648428 48.8178386,3.16601562 L48.9350261,3.22460938 C49.0912769,3.32226611 49.2231115,3.41015586 49.3305339,3.48828125 C49.4379563,3.56640664 49.5209633,3.67382744 49.5795573,3.81054688 C49.7553395,4.33789326 50.0483053,4.74804541 50.4584636,5.04101562 C50.4194009,5.25586045 50.4291664,5.46581929 50.4877604,5.67089844 C50.5463545,5.87597759 50.6147132,6.0761709 50.6928386,6.27148438 C50.7319013,6.34960977 50.7611979,6.42285122 50.7807292,6.49121094 C50.8002605,6.55957065 50.8295571,6.64257764 50.8686198,6.74023438 L50.2240886,6.68164062 L50.3119792,7.32617188 C50.3705732,7.65820479 50.3461594,8.02929482 50.238737,8.43945312 C50.1313146,8.84961143 50.0092455,9.17187383 49.8725261,9.40625 C49.9115888,9.99219043 49.9311198,10.456053 49.9311198,10.7978516 C49.9311198,11.1396501 49.9115888,11.4570298 49.8725261,11.75 C49.8334634,12.0429702 49.7699875,12.3212877 49.6820964,12.5849609 C49.5942053,12.8486341 49.4819018,13.1269517 49.3451823,13.4199219 C49.4233077,14.9043043 49.252411,16.2617126 48.832487,17.4921875 C48.412563,18.7226624 47.958466,19.8749946 47.4701823,20.9492188 C47.4115883,21.0859382 47.3529951,21.21289 47.2944011,21.3300781 C47.235807,21.4472662 47.1869794,21.5644525 47.1479167,21.6816406 C46.9330719,21.7402347 46.7377613,21.8085934 46.5619792,21.8867188 C46.3861971,21.9648441 46.2201831,22.0527339 46.0639323,22.1503906 C45.8490875,22.2871101 45.6342459,22.3994136 45.4194011,22.4873047 C45.2045563,22.5751958 44.9799491,22.6191406 44.7455729,22.6191406 C43.8080683,21.9355435 43.3246747,20.7539146 43.2953776,19.0742188 C43.2660806,17.3945229 43.6225224,15.2558724 44.3647136,12.6582031 C44.501433,12.5605464 44.5600262,12.4140635 44.5404948,12.21875 L44.5404948,11.8964844 L44.2475261,11.8671875 C44.1498693,11.8671875 44.0619796,11.876953 43.9838542,11.8964844 C43.9057288,11.9160157 43.8471356,12.0039055 43.8080729,12.1601562 C43.1830698,12.6093772 42.5043657,13.0732398 41.7719401,13.5517578 C41.0395146,14.0302758 40.2826862,14.4697246 39.5014323,14.8701172 C38.7201784,15.2705098 37.9242879,15.6025377 37.113737,15.8662109 C36.3031861,16.1298841 35.5170611,16.2617188 34.7553386,16.2617188 C32.8022038,16.2617188 31.3276092,15.265635 30.3315104,13.2734375 L30.0678386,12.7460938 L29.7748698,13.2148438 C29.7162758,13.3125005 29.6137377,13.5029283 29.4672526,13.7861328 C29.3207675,14.0693374 29.1742846,14.3964825 29.0277995,14.7675781 C28.8813144,15.1386737 28.7543625,15.5195293 28.6469401,15.9101562 C28.5395177,16.3007832 28.5053384,16.6425767 28.5444011,16.9355469 C28.3100249,17.1503917 28.080535,17.3945299 27.8559245,17.6679688 C27.631314,17.9414076 27.4701828,18.2539045 27.3725261,18.6054688 C27.3334634,18.7031255 27.3236979,18.795898 27.3432292,18.8837891 C27.3627605,18.9716801 27.3920571,19.0644526 27.4311198,19.1621094 C27.4115885,19.2988288 27.3725264,19.3964841 27.3139323,19.4550781 C27.2553383,19.5136722 27.1869796,19.5722653 27.1088542,19.6308594 C27.0111975,19.7285161 26.9135422,19.8310542 26.8158854,19.9384766 C26.7182287,20.045899 26.630339,20.1679681 26.5522136,20.3046875 C26.5131509,20.4218756 26.4838543,20.5439447 26.4643229,20.6708984 C26.4447916,20.7978522 26.4252605,20.9101558 26.4057292,21.0078125 C26.4057292,21.2226573 26.3764326,21.3691402 26.3178386,21.4472656 C26.1225251,21.8574239 25.9516284,22.1943346 25.8051433,22.4580078 C25.6586582,22.721681 25.517058,22.9218743 25.3803386,23.0585938 C25.2436191,23.1953132 25.102019,23.2880857 24.9555339,23.3369141 C24.8090488,23.3857424 24.6381521,23.4101562 24.4428386,23.4101562 Z M53.1884115,8.84960938 C52.3680949,8.51757646 51.6893908,8.04883115 51.1522787,7.44335938 C50.6151667,6.8378876 50.1806007,6.1250041 49.8485678,5.3046875 C50.0438813,4.77734111 50.3563781,4.33300962 50.7860678,3.97167969 C51.2157574,3.61034976 51.699151,3.30273564 52.2362631,3.04882812 C52.7733751,2.79492061 53.3446585,2.58984453 53.9501303,2.43359375 C54.5556021,2.27734297 55.1415337,2.14062559 55.7079428,2.0234375 C55.8251309,2.0625002 55.883724,2.0625002 55.883724,2.0234375 C55.883724,1.9843748 55.9325517,2.00390586 56.0302084,2.08203125 C56.7333369,1.86718643 57.5438757,1.65722759 58.461849,1.45214844 C59.3798224,1.24706929 60.3563751,1.17382783 61.3915365,1.23242188 C61.528256,1.15429648 61.6942699,1.11035161 61.8895834,1.10058594 C62.0848969,1.09082026 62.289973,1.0859375 62.5048178,1.0859375 C62.7196626,1.0859375 62.9247387,1.08105474 63.1200521,1.07128906 C63.3153656,1.06152339 63.4813796,1.02734404 63.618099,0.96875 C63.7352871,1.10546943 63.9110666,1.18847642 64.1454428,1.21777344 C64.3798189,1.24707046 64.6239571,1.3496085 64.8778646,1.52539062 C64.95599,1.54492197 64.95599,1.51074263 64.8778646,1.42285156 C64.7997393,1.3349605 64.8095048,1.27148457 64.9071615,1.23242188 C65.161069,1.23242188 65.3856762,1.29101504 65.5809896,1.40820312 C65.7763031,1.52539121 65.9569654,1.65722583 66.1229818,1.80371094 C66.2889983,1.95019604 66.4452467,2.08203066 66.5917318,2.19921875 C66.7382169,2.31640684 66.8993481,2.375 67.0751303,2.375 C67.2509124,2.58984482 67.4608712,2.79003813 67.7050131,2.97558594 C67.9491549,3.16113374 68.1835276,3.35156152 68.4081381,3.546875 C68.6327486,3.74218848 68.8182936,3.95703008 68.9647787,4.19140625 C69.1112638,4.42578242 69.1845053,4.68945166 69.1845053,4.98242188 C69.1649739,5.09960996 69.204036,5.16796865 69.3016928,5.1875 C69.3993495,5.20703135 69.4677082,5.26562451 69.5067709,5.36328125 C69.5263022,6.08594111 69.4139987,6.71093486 69.1698568,7.23828125 C68.925715,7.76562764 68.6181009,8.24902124 68.2470053,8.68847656 C67.8759097,9.12793188 67.4804058,9.5429668 67.0604818,9.93359375 C66.6405579,10.3242207 66.2548195,10.7441384 65.9032553,11.1933594 C66.1376314,11.4863296 66.4061834,11.7548816 66.7089193,11.9990234 C67.0116552,12.2431653 67.3192693,12.4824207 67.6317709,12.7167969 C67.9442725,12.951173 68.242121,13.200194 68.5253256,13.4638672 C68.8085301,13.7275404 69.0477855,14.025389 69.243099,14.3574219 C69.3016931,14.47461 69.4286449,14.5527342 69.6239584,14.5917969 C69.6825524,14.826173 69.7655594,15.0654285 69.8729818,15.3095703 C69.9804042,15.5537122 70.0829423,15.7880848 70.180599,16.0126953 C70.2782558,16.2373058 70.3368489,16.4374991 70.3563803,16.6132812 C70.3759116,16.7890634 70.327084,16.9355463 70.2098959,17.0527344 C70.3466153,17.1308598 70.4247396,17.2529289 70.4442709,17.4189453 C70.4638022,17.5849618 70.4638022,17.7167964 70.4442709,17.8144531 C70.0145813,18.3417995 69.7216154,18.7128896 69.5653646,18.9277344 C69.4091139,19.1425792 69.2919275,19.2988276 69.2138021,19.3964844 C69.1356768,19.4941411 69.0575525,19.5820309 68.9794271,19.6601562 C68.9013018,19.7382816 68.7255223,19.8945301 68.4520834,20.1289062 C67.416922,20.7539094 66.3378312,21.3154272 65.2147787,21.8134766 C64.0917262,22.3115259 62.9247457,22.6484366 61.7138021,22.8242188 C61.6161454,22.9609382 61.4745453,23.0732417 61.2889975,23.1611328 C61.1034497,23.2490239 60.8934908,23.3222653 60.6591146,23.3808594 C60.4247385,23.4394534 60.1757175,23.4882811 59.9120443,23.5273438 C59.6483711,23.5664064 59.4091157,23.6054686 59.1942709,23.6445312 C59.0966142,23.6054686 59.0429038,23.5419926 59.0331381,23.4541016 C59.0233724,23.3662105 58.969662,23.3027346 58.8720053,23.2636719 C58.8524739,23.498048 58.7499359,23.6201171 58.5643881,23.6298828 C58.3788403,23.6396485 58.1493504,23.5957036 57.8759115,23.4980469 C57.6024727,23.4003901 57.3192724,23.2636728 57.0263021,23.0878906 C56.7333319,22.9121085 56.4794282,22.7460945 56.2645834,22.5898438 C56.1669267,22.7656259 56.0448576,22.9511709 55.8983725,23.1464844 C55.7518874,23.3417979 55.6005217,23.4785152 55.4442709,23.5566406 C55.170832,23.5175779 54.9706387,23.4882813 54.843685,23.46875 C54.7167312,23.4492187 54.5946621,23.4980463 54.477474,23.6152344 C54.3212232,23.537109 54.2040369,23.454102 54.1259115,23.3662109 L53.8915365,23.1025391 C53.8134111,23.014648 53.7255214,22.9365238 53.6278646,22.8681641 C53.5302079,22.7998043 53.383725,22.7363284 53.1884115,22.6777344 C53.2274742,22.5800776 53.1981776,22.428712 53.1005209,22.2236328 C53.0028642,22.0185537 52.8661468,21.8964846 52.6903646,21.8574219 C52.7880214,21.7011711 52.7489593,21.5009778 52.5731771,21.2568359 C52.397395,21.0126941 52.2606776,20.7343766 52.1630209,20.421875 C52.1825522,20.2851556 52.1972005,20.1435554 52.2069662,19.9970703 C52.2167319,19.8505852 52.2362629,19.7138678 52.26556,19.5869141 C52.294857,19.4599603 52.3388019,19.3476567 52.3973959,19.25 C52.4559899,19.1523433 52.5536452,19.0839846 52.6903646,19.0449219 C52.6708333,18.7910144 52.5927091,18.5468762 52.4559896,18.3125 C52.6317718,18.1757806 52.7489581,18.0048838 52.8075521,17.7998047 C52.8661462,17.5947255 52.9198566,17.3847667 52.968685,17.1699219 C53.0175133,16.9550771 53.0809893,16.7451182 53.1591146,16.5400391 C53.23724,16.3349599 53.3641919,16.1640632 53.539974,16.0273438 C53.5009113,15.9687497 53.4618492,15.9199221 53.4227865,15.8808594 C53.3837238,15.8417967 53.3641928,15.773438 53.3641928,15.6757812 C53.657163,15.1874976 53.8622391,14.7724626 53.9794271,14.4306641 C54.0966152,14.0888655 54.1893877,13.7568375 54.2577475,13.4345703 C54.3261072,13.1123031 54.3993486,12.7656269 54.477474,12.3945312 C54.5555994,12.0234356 54.7118479,11.5546903 54.946224,10.9882812 C54.9266927,10.636717 54.9657548,10.3242201 55.0634115,10.0507812 C55.1610683,9.77734238 55.2636063,9.50879038 55.3710287,9.24511719 C55.4784511,8.98144399 55.5614581,8.70312646 55.6200521,8.41015625 C55.6786462,8.11718604 55.6688807,7.77539258 55.5907553,7.38476562 C55.2587224,7.42382832 55.0194669,7.54101465 54.8729818,7.73632812 C54.7264967,7.9316416 54.6337242,8.19531084 54.5946615,8.52734375 C54.4188794,8.68359453 54.1942723,8.75683599 53.9208334,8.74707031 C53.6473945,8.73730464 53.4032563,8.77148398 53.1884115,8.84960938 Z M66.0790365,14.5039063 C65.3368453,14.0937479 64.6581412,13.8496098 64.0429037,13.7714844 C63.4276663,13.693359 62.8417346,13.6982417 62.2850912,13.7861328 C61.7284478,13.8740239 61.1962266,13.996093 60.6884115,14.1523438 C60.1805965,14.3085945 59.6727891,14.4257809 59.164974,14.5039063 C58.9110665,15.1679721 58.6473973,15.9003866 58.3739584,16.7011719 C58.1005195,17.5019571 57.8368503,18.2831993 57.5829428,19.0449219 C58.2860713,18.9472651 58.9305961,18.8007822 59.5165365,18.6054688 C60.102477,18.4101553 60.6688775,18.1904309 61.2157553,17.9462891 C61.762633,17.7021472 62.299737,17.458009 62.8270834,17.2138672 C63.3544298,16.9697253 63.9012993,16.7402354 64.4677084,16.5253906 C64.5263024,16.2910145 64.6532543,16.1054694 64.8485678,15.96875 C65.0438813,15.8320306 65.2391918,15.7001959 65.4345053,15.5732422 C65.6298188,15.4462884 65.7958327,15.3046883 65.9325521,15.1484375 C66.0692716,14.9921867 66.1180992,14.7773451 66.0790365,14.5039063 Z M64.0282553,5.33398437 C62.8173117,5.29492168 61.6259174,5.40234248 60.4540365,5.65625 C59.2821557,5.91015752 58.2958374,6.28124756 57.4950521,6.76953125 C57.8856791,7.10156416 58.2909485,7.39452998 58.7108725,7.6484375 C59.1307964,7.90234502 59.4481761,8.24413848 59.6630209,8.67382812 C60.6005256,8.30273252 61.4208299,7.82910444 62.1239584,7.25292969 C62.8270869,6.67675493 63.4618462,6.03711289 64.0282553,5.33398437 Z M71.9144532,20.4804688 C71.8167965,20.5000001 71.7289067,20.4267586 71.6507813,20.2607422 C71.572656,20.0947257 71.4847662,19.9335945 71.3871095,19.7773438 L71.7093751,19.7773438 C71.5726557,19.3476541 71.5384763,18.9521502 71.606836,18.5908203 C71.6751958,18.2294904 71.7582027,17.8779314 71.8558595,17.5361328 C71.9535162,17.1943342 72.0365232,16.8623063 72.1048829,16.5400391 C72.1732426,16.2177718 72.1390633,15.8808611 72.0023438,15.5292969 C72.1000006,15.5878909 72.173242,15.5634771 72.2220704,15.4560547 C72.2708988,15.3486323 72.3099609,15.2119149 72.3392579,15.0458984 C72.3685549,14.879882 72.3783205,14.7041025 72.3685548,14.5185547 C72.3587891,14.3330069 72.3441408,14.1816412 72.3246095,14.0644531 C72.578517,13.4589813 72.7787103,12.8339876 72.9251954,12.1894531 C73.0716805,11.5449187 73.2035151,10.9052766 73.3207032,10.2705078 C73.4378913,9.63573901 73.5697259,9.02051079 73.716211,8.42480469 C73.8626961,7.82909858 74.0531239,7.26758076 74.2875001,6.74023438 C74.560939,6.70117168 74.849022,6.73535103 75.1517579,6.84277344 C75.4544938,6.95019585 75.6546871,7.08203047 75.7523438,7.23828125 C76.3578156,6.76952891 76.8949196,6.20312832 77.363672,5.5390625 C77.8324243,4.87499668 78.3060524,4.22558911 78.7845704,3.59082031 C79.2630884,2.95605151 79.8050752,2.39453369 80.410547,1.90625 C81.0160188,1.41796631 81.7679644,1.12500049 82.6664063,1.02734375 C83.1351587,1.35937666 83.6624972,1.71581841 84.2484376,2.09667969 C84.834378,2.47754097 85.3128889,2.95116904 85.6839845,3.51757812 C85.8402353,3.61523486 85.9916009,3.7177729 86.138086,3.82519531 C86.2845711,3.93261772 86.4359368,4.03515576 86.5921876,4.1328125 L86.5921876,4.57226562 C86.8656265,4.82617314 87.0951164,5.12402173 87.2806642,5.46582031 C87.466212,5.8076189 87.6322259,6.16894341 87.778711,6.54980469 C87.9251961,6.93066597 88.0667963,7.3164043 88.2035157,7.70703125 C88.3402352,8.0976582 88.4964836,8.45898271 88.6722657,8.79101562 C88.633203,8.90820371 88.6185547,9.01074175 88.6283204,9.09863281 C88.6380861,9.18652388 88.6576171,9.27441362 88.6869142,9.36230469 C88.7162112,9.45019575 88.740625,9.54785103 88.7601563,9.65527344 C88.7796877,9.76269585 88.7894532,9.89453047 88.7894532,10.0507812 C88.7113278,11.0859427 88.3744171,11.9208953 87.778711,12.5556641 C87.1830049,13.1904329 86.4603559,13.7080058 85.6107423,14.1083984 C84.7611287,14.5087911 83.8578174,14.8505845 82.9007813,15.1337891 C81.9437453,15.4169936 81.0746134,15.7246077 80.2933595,16.0566406 C80.2933595,16.134766 80.3373043,16.1738281 80.4251954,16.1738281 C80.5130865,16.1738281 80.5375003,16.2324213 80.4984376,16.3496094 C81.084378,16.7011736 81.5384751,16.9843739 81.8607423,17.1992188 C82.1830095,17.4140636 82.4857409,17.5947258 82.7689454,17.7412109 C83.05215,17.887696 83.3646468,18.0097651 83.7064454,18.1074219 C84.048244,18.2050786 84.5218721,18.3222649 85.1273438,18.4589844 C85.7328156,18.5957038 86.2064437,18.7080074 86.5482423,18.7958984 C86.8900409,18.8837895 87.197655,18.9521482 87.4710938,19.0009766 C87.7445327,19.0498049 88.0374985,19.0937498 88.3500001,19.1328125 C88.6625017,19.1718752 89.0824193,19.2207028 89.6097657,19.2792969 C89.8246105,19.4941417 90.00039,19.7480454 90.1371095,20.0410156 C90.2738289,20.3339858 90.3714842,20.6269517 90.4300782,20.9199219 C90.4886723,21.2128921 90.5033206,21.4912096 90.4740235,21.7548828 C90.4447265,22.018556 90.3617195,22.2285148 90.2250001,22.3847656 C90.2445314,22.462891 90.2982418,22.4970704 90.3861329,22.4873047 C90.474024,22.477539 90.5667965,22.4824218 90.6644532,22.5019531 C90.5277338,22.5996099 90.4105475,22.7167962 90.3128907,22.8535156 L90.019922,23.2636719 C89.9222652,23.4003913 89.8099617,23.5273432 89.6830079,23.6445312 C89.5560542,23.7617193 89.394923,23.830078 89.1996095,23.8496094 C88.496481,24.1230482 87.5980524,24.1328138 86.504297,23.8789062 C85.4105415,23.6249987 84.0140711,23.1757845 82.3148438,22.53125 C81.4749959,22.2187484 80.791409,21.9355481 80.2640626,21.6816406 C79.7367162,21.4277331 79.2777364,21.1787122 78.8871095,20.9345703 C78.4964825,20.6904285 78.135158,20.4267592 77.8031251,20.1435547 C77.4710922,19.8603501 77.0902366,19.5234395 76.660547,19.1328125 C76.6019529,19.1523438 76.5677736,19.191406 76.5580079,19.25 C76.5482422,19.308594 76.5140629,19.3476562 76.4554688,19.3671875 C76.3578121,20.1484414 76.2064464,20.7832007 76.0013673,21.2714844 C75.7962881,21.7597681 75.4984396,22.25781 75.1078126,22.765625 C74.795311,22.707031 74.5853522,22.7363275 74.4779298,22.8535156 C74.3705074,22.9707037 74.2386728,23.0781245 74.082422,23.1757812 C73.8871085,23.2148439 73.7406256,23.2099612 73.6429688,23.1611328 C73.5453121,23.1123044 73.4574224,23.058594 73.379297,23 C73.3011716,22.941406 73.2132818,22.8828128 73.1156251,22.8242188 C73.0179684,22.7656247 72.8617199,22.7460937 72.6468751,22.765625 C72.5882811,22.5898429 72.5296879,22.4189461 72.4710938,22.2529297 C72.4124998,22.0869132 72.2562514,22.0136718 72.0023438,22.0332031 C72.0609379,21.857421 72.0804689,21.7060553 72.0609376,21.5791016 C72.0414063,21.4521478 72.0121097,21.3349615 71.973047,21.2275391 C71.9339843,21.1201167 71.8998049,21.0078131 71.8705079,20.890625 C71.8412109,20.7734369 71.8558592,20.6367195 71.9144532,20.4804688 Z M81.6996095,7.09179688 C81.445702,7.46289248 81.1625017,7.79980317 80.8500001,8.10253906 C80.5374985,8.40527495 80.2298844,8.71777183 79.9271485,9.04003906 C79.6244126,9.3623063 79.3558606,9.71386528 79.1214845,10.0947266 C78.8871083,10.4755878 78.7210943,10.9296849 78.6234376,11.4570312 C79.4437542,11.3593745 80.3031206,11.1298846 81.2015626,10.7685547 C82.1000046,10.4072248 82.9496055,10.0605485 83.7503907,9.72851562 C83.652734,9.00585576 83.3988303,8.42480688 82.988672,7.98535156 C82.5785137,7.54589624 82.1488305,7.24804766 81.6996095,7.09179688 Z M97.2908855,23.1171875 C96.4315063,23.2343756 95.6502641,23.1953135 94.9471355,23 C94.244007,22.8046865 93.6141305,22.5019552 93.0574871,22.0917969 C92.5008437,21.6816386 92.0223329,21.1933622 91.6219402,20.6269531 C91.2215476,20.060544 90.8944024,19.4550813 90.6404949,18.8105469 C90.4647128,17.4824152 90.5135404,16.2763726 90.7869793,15.1923828 C91.0604182,14.108393 91.4608048,13.1074265 91.9881512,12.1894531 C92.5154976,11.2714798 93.1160775,10.4121134 93.789909,9.61132812 C94.4637405,8.81054287 95.1131481,8.03906621 95.7381512,7.296875 C95.8748706,7.35546904 95.9871742,7.35546904 96.0750652,7.296875 C96.1629563,7.23828096 96.2410805,7.16015674 96.3094402,7.0625 C96.3778,6.96484326 96.4559242,6.86718799 96.5438152,6.76953125 C96.6317063,6.67187451 96.7342443,6.60351582 96.8514324,6.56445312 C96.9295578,6.388671 97.0320959,6.24218809 97.1590496,6.125 C97.2860034,6.00781191 97.4227208,5.89550835 97.5692059,5.78808594 C97.715691,5.68066353 97.8524084,5.56835996 97.9793621,5.45117188 C98.1063159,5.33398379 98.2186194,5.18750088 98.3162762,5.01171875 C98.5115897,4.97265605 98.6824864,4.90429736 98.8289715,4.80664062 C98.9754566,4.70898389 99.112174,4.60156309 99.2391277,4.484375 C99.3660815,4.36718691 99.4979161,4.25976611 99.6346355,4.16210938 C99.771355,4.06445264 99.9373689,3.98632842 100.132682,3.92773438 L100.132682,3.546875 C100.562372,3.35156152 100.874869,3.13671992 101.070182,2.90234375 C101.265496,2.66796758 101.499869,2.36523623 101.773307,1.99414062 C101.988152,1.97460928 102.159049,1.96484375 102.286003,1.96484375 C102.412956,1.96484375 102.61315,1.9453127 102.886589,1.90625 C103.062371,1.57421709 103.228385,1.33007891 103.384636,1.17382812 C103.540886,1.01757734 103.765493,0.841797852 104.058464,0.646484375 C104.351434,0.802735156 104.663931,0.895507666 104.995964,0.924804688 C105.327997,0.954101709 105.630728,1.10546738 105.904167,1.37890625 C105.923698,1.61328242 105.992057,1.79394468 106.109245,1.92089844 C106.226433,2.0478522 106.353385,2.16503853 106.490104,2.27246094 C106.626824,2.37988335 106.763541,2.49218691 106.900261,2.609375 C107.03698,2.72656309 107.12487,2.89257705 107.163932,3.10742188 C107.261589,3.10742188 107.325065,3.08789082 107.354362,3.04882812 C107.383659,3.00976543 107.447135,2.9999999 107.544792,3.01953125 C107.583854,3.17578203 107.622917,3.30273389 107.661979,3.40039062 C107.701042,3.49804736 107.744987,3.58593711 107.793815,3.6640625 C107.842644,3.74218789 107.891471,3.83007764 107.9403,3.92773438 C107.989128,4.02539111 108.033073,4.14257744 108.072136,4.27929688 C107.974479,4.51367305 107.886589,4.76269399 107.808464,5.02636719 C107.730338,5.29004038 107.57409,5.47070264 107.339714,5.56835938 C107.339714,5.72461016 107.398307,5.80761714 107.515495,5.81738281 C107.632683,5.82714849 107.701042,5.90038994 107.720573,6.03710938 C107.740104,6.2128915 107.710808,6.35937441 107.632682,6.4765625 C108.17956,7.39453584 108.677602,8.35644028 109.126823,9.36230469 C109.576044,10.3681691 110.083851,11.3300735 110.650261,12.2480469 C110.611198,12.5214857 110.625846,12.7900377 110.694206,13.0537109 C110.762566,13.3173841 110.850455,13.5761706 110.957878,13.8300781 C111.0653,14.0839856 111.167838,14.3378894 111.265495,14.5917969 C111.363152,14.8457044 111.43151,15.0996081 111.470573,15.3535156 C111.509636,15.6855485 111.509636,16.0419903 111.470573,16.4228516 C111.43151,16.8037128 111.353386,17.1699201 111.236198,17.5214844 C111.11901,17.8730486 110.962762,18.2001938 110.767448,18.5029297 C110.572135,18.8056656 110.347527,19.0351555 110.09362,19.1914062 C109.781118,19.5820332 109.390497,19.8994128 108.921745,20.1435547 C108.452993,20.3876965 108.023309,20.6757796 107.632682,21.0078125 C107.359244,21.1640633 107.066278,21.2763668 106.753776,21.3447266 C106.441275,21.4130863 106.119012,21.4863277 105.786979,21.5644531 C105.533072,21.7207039 105.23034,21.8720696 104.878776,22.0185547 C104.527212,22.1650398 104.165887,22.2968744 103.794792,22.4140625 C103.423696,22.5312506 103.052606,22.6240231 102.681511,22.6923828 C102.310415,22.7607425 101.978387,22.7753908 101.685417,22.7363281 C100.982288,22.9902356 100.298701,23.1660151 99.6346355,23.2636719 C98.9705697,23.3613286 98.1893275,23.312501 97.2908855,23.1171875 Z M97.6717449,12.453125 C97.4764314,12.902346 97.2469416,13.3076154 96.9832684,13.6689453 C96.7195952,14.0302752 96.4608087,14.3964825 96.2069012,14.7675781 C95.9529937,15.1386737 95.7332693,15.5341776 95.5477215,15.9541016 C95.3621737,16.3740255 95.2596356,16.8671847 95.2401043,17.4335938 C95.6307313,17.7656267 96.0945938,17.96582 96.6317059,18.0341797 C97.1688179,18.1025394 97.7205702,18.1123049 98.2869793,18.0634766 C98.8533884,18.0146482 99.419789,17.9414067 99.986198,17.84375 C100.552607,17.7460933 101.060415,17.6972656 101.509636,17.6972656 C101.509636,17.5214835 101.58776,17.4335938 101.744011,17.4335938 C102.564327,17.3554684 103.326038,17.1259785 104.029167,16.7451172 C104.732295,16.3642559 105.46471,15.9785176 106.226432,15.5878906 C106.324089,15.3535145 106.451041,15.1484384 106.607292,14.9726562 C106.763543,14.7968741 106.851432,14.5429704 106.870964,14.2109375 C106.773307,14.0351554 106.709831,13.8886725 106.680534,13.7714844 C106.651237,13.6542963 106.636589,13.4785168 106.636589,13.2441406 C106.128774,12.5410121 105.689325,11.7744182 105.318229,10.9443359 C104.947134,10.1142537 104.51745,9.32812871 104.029167,8.5859375 C103.990104,8.68359424 103.91198,8.78124951 103.794792,8.87890625 C103.677604,8.97656299 103.550652,8.95703193 103.413932,8.8203125 C103.355338,9.01562598 103.267449,9.1474606 103.150261,9.21582031 C103.033072,9.28418003 102.901238,9.31835938 102.754753,9.31835938 C102.608268,9.31835938 102.461785,9.28906279 102.3153,9.23046875 C102.168815,9.17187471 102.03698,9.09375049 101.919792,8.99609375 C101.236195,9.54297148 100.55749,10.07031 99.883659,10.578125 C99.2098275,11.08594 98.599482,11.6816372 98.0526043,12.3652344 C97.9549476,12.4238284 97.8963544,12.4433595 97.876823,12.4238281 C97.8572917,12.4042968 97.788933,12.4140623 97.6717449,12.453125 Z M112.091146,9.78710938 C112.14974,9.49413916 112.188802,9.25488374 112.208333,9.06933594 C112.227865,8.88378813 112.159506,8.68359482 112.003255,8.46875 C112.081381,8.15624844 112.144857,7.91211025 112.193685,7.73632812 C112.242513,7.560546 112.247396,7.31640781 112.208333,7.00390625 C112.384116,6.49609121 112.652668,6.06640801 113.013998,5.71484375 C113.375327,5.36327949 113.770831,5.06543091 114.200521,4.82128906 C114.630211,4.57714722 115.079425,4.37207114 115.548177,4.20605469 C116.01693,4.04003823 116.456378,3.89843809 116.866537,3.78125 C116.866537,3.70312461 116.827475,3.6640625 116.749349,3.6640625 C116.671224,3.6640625 116.651693,3.61523486 116.690755,3.51757813 C117.745448,3.32226465 118.805008,3.03906436 119.869466,2.66796875 C120.933925,2.29687314 122.022781,1.96484521 123.136068,1.671875 C124.249355,1.37890479 125.391921,1.19824253 126.563802,1.12988281 C127.735683,1.0615231 128.96614,1.21288877 130.255208,1.58398438 C130.333334,1.81836055 130.440755,2.04296768 130.577474,2.2578125 C130.714194,2.47265732 130.855794,2.68261616 131.002279,2.88769531 C131.148764,3.09277446 131.280599,3.29296777 131.397787,3.48828125 C131.514975,3.68359473 131.583333,3.8886708 131.602865,4.10351562 C131.837241,4.31836045 132.027669,4.54785034 132.174154,4.79199219 C132.320639,5.03613403 132.345053,5.3632792 132.247396,5.7734375 C132.032551,5.92968828 131.807944,6.08593672 131.573568,6.2421875 C131.339192,6.39843828 131.095054,6.54492119 130.841146,6.68164062 C129.962235,6.4667958 129.083338,6.38867158 128.204427,6.44726562 C127.325517,6.50585967 126.534509,6.57421836 125.83138,6.65234375 C125.616536,6.41796758 125.362632,6.30566401 125.069662,6.31542969 C124.776691,6.32519536 124.469077,6.374023 124.14681,6.46191406 C123.824543,6.54980513 123.507163,6.63769487 123.194662,6.72558594 C122.88216,6.813477 122.589194,6.83789082 122.315755,6.79882812 C122.100911,6.9941416 121.81771,7.12597622 121.466146,7.19433594 C121.114582,7.26269565 120.743492,7.31640605 120.352865,7.35546875 C120.333333,7.45312549 120.352864,7.52148418 120.411458,7.56054688 C120.470053,7.59960957 120.479818,7.67773379 120.440755,7.79492188 C120.577475,7.970704 120.76302,8.0927731 120.997396,8.16113281 C121.231772,8.22949253 121.471028,8.29296846 121.715169,8.3515625 C121.959311,8.41015654 122.179036,8.49316353 122.374349,8.60058594 C122.569663,8.70800835 122.696614,8.87890508 122.755208,9.11328125 C123.106773,9.1328126 123.409504,9.22558511 123.663412,9.39160156 C123.917319,9.55761802 124.132161,9.75781133 124.307943,9.9921875 C124.483725,10.2265637 124.610677,10.4755846 124.688802,10.7392578 C124.766928,11.002931 124.796224,11.2421864 124.776693,11.4570312 C124.854818,11.6523447 124.937825,11.7304689 125.025716,11.6914062 C125.113607,11.6523436 125.216145,11.7011712 125.333333,11.8378906 C125.411459,12.1308608 125.592121,12.438475 125.875326,12.7607422 C126.15853,13.0830094 126.378255,13.4296856 126.534505,13.8007812 C126.573568,14.3867217 126.607747,14.9140602 126.637044,15.3828125 C126.666341,15.8515648 126.583334,16.3105446 126.388021,16.7597656 C126.055988,17.6191449 125.577477,18.3906216 124.952474,19.0742188 C124.327471,19.7578159 123.61947,20.3583958 122.828451,20.8759766 C122.037431,21.3935573 121.202479,21.8427715 120.323568,22.2236328 C119.444657,22.6044941 118.575525,22.9218737 117.716146,23.1757812 C117.638021,23.1562499 117.545248,23.1562499 117.437826,23.1757812 C117.330403,23.1953126 117.305989,23.1367194 117.364583,23 C117.188801,23.1562508 116.988608,23.2539061 116.763998,23.2929688 C116.539387,23.3320314 116.295249,23.3466797 116.031576,23.3369141 C115.767902,23.3271484 115.504233,23.3125001 115.24056,23.2929688 C114.976887,23.2734374 114.7181,23.2832029 114.464193,23.3222656 C114.307942,23.1660148 114.166342,23.0097664 114.039388,22.8535156 C113.912434,22.6972648 113.809896,22.5117198 113.731771,22.296875 C113.634114,22.2773437 113.590169,22.2138677 113.599935,22.1064453 C113.609701,21.9990229 113.565756,21.9453125 113.468099,21.9453125 C113.468099,21.8671871 113.477865,21.8085939 113.497396,21.7695312 L113.55599,21.6523438 C113.634115,21.5937497 113.668294,21.5498048 113.658529,21.5205078 C113.648763,21.4912108 113.619467,21.4619142 113.570638,21.4326172 C113.52181,21.4033202 113.472982,21.3691408 113.424154,21.3300781 C113.375325,21.2910154 113.360677,21.2421878 113.380208,21.1835938 C113.477865,21.0078116 113.512045,20.7978528 113.482748,20.5537109 C113.453451,20.3095691 113.429037,20.0605481 113.409505,19.8066406 C113.389974,19.5527331 113.409505,19.3134777 113.468099,19.0888672 C113.526693,18.8642567 113.692707,18.6738289 113.966146,18.5175781 C114.766931,18.5957035 115.52376,18.5566414 116.236654,18.4003906 C116.949548,18.2441398 117.623369,18.0292982 118.258138,17.7558594 C118.892907,17.4824205 119.49837,17.1845719 120.074544,16.8623047 C120.650719,16.5400375 121.212237,16.2421889 121.759115,15.96875 C121.817709,15.7734365 121.910481,15.6074226 122.037435,15.4707031 C122.164389,15.3339837 122.296223,15.2021491 122.432943,15.0751953 C122.569662,14.9482416 122.696614,14.8115242 122.813802,14.6650391 C122.93099,14.518554 123.01888,14.3378917 123.077474,14.1230469 C123.097005,14.0449215 123.097005,13.9863283 123.077474,13.9472656 C123.057943,13.9082029 123.028646,13.8740236 122.989583,13.8447266 C122.950521,13.8154295 122.911459,13.7812502 122.872396,13.7421875 C122.833333,13.7031248 122.813802,13.6445316 122.813802,13.5664062 C122.755208,13.5468749 122.701498,13.5273438 122.652669,13.5078125 C122.603841,13.4882812 122.559896,13.4785156 122.520833,13.4785156 C122.013018,13.2246081 121.475914,13.0097665 120.909505,12.8339844 C120.343096,12.6582022 119.864585,12.4628917 119.473958,12.2480469 C119.239582,12.4042977 119.00521,12.4433598 118.770833,12.3652344 C118.536457,12.287109 118.253257,12.2089848 117.921224,12.1308594 C117.100908,12.0917967 116.324548,12.0136725 115.592123,11.8964844 C114.859697,11.7792963 114.151696,11.5742202 113.468099,11.28125 C113.429036,11.1640619 113.380209,11.0615239 113.321615,10.9736328 C113.263021,10.8857417 113.126303,10.8613279 112.911458,10.9003906 C112.774739,10.7050771 112.633139,10.5244149 112.486654,10.3583984 C112.340169,10.192382 112.208334,10.0019542 112.091146,9.78710938 Z M130.377735,22.0039062 C130.221484,21.8476555 130.10918,21.6621104 130.040821,21.4472656 C129.972461,21.2324208 129.81133,21.0566413 129.557422,20.9199219 C129.518359,20.6269517 129.464649,20.290041 129.396289,19.9091797 C129.32793,19.5283184 129.259571,19.1376973 129.191211,18.7373047 C129.122851,18.3369121 129.074024,17.9365254 129.044727,17.5361328 C129.01543,17.1357402 129.030078,16.7695329 129.088672,16.4375 C129.127735,16.2617179 129.191211,16.0957039 129.279102,15.9394531 C129.366993,15.7832023 129.454883,15.6318367 129.542774,15.4853516 C129.630665,15.3388665 129.699023,15.1875008 129.747852,15.03125 C129.79668,14.8749992 129.801563,14.7187508 129.7625,14.5625 C129.879688,14.5429687 129.95293,14.4794927 129.982227,14.3720703 C130.011524,14.2646479 130.104296,14.2304686 130.260547,14.2695312 C130.397267,13.8398416 130.543749,13.439455 130.7,13.0683594 C130.856251,12.6972638 131.022265,12.3359393 131.198047,11.984375 C131.373829,11.6328107 131.554491,11.276369 131.740039,10.9150391 C131.925587,10.5537091 132.096484,10.1484397 132.252735,9.69921875 C131.920702,9.38671719 131.681446,9.04980649 131.534961,8.68847656 C131.388476,8.32714663 131.276172,7.96093936 131.198047,7.58984375 C131.119922,7.21874814 131.061329,6.84277534 131.022266,6.46191406 C130.983203,6.08105278 130.905079,5.69531445 130.787891,5.3046875 C131.022267,4.95312324 131.305467,4.66504019 131.6375,4.44042969 C131.969533,4.21581919 132.33574,4.03027417 132.736133,3.88378906 C133.136526,3.73730396 133.571092,3.62011763 134.039844,3.53222656 C134.508596,3.4443355 135.006638,3.34179746 135.533985,3.22460938 C136.471489,2.93163916 137.311325,2.70214927 138.053516,2.53613281 C138.795707,2.37011636 139.518356,2.23339897 140.221485,2.12597656 C140.924613,2.01855415 141.657028,1.92089888 142.41875,1.83300781 C143.180473,1.74511675 144.05937,1.61328213 145.055469,1.4375 C145.075,1.49609404 145.10918,1.52539062 145.158008,1.52539062 L145.348438,1.52539062 C145.407032,1.66211006 145.514453,1.73046875 145.670703,1.73046875 C145.670703,1.67187471 145.665821,1.61816431 145.656055,1.56933594 C145.646289,1.52050757 145.641406,1.4765627 145.641406,1.4375 C145.680469,1.4375 145.73418,1.44726553 145.802539,1.46679688 C145.870899,1.48632822 145.929492,1.50585928 145.978321,1.52539062 C146.027149,1.54492197 146.071094,1.54003921 146.110156,1.51074219 C146.149219,1.48144517 146.158985,1.41796924 146.139453,1.3203125 C146.373829,1.7304708 146.676561,2.06738149 147.047656,2.33105469 C147.418752,2.59472788 147.828904,2.82421777 148.278125,3.01953125 C148.297657,3.19531338 148.302539,3.32226523 148.292774,3.40039062 C148.283008,3.47851602 148.26836,3.55175747 148.248828,3.62011719 C148.229297,3.6884769 148.219531,3.76660112 148.219531,3.85449219 C148.219531,3.94238325 148.239063,4.06445234 148.278125,4.22070312 C147.965624,4.74804951 147.609182,5.15820166 147.208789,5.45117188 C146.808397,5.74414209 146.383596,5.96874922 145.934375,6.125 C145.485154,6.28125078 145.011526,6.39843711 144.513477,6.4765625 C144.015427,6.55468789 143.50762,6.63769487 142.990039,6.72558594 C142.472459,6.813477 141.950003,6.93554609 141.422656,7.09179688 C140.89531,7.24804766 140.377737,7.48242031 139.869922,7.79492188 C139.713671,7.73632783 139.572071,7.71191401 139.445117,7.72167969 C139.318164,7.73144536 139.186329,7.75585918 139.04961,7.79492188 C138.91289,7.83398457 138.761524,7.87304668 138.595508,7.91210938 C138.429492,7.95117207 138.229298,7.95117207 137.994922,7.91210938 C137.838671,8.04882881 137.658009,8.14648408 137.45293,8.20507812 C137.247851,8.26367217 137.037892,8.32226533 136.823047,8.38085938 C136.920704,8.5957042 136.964649,8.8105458 136.954883,9.02539062 C136.945117,9.24023545 136.969531,9.42578047 137.028125,9.58203125 C137.848442,9.66015664 138.756636,9.65527388 139.752735,9.56738281 C140.748833,9.47949175 141.725386,9.41601582 142.682422,9.37695312 C142.701953,9.47460986 142.692188,9.54296855 142.653125,9.58203125 C142.614063,9.62109395 142.594531,9.68945264 142.594531,9.78710938 C142.770314,9.90429746 142.936328,10.0507804 143.092578,10.2265625 C143.248829,10.4023446 143.40996,10.5732414 143.575977,10.7392578 C143.741993,10.9052743 143.91289,11.0419917 144.088672,11.1494141 C144.264454,11.2568365 144.46953,11.3007813 144.703906,11.28125 C144.801563,11.4765635 144.869922,11.6816396 144.908985,11.8964844 C144.948047,12.1113292 144.918751,12.3359363 144.821094,12.5703125 C144.430467,12.82422 144.049611,13.0830065 143.678516,13.3466797 C143.30742,13.6103529 142.921682,13.8496083 142.521289,14.0644531 C142.120897,14.2792979 141.686331,14.4550774 141.217578,14.5917969 C140.748826,14.7285163 140.241019,14.7871095 139.694141,14.7675781 L139.445117,14.7675781 C139.376758,14.7675781 139.293751,14.728516 139.196094,14.6503906 C139.00078,14.7480474 138.741994,14.7822267 138.419727,14.7529297 C138.09746,14.7236327 137.828908,14.757812 137.614063,14.8554688 C137.340624,14.757812 137.023244,14.7089844 136.661914,14.7089844 C136.300584,14.7089844 135.983205,14.6601567 135.709766,14.5625 C135.358202,15.070315 135.026174,15.6025363 134.713672,16.1591797 C134.401171,16.7158231 134.127736,17.3066375 133.89336,17.9316406 C134.694145,18.0488287 135.358201,18.0976563 135.885547,18.078125 C136.412893,18.0585937 136.910935,18.0195315 137.379688,17.9609375 C137.84844,17.9023435 138.331834,17.8437503 138.829883,17.7851562 C139.327932,17.7265622 139.938278,17.7070312 140.660938,17.7265625 C141.149221,17.4921863 141.710739,17.3310551 142.345508,17.2431641 C142.980277,17.155273 143.571091,17.0234384 144.117969,16.8476562 C144.313282,16.9062503 144.479296,17.0185539 144.616016,17.1845703 C144.752735,17.3505868 144.88457,17.5166007 145.011524,17.6826172 C145.138477,17.8486336 145.270312,17.9902338 145.407031,18.1074219 C145.543751,18.22461 145.71953,18.2636721 145.934375,18.2246094 C146.032032,18.3222661 146.095508,18.4394524 146.124805,18.5761719 C146.154102,18.7128913 146.183398,18.8398432 146.212696,18.9570312 C146.241993,19.0742193 146.285937,19.1669918 146.344531,19.2353516 C146.403125,19.3037113 146.510546,19.3281251 146.666797,19.3085938 C146.295701,20.0703163 145.880667,20.6562479 145.42168,21.0664062 C144.962693,21.4765646 144.44512,21.7939442 143.868946,22.0185547 C143.292771,22.2431652 142.648246,22.4091792 141.935352,22.5166016 C141.222458,22.624024 140.426567,22.7558586 139.547656,22.9121094 C139.332812,22.9511721 139.152149,22.9462893 139.005664,22.8974609 C138.859179,22.8486326 138.707813,22.8242188 138.551563,22.8242188 C138.004685,22.9218755 137.355277,23.0195308 136.603321,23.1171875 C135.851364,23.2148442 135.094535,23.2539063 134.332813,23.234375 C133.57109,23.2148437 132.838676,23.1171884 132.135547,22.9414062 C131.432419,22.7656241 130.846487,22.4531272 130.377735,22.0039062 Z M148.957292,21.9160156 C148.879167,21.8378902 148.810808,21.7451177 148.752214,21.6376953 C148.69362,21.5302729 148.644792,21.3886728 148.605729,21.2128906 C148.332291,20.8808577 148.117449,20.5000021 147.961198,20.0703125 C147.804947,19.6406229 147.697527,19.1962914 147.638933,18.7373047 C147.580338,18.278318 147.570573,17.8144555 147.609636,17.3457031 C147.648698,16.8769508 147.717057,16.4375021 147.814714,16.0273438 C147.873308,15.8320303 147.922135,15.6269542 147.961198,15.4121094 C148.058855,15.0410138 148.15651,14.6748065 148.254167,14.3134766 C148.351824,13.9521466 148.498307,13.654298 148.69362,13.4199219 C148.615495,13.2050771 148.62526,12.9707044 148.722917,12.7167969 C148.820574,12.4628894 148.918229,12.2285167 149.015886,12.0136719 C149.054948,11.9550778 149.084245,11.9013674 149.103776,11.8525391 C149.123308,11.8037107 149.142839,11.7597658 149.16237,11.7207031 C149.396746,11.037106 149.626236,10.3779329 149.850847,9.74316406 C150.075457,9.10839526 150.295181,8.4980498 150.510026,7.91210937 C150.900653,6.83788525 151.276626,5.7832083 151.637956,4.74804688 C151.999286,3.71288545 152.326431,2.60938086 152.619401,1.4375 C152.775652,1.32031191 152.912369,1.2421877 153.029558,1.203125 C153.06862,1.18359365 153.117448,1.1640626 153.176042,1.14453125 C153.234636,1.1249999 153.302995,1.11523438 153.38112,1.11523438 C153.791278,1.3300792 154.274672,1.53027251 154.831315,1.71582031 C155.387959,1.90136812 155.861587,1.99414062 156.252214,1.99414062 L156.750261,2.43359375 C157.004168,2.72656396 157.223893,3.03417808 157.40944,3.35644531 C157.594988,3.67871255 157.648699,4.09374746 157.570573,4.6015625 C157.453385,4.77734463 157.35573,4.88476543 157.277604,4.92382812 C157.160416,5.37304912 157.033464,5.76855298 156.896745,6.11035156 C156.760026,6.45215015 156.623308,6.77929531 156.486589,7.09179688 C156.330338,7.44336113 156.183855,7.79492012 156.047136,8.14648438 C155.910416,8.49804863 155.79323,8.92773184 155.695573,9.43554688 C155.578385,9.57226631 155.505144,9.68945264 155.475847,9.78710938 C155.44655,9.88476611 155.41237,9.98242139 155.373308,10.0800781 C155.334245,10.1972662 155.285417,10.3193353 155.226823,10.4462891 C155.168229,10.5732428 155.080339,10.6855464 154.963151,10.7832031 C154.885026,11.3886749 154.76784,11.881834 154.611589,12.2626953 C154.455338,12.6435566 154.29909,13.0195294 154.142839,13.390625 C153.8694,14.0742222 153.615496,14.7529263 153.38112,15.4267578 C153.146744,16.1005893 153.010026,16.8671832 152.970964,17.7265625 C153.20534,17.6679685 153.420182,17.6386719 153.615495,17.6386719 C153.869403,17.6386719 154.113541,17.677734 154.347917,17.7558594 C155.051045,17.4042951 155.817639,17.1894535 156.647722,17.1113281 C157.477804,17.0332027 158.302991,16.9843751 159.123308,16.9648438 C159.806905,16.9648438 160.441664,16.9355472 161.027604,16.8769531 C161.222918,17.0136726 161.34987,17.086914 161.408464,17.0966797 C161.467058,17.1064454 161.564713,17.1113281 161.701433,17.1113281 L161.877214,17.1113281 C161.935808,17.1113281 162.013932,17.1210937 162.111589,17.140625 C162.385028,17.4140639 162.648697,17.6044917 162.902604,17.7119141 C163.156512,17.8193365 163.429947,17.9218745 163.722917,18.0195312 C163.976824,18.117188 164.225845,18.219726 164.469987,18.3271484 C164.714129,18.4345708 164.953384,18.576171 165.187761,18.7519531 L165.451433,20.2460938 C165.607683,20.4609386 165.676042,20.6074215 165.656511,20.6855469 C165.656511,20.8417977 165.617449,20.978515 165.539323,21.0957031 L165.597917,21.4765625 C165.226821,21.5546879 164.982683,21.6376949 164.865495,21.7255859 C164.748307,21.813477 164.621355,21.9257806 164.484636,22.0625 C164.269791,22.0820313 164.064715,22.0917969 163.869401,22.0917969 C163.478774,22.0917969 163.078388,22.15039 162.668229,22.2675781 C162.082289,22.0527333 161.437764,21.9453125 160.734636,21.9453125 C160.461197,21.9453125 160.182879,21.955078 159.899675,21.9746094 C159.61647,21.9941407 159.338153,22.0234373 159.064714,22.0625 C158.771744,22.1015627 158.478778,22.135742 158.185808,22.1650391 C157.892837,22.1943361 157.599871,22.2089844 157.306901,22.2089844 C157.072525,22.2480471 156.906511,22.2773437 156.808854,22.296875 C156.711198,22.3164063 156.613542,22.3457029 156.515886,22.3847656 C155.85182,22.5996104 155.134054,22.8144521 154.362565,23.0292969 C153.591077,23.2441417 152.814718,23.3515625 152.033464,23.3515625 C150.881114,23.3515625 149.953389,23.0585967 149.250261,22.4726562 C149.172135,22.2968741 149.113542,22.1796878 149.074479,22.1210938 C149.035417,22.0624997 148.996355,21.994141 148.957292,21.9160156 Z M167.683334,21.9160156 C167.605208,21.8378902 167.53685,21.7451177 167.478255,21.6376953 C167.419661,21.5302729 167.370834,21.3886728 167.331771,21.2128906 C167.058332,20.8808577 166.843491,20.5000021 166.68724,20.0703125 C166.530989,19.6406229 166.423568,19.1962914 166.364974,18.7373047 C166.30638,18.278318 166.296615,17.8144555 166.335677,17.3457031 C166.37474,16.8769508 166.443099,16.4375021 166.540755,16.0273438 C166.59935,15.8320303 166.648177,15.6269542 166.68724,15.4121094 C166.784897,15.0410138 166.882552,14.6748065 166.980209,14.3134766 C167.077865,13.9521466 167.224348,13.654298 167.419662,13.4199219 C167.341536,13.2050771 167.351302,12.9707044 167.448959,12.7167969 C167.546615,12.4628894 167.644271,12.2285167 167.741927,12.0136719 C167.78099,11.9550778 167.810287,11.9013674 167.829818,11.8525391 C167.849349,11.8037107 167.86888,11.7597658 167.888412,11.7207031 C168.122788,11.037106 168.352278,10.3779329 168.576888,9.74316406 C168.801499,9.10839526 169.021223,8.4980498 169.236068,7.91210937 C169.626695,6.83788525 170.002668,5.7832083 170.363998,4.74804688 C170.725328,3.71288545 171.052473,2.60938086 171.345443,1.4375 C171.501694,1.32031191 171.638411,1.2421877 171.755599,1.203125 C171.794662,1.18359365 171.84349,1.1640626 171.902084,1.14453125 C171.960678,1.1249999 172.029036,1.11523438 172.107162,1.11523438 C172.51732,1.3300792 173.000714,1.53027251 173.557357,1.71582031 C174.114,1.90136812 174.587629,1.99414062 174.978255,1.99414062 L175.476302,2.43359375 C175.73021,2.72656396 175.949934,3.03417808 176.135482,3.35644531 C176.32103,3.67871255 176.37474,4.09374746 176.296615,4.6015625 C176.179427,4.77734463 176.081771,4.88476543 176.003646,4.92382812 C175.886458,5.37304912 175.759506,5.76855298 175.622787,6.11035156 C175.486067,6.45215015 175.34935,6.77929531 175.21263,7.09179688 C175.05638,7.44336113 174.909897,7.79492012 174.773177,8.14648438 C174.636458,8.49804863 174.519272,8.92773184 174.421615,9.43554688 C174.304427,9.57226631 174.231185,9.68945264 174.201888,9.78710938 C174.172591,9.88476611 174.138412,9.98242139 174.099349,10.0800781 C174.060287,10.1972662 174.011459,10.3193353 173.952865,10.4462891 C173.894271,10.5732428 173.806381,10.6855464 173.689193,10.7832031 C173.611068,11.3886749 173.493881,11.881834 173.33763,12.2626953 C173.18138,12.6435566 173.025131,13.0195294 172.86888,13.390625 C172.595442,14.0742222 172.341538,14.7529263 172.107162,15.4267578 C171.872786,16.1005893 171.736068,16.8671832 171.697005,17.7265625 C171.931382,17.6679685 172.146223,17.6386719 172.341537,17.6386719 C172.595444,17.6386719 172.839582,17.677734 173.073959,17.7558594 C173.777087,17.4042951 174.543681,17.1894535 175.373763,17.1113281 C176.203846,17.0332027 177.029033,16.9843751 177.849349,16.9648438 C178.532946,16.9648438 179.167706,16.9355472 179.753646,16.8769531 C179.94896,17.0136726 180.075911,17.086914 180.134505,17.0966797 C180.1931,17.1064454 180.290755,17.1113281 180.427474,17.1113281 L180.603255,17.1113281 C180.66185,17.1113281 180.739974,17.1210937 180.83763,17.140625 C181.111069,17.4140639 181.374739,17.6044917 181.628646,17.7119141 C181.882554,17.8193365 182.155988,17.9218745 182.448959,18.0195312 C182.702866,18.117188 182.951887,18.219726 183.196029,18.3271484 C183.440171,18.4345708 183.679426,18.576171 183.913802,18.7519531 L184.177474,20.2460938 C184.333725,20.4609386 184.402084,20.6074215 184.382552,20.6855469 C184.382552,20.8417977 184.34349,20.978515 184.265365,21.0957031 L184.323959,21.4765625 C183.952863,21.5546879 183.708725,21.6376949 183.591537,21.7255859 C183.474349,21.813477 183.347397,21.9257806 183.210677,22.0625 C182.995833,22.0820313 182.790756,22.0917969 182.595443,22.0917969 C182.204816,22.0917969 181.804429,22.15039 181.394271,22.2675781 C180.808331,22.0527333 180.163806,21.9453125 179.460677,21.9453125 C179.187238,21.9453125 178.908921,21.955078 178.625716,21.9746094 C178.342512,21.9941407 178.064194,22.0234373 177.790755,22.0625 C177.497785,22.1015627 177.204819,22.135742 176.911849,22.1650391 C176.618879,22.1943361 176.325913,22.2089844 176.032943,22.2089844 C175.798567,22.2480471 175.632553,22.2773437 175.534896,22.296875 C175.437239,22.3164063 175.339584,22.3457029 175.241927,22.3847656 C174.577862,22.5996104 173.860095,22.8144521 173.088607,23.0292969 C172.317119,23.2441417 171.540759,23.3515625 170.759505,23.3515625 C169.607156,23.3515625 168.679431,23.0585967 167.976302,22.4726562 C167.898177,22.2968741 167.839584,22.1796878 167.800521,22.1210938 C167.761458,22.0624997 167.722396,21.994141 167.683334,21.9160156 Z M185.2375,23.3515625 C184.964061,23.1757804 184.744337,22.9511732 184.578321,22.6777344 C184.412304,22.4042955 184.275587,22.1113297 184.168164,21.7988281 C184.060742,21.4863266 183.972852,21.1591814 183.904492,20.8173828 C183.836133,20.4755842 183.762891,20.1484391 183.684766,19.8359375 C183.684766,19.5624986 183.743359,19.3623053 183.860547,19.2353516 C183.977735,19.1083978 184.104687,18.9863287 184.241407,18.8691406 C184.710159,18.8496093 185.130077,18.8105472 185.501172,18.7519531 C185.872268,18.6933591 186.233592,18.6347659 186.585157,18.5761719 C186.936721,18.5175778 187.28828,18.4638674 187.639844,18.4150391 C187.991408,18.3662107 188.372264,18.3417969 188.782422,18.3417969 C189.075392,17.7363251 189.348827,17.1552762 189.602735,16.5986328 C189.856642,16.0419894 190.10078,15.5097682 190.335157,15.0019531 C190.452345,14.5136694 190.60371,14.0595724 190.789258,13.6396484 C190.974806,13.2197245 191.155468,12.8193378 191.33125,12.4384766 C191.507032,12.0576153 191.663281,11.6767597 191.8,11.2958984 C191.93672,10.9150372 192.024609,10.5097678 192.063672,10.0800781 C192.298048,9.39648096 192.508007,8.76660444 192.693555,8.19042969 C192.879103,7.61425493 193.020703,6.92578525 193.11836,6.125 C192.376168,6.24218809 191.780471,6.35449165 191.33125,6.46191406 C190.882029,6.56933647 190.559767,6.67187451 190.364453,6.76953125 C189.973826,6.7499999 189.666212,6.67187568 189.441602,6.53515625 C189.216991,6.39843682 189.036329,6.23242285 188.89961,6.03710938 C188.76289,5.8417959 188.645704,5.61718877 188.548047,5.36328125 C188.45039,5.10937373 188.333204,4.84570449 188.196485,4.57226562 C188.27461,4.3964835 188.294141,4.13769702 188.255078,3.79589844 C188.216016,3.45409985 188.098829,3.20507891 187.903516,3.04882812 C188.059767,3.00976543 188.176953,2.87793081 188.255078,2.65332031 C188.333204,2.42870981 188.342969,2.25781309 188.284375,2.140625 C188.616408,2.04296826 188.967967,1.97949233 189.339063,1.95019531 C189.710158,1.92089829 190.076366,1.89160171 190.437696,1.86230469 C190.799026,1.83300767 191.145702,1.79394556 191.477735,1.74511719 C191.809768,1.69628882 192.092968,1.59375078 192.327344,1.4375 C193.342974,1.3984373 194.402534,1.3593752 195.506055,1.3203125 C196.609576,1.2812498 197.630074,1.23242217 198.567578,1.17382812 C198.919143,1.29101621 199.324412,1.34960938 199.783399,1.34960938 C200.242385,1.34960938 200.701365,1.37890596 201.160352,1.4375 C201.619339,1.49609404 202.029491,1.6230459 202.390821,1.81835938 C202.752151,2.01367285 203.001171,2.35546631 203.137891,2.84375 C203.430861,2.8828127 203.650586,2.96093691 203.797071,3.078125 C203.943556,3.19531309 204.036328,3.33691323 204.075391,3.50292969 C204.114454,3.66894614 204.129102,3.85449116 204.119336,4.05957031 C204.109571,4.26464946 204.104688,4.46484277 204.104688,4.66015625 C203.792186,4.89453242 203.396682,5.08496021 202.918164,5.23144531 C202.439646,5.37793042 201.917191,5.49511675 201.350782,5.58300781 C200.784372,5.67089888 200.193558,5.72949204 199.578321,5.75878906 C198.963083,5.78808608 198.362503,5.8124999 197.776563,5.83203125 C197.678906,6.47656572 197.508009,7.23339409 197.263867,8.10253906 C197.019726,8.97168403 196.770705,9.82128491 196.516797,10.6513672 C196.26289,11.4814495 196.043165,12.2236295 195.857617,12.8779297 C195.67207,13.5322298 195.589063,13.9570303 195.608594,14.1523438 C195.413281,14.6015647 195.252149,14.9824203 195.125196,15.2949219 C194.998242,15.6074234 194.881056,15.9003893 194.773633,16.1738281 C194.666211,16.447267 194.55879,16.715819 194.451367,16.9794922 C194.343945,17.2431654 194.21211,17.541014 194.05586,17.8730469 L196.048047,17.8730469 C196.08711,18.0878917 196.175,18.2343746 196.311719,18.3125 C196.448438,18.3906254 196.594921,18.4589841 196.751172,18.5175781 C196.907423,18.5761722 197.049023,18.6494136 197.175977,18.7373047 C197.302931,18.8251958 197.366407,18.9667959 197.366407,19.1621094 C197.737502,19.2597661 197.971875,19.406249 198.069532,19.6015625 C198.167188,19.796876 198.191602,20.0068348 198.142774,20.2314453 C198.093945,20.4560558 197.99629,20.6855457 197.849805,20.9199219 C197.70332,21.154298 197.56172,21.3593741 197.425,21.5351562 C197.249218,21.4960936 197.083204,21.5400384 196.926953,21.6669922 C196.770703,21.7939459 196.62422,21.9355461 196.4875,22.0917969 C195.921091,22.0136715 195.364456,22.003906 194.817578,22.0625 C194.270701,22.121094 193.762893,22.1699217 193.294141,22.2089844 C193.196484,22.2285157 193.157422,22.2822261 193.176953,22.3701172 C193.196485,22.4580083 193.176954,22.5214842 193.11836,22.5605469 C192.512888,22.3652334 191.892777,22.2871092 191.258008,22.3261719 C190.623239,22.3652346 189.978715,22.4580071 189.324414,22.6044922 C188.670114,22.7509773 188.001176,22.9072257 187.317578,23.0732422 C186.633981,23.2392586 185.940629,23.3320312 185.2375,23.3515625 Z M204.227214,19.5136719 C204.266277,19.6699227 204.295573,19.8164056 204.315104,19.953125 C204.334636,20.0898444 204.363932,20.2363273 204.402995,20.3925781 C204.32487,20.5878916 204.256511,20.7783194 204.197917,20.9638672 C204.139323,21.149415 204.08073,21.3300772 204.022136,21.5058594 C203.963542,21.6425788 203.92448,21.7304686 203.904948,21.7695312 C203.885417,21.8085939 203.875651,21.8378905 203.875651,21.8574219 C203.875651,21.8769532 203.880534,21.901367 203.8903,21.9306641 C203.900065,21.9599611 203.904948,22.0429681 203.904948,22.1796875 L203.787761,22.53125 C203.690104,22.6679694 203.572918,22.7753902 203.436198,22.8535156 C203.299479,22.931641 203.162761,22.9999997 203.026042,23.0585938 C202.986979,23.0976564 202.928386,23.1318358 202.850261,23.1611328 C202.772135,23.1904298 202.713542,23.2246092 202.674479,23.2636719 L202.586589,23.6152344 L202.205729,23.6738281 C201.873697,23.7519535 201.590496,23.7910156 201.35612,23.7910156 L201.004558,23.7910156 C200.770181,23.5761708 200.584636,23.4101568 200.447917,23.2929688 C200.311198,23.1757807 200.164715,23.0683599 200.008464,22.9707031 C199.81315,22.6972643 199.70573,22.4970709 199.686198,22.3701172 C199.666667,22.2431634 199.63737,22.1210943 199.598308,22.0039062 C199.559245,21.7499987 199.510417,21.5839848 199.451823,21.5058594 L199.041667,21.0957031 L199.393229,20.8320312 L199.070964,20.2753906 C199.30534,20.0996085 199.48112,19.9726566 199.598308,19.8945312 C199.715496,19.8164059 199.813151,19.7333989 199.891276,19.6455078 C199.969402,19.5576167 200.057292,19.4453132 200.154948,19.3085938 C200.252605,19.1718743 200.408853,18.9472672 200.623698,18.6347656 L200.88737,18.2539062 L201.268229,18.4589844 C201.346355,18.5175784 201.517252,18.5712888 201.780925,18.6201172 C202.044598,18.6689456 202.274088,18.7128904 202.469401,18.7519531 C202.801434,18.8496099 203.113931,18.9228513 203.406901,18.9716797 C203.699872,19.0205081 203.934244,19.1230461 204.110026,19.2792969 L204.227214,19.5136719 Z M207.045052,23.3515625 C206.771614,23.1757804 206.551889,22.9511732 206.385873,22.6777344 C206.219856,22.4042955 206.083139,22.1113297 205.975717,21.7988281 C205.868294,21.4863266 205.780404,21.1591814 205.712045,20.8173828 C205.643685,20.4755842 205.570443,20.1484391 205.492318,19.8359375 C205.492318,19.5624986 205.550911,19.3623053 205.668099,19.2353516 C205.785287,19.1083978 205.912239,18.9863287 206.048959,18.8691406 C206.517711,18.8496093 206.937629,18.8105472 207.308724,18.7519531 C207.67982,18.6933591 208.041144,18.6347659 208.392709,18.5761719 C208.744273,18.5175778 209.095832,18.4638674 209.447396,18.4150391 C209.79896,18.3662107 210.179816,18.3417969 210.589974,18.3417969 C210.882945,17.7363251 211.156379,17.1552762 211.410287,16.5986328 C211.664194,16.0419894 211.908333,15.5097682 212.142709,15.0019531 C212.259897,14.5136694 212.411262,14.0595724 212.59681,13.6396484 C212.782358,13.2197245 212.96302,12.8193378 213.138802,12.4384766 C213.314585,12.0576153 213.470833,11.6767597 213.607552,11.2958984 C213.744272,10.9150372 213.832162,10.5097678 213.871224,10.0800781 C214.1056,9.39648096 214.315559,8.76660444 214.501107,8.19042969 C214.686655,7.61425493 214.828255,6.92578525 214.925912,6.125 C214.183721,6.24218809 213.588023,6.35449165 213.138802,6.46191406 C212.689581,6.56933647 212.367319,6.67187451 212.172006,6.76953125 C211.781379,6.7499999 211.473765,6.67187568 211.249154,6.53515625 C211.024544,6.39843682 210.843881,6.23242285 210.707162,6.03710938 C210.570442,5.8417959 210.453256,5.61718877 210.355599,5.36328125 C210.257943,5.10937373 210.140756,4.84570449 210.004037,4.57226562 C210.082162,4.3964835 210.101693,4.13769702 210.062631,3.79589844 C210.023568,3.45409985 209.906382,3.20507891 209.711068,3.04882812 C209.867319,3.00976543 209.984505,2.87793081 210.062631,2.65332031 C210.140756,2.42870981 210.150521,2.25781309 210.091927,2.140625 C210.42396,2.04296826 210.775519,1.97949233 211.146615,1.95019531 C211.517711,1.92089829 211.883918,1.89160171 212.245248,1.86230469 C212.606578,1.83300767 212.953254,1.79394556 213.285287,1.74511719 C213.61732,1.69628882 213.90052,1.59375078 214.134896,1.4375 C215.150526,1.3984373 216.210086,1.3593752 217.313607,1.3203125 C218.417128,1.2812498 219.437626,1.23242217 220.375131,1.17382812 C220.726695,1.29101621 221.131964,1.34960938 221.590951,1.34960938 C222.049938,1.34960938 222.508917,1.37890596 222.967904,1.4375 C223.426891,1.49609404 223.837043,1.6230459 224.198373,1.81835938 C224.559703,2.01367285 224.808724,2.35546631 224.945443,2.84375 C225.238413,2.8828127 225.458138,2.96093691 225.604623,3.078125 C225.751108,3.19531309 225.84388,3.33691323 225.882943,3.50292969 C225.922006,3.66894614 225.936654,3.85449116 225.926888,4.05957031 C225.917123,4.26464946 225.91224,4.46484277 225.91224,4.66015625 C225.599738,4.89453242 225.204235,5.08496021 224.725717,5.23144531 C224.247198,5.37793042 223.724743,5.49511675 223.158334,5.58300781 C222.591925,5.67089888 222.00111,5.72949204 221.385873,5.75878906 C220.770635,5.78808608 220.170055,5.8124999 219.584115,5.83203125 C219.486458,6.47656572 219.315561,7.23339409 219.07142,8.10253906 C218.827278,8.97168403 218.578257,9.82128491 218.324349,10.6513672 C218.070442,11.4814495 217.850717,12.2236295 217.66517,12.8779297 C217.479622,13.5322298 217.396615,13.9570303 217.416146,14.1523438 C217.220833,14.6015647 217.059702,14.9824203 216.932748,15.2949219 C216.805794,15.6074234 216.688608,15.9003893 216.581185,16.1738281 C216.473763,16.447267 216.366342,16.715819 216.25892,16.9794922 C216.151497,17.2431654 216.019663,17.541014 215.863412,17.8730469 L217.855599,17.8730469 C217.894662,18.0878917 217.982552,18.2343746 218.119271,18.3125 C218.255991,18.3906254 218.402474,18.4589841 218.558724,18.5175781 C218.714975,18.5761722 218.856575,18.6494136 218.983529,18.7373047 C219.110483,18.8251958 219.173959,18.9667959 219.173959,19.1621094 C219.545054,19.2597661 219.779427,19.406249 219.877084,19.6015625 C219.97474,19.796876 219.999154,20.0068348 219.950326,20.2314453 C219.901498,20.4560558 219.803842,20.6855457 219.657357,20.9199219 C219.510872,21.154298 219.369272,21.3593741 219.232552,21.5351562 C219.05677,21.4960936 218.890756,21.5400384 218.734506,21.6669922 C218.578255,21.7939459 218.431772,21.9355461 218.295052,22.0917969 C217.728643,22.0136715 217.172008,22.003906 216.625131,22.0625 C216.078253,22.121094 215.570445,22.1699217 215.101693,22.2089844 C215.004036,22.2285157 214.964974,22.2822261 214.984506,22.3701172 C215.004037,22.4580083 214.984506,22.5214842 214.925912,22.5605469 C214.32044,22.3652334 213.700329,22.2871092 213.06556,22.3261719 C212.430791,22.3652346 211.786267,22.4580071 211.131967,22.6044922 C210.477666,22.7509773 209.808728,22.9072257 209.125131,23.0732422 C208.441533,23.2392586 207.748181,23.3320312 207.045052,23.3515625 Z M228.232032,23.1171875 C227.372652,23.2343756 226.59141,23.1953135 225.888282,23 C225.185153,22.8046865 224.555277,22.5019552 223.998633,22.0917969 C223.44199,21.6816386 222.963479,21.1933622 222.563086,20.6269531 C222.162694,20.060544 221.835549,19.4550813 221.581641,18.8105469 C221.405859,17.4824152 221.454687,16.2763726 221.728125,15.1923828 C222.001564,14.108393 222.401951,13.1074265 222.929297,12.1894531 C223.456644,11.2714798 224.057224,10.4121134 224.731055,9.61132812 C225.404887,8.81054287 226.054294,8.03906621 226.679297,7.296875 C226.816017,7.35546904 226.92832,7.35546904 227.016211,7.296875 C227.104102,7.23828096 227.182227,7.16015674 227.250586,7.0625 C227.318946,6.96484326 227.39707,6.86718799 227.484961,6.76953125 C227.572852,6.67187451 227.67539,6.60351582 227.792579,6.56445312 C227.870704,6.388671 227.973242,6.24218809 228.100196,6.125 C228.227149,6.00781191 228.363867,5.89550835 228.510352,5.78808594 C228.656837,5.68066353 228.793554,5.56835996 228.920508,5.45117188 C229.047462,5.33398379 229.159766,5.18750088 229.257422,5.01171875 C229.452736,4.97265605 229.623632,4.90429736 229.770118,4.80664062 C229.916603,4.70898389 230.05332,4.60156309 230.180274,4.484375 C230.307228,4.36718691 230.439062,4.25976611 230.575782,4.16210938 C230.712501,4.06445264 230.878515,3.98632842 231.073829,3.92773438 L231.073829,3.546875 C231.503518,3.35156152 231.816015,3.13671992 232.011329,2.90234375 C232.206642,2.66796758 232.441015,2.36523623 232.714454,1.99414062 C232.929298,1.97460928 233.100195,1.96484375 233.227149,1.96484375 C233.354103,1.96484375 233.554296,1.9453127 233.827735,1.90625 C234.003517,1.57421709 234.169531,1.33007891 234.325782,1.17382812 C234.482032,1.01757734 234.70664,0.841797852 234.99961,0.646484375 C235.29258,0.802735156 235.605077,0.895507666 235.93711,0.924804688 C236.269143,0.954101709 236.571874,1.10546738 236.845313,1.37890625 C236.864844,1.61328242 236.933203,1.79394468 237.050391,1.92089844 C237.167579,2.0478522 237.294531,2.16503853 237.43125,2.27246094 C237.56797,2.37988335 237.704687,2.49218691 237.841407,2.609375 C237.978126,2.72656309 238.066016,2.89257705 238.105079,3.10742188 C238.202735,3.10742188 238.266211,3.08789082 238.295508,3.04882812 C238.324805,3.00976543 238.388281,2.9999999 238.485938,3.01953125 C238.525001,3.17578203 238.564063,3.30273389 238.603125,3.40039062 C238.642188,3.49804736 238.686133,3.58593711 238.734961,3.6640625 C238.78379,3.74218789 238.832617,3.83007764 238.881446,3.92773438 C238.930274,4.02539111 238.974219,4.14257744 239.013282,4.27929688 C238.915625,4.51367305 238.827735,4.76269399 238.74961,5.02636719 C238.671484,5.29004038 238.515236,5.47070264 238.28086,5.56835938 C238.28086,5.72461016 238.339453,5.80761714 238.456641,5.81738281 C238.573829,5.82714849 238.642188,5.90038994 238.661719,6.03710938 C238.68125,6.2128915 238.651954,6.35937441 238.573829,6.4765625 C239.120706,7.39453584 239.618748,8.35644028 240.067969,9.36230469 C240.51719,10.3681691 241.024998,11.3300735 241.591407,12.2480469 C241.552344,12.5214857 241.566992,12.7900377 241.635352,13.0537109 C241.703712,13.3173841 241.791601,13.5761706 241.899024,13.8300781 C242.006446,14.0839856 242.108984,14.3378894 242.206641,14.5917969 C242.304298,14.8457044 242.372656,15.0996081 242.411719,15.3535156 C242.450782,15.6855485 242.450782,16.0419903 242.411719,16.4228516 C242.372656,16.8037128 242.294532,17.1699201 242.177344,17.5214844 C242.060156,17.8730486 241.903908,18.2001938 241.708594,18.5029297 C241.513281,18.8056656 241.288674,19.0351555 241.034766,19.1914062 C240.722264,19.5820332 240.331643,19.8994128 239.862891,20.1435547 C239.394139,20.3876965 238.964455,20.6757796 238.573829,21.0078125 C238.30039,21.1640633 238.007424,21.2763668 237.694922,21.3447266 C237.382421,21.4130863 237.060158,21.4863277 236.728125,21.5644531 C236.474218,21.7207039 236.171487,21.8720696 235.819922,22.0185547 C235.468358,22.1650398 235.107034,22.2968744 234.735938,22.4140625 C234.364842,22.5312506 233.993752,22.6240231 233.622657,22.6923828 C233.251561,22.7607425 232.919533,22.7753908 232.626563,22.7363281 C231.923434,22.9902356 231.239847,23.1660151 230.575782,23.2636719 C229.911716,23.3613286 229.130474,23.312501 228.232032,23.1171875 Z M228.612891,12.453125 C228.417578,12.902346 228.188088,13.3076154 227.924414,13.6689453 C227.660741,14.0302752 227.401955,14.3964825 227.148047,14.7675781 C226.89414,15.1386737 226.674415,15.5341776 226.488868,15.9541016 C226.30332,16.3740255 226.200782,16.8671847 226.18125,17.4335938 C226.571877,17.7656267 227.03574,17.96582 227.572852,18.0341797 C228.109964,18.1025394 228.661716,18.1123049 229.228125,18.0634766 C229.794534,18.0146482 230.360935,17.9414067 230.927344,17.84375 C231.493753,17.7460933 232.001561,17.6972656 232.450782,17.6972656 C232.450782,17.5214835 232.528906,17.4335938 232.685157,17.4335938 C233.505473,17.3554684 234.267184,17.1259785 234.970313,16.7451172 C235.673441,16.3642559 236.405856,15.9785176 237.167579,15.5878906 C237.265235,15.3535145 237.392187,15.1484384 237.548438,14.9726562 C237.704689,14.7968741 237.792578,14.5429704 237.81211,14.2109375 C237.714453,14.0351554 237.650977,13.8886725 237.62168,13.7714844 C237.592383,13.6542963 237.577735,13.4785168 237.577735,13.2441406 C237.06992,12.5410121 236.630471,11.7744182 236.259375,10.9443359 C235.88828,10.1142537 235.458597,9.32812871 234.970313,8.5859375 C234.93125,8.68359424 234.853126,8.78124951 234.735938,8.87890625 C234.61875,8.97656299 234.491798,8.95703193 234.355079,8.8203125 C234.296484,9.01562598 234.208595,9.1474606 234.091407,9.21582031 C233.974219,9.28418003 233.842384,9.31835938 233.695899,9.31835938 C233.549414,9.31835938 233.402931,9.28906279 233.256446,9.23046875 C233.109961,9.17187471 232.978126,9.09375049 232.860938,8.99609375 C232.177341,9.54297148 231.498637,10.07031 230.824805,10.578125 C230.150974,11.08594 229.540628,11.6816372 228.99375,12.3652344 C228.896094,12.4238284 228.8375,12.4433595 228.817969,12.4238281 C228.798438,12.4042968 228.730079,12.4140623 228.612891,12.453125 Z" id="AMBROSELLI.IO" fill="#0A0A0A"></path>
</svg>
